{
.appVersion = "845";
copyright = "Copyright (c) 2016 Dan Reynolds. ";
customParameters = (
{
name = license;
value = "This Font Software is licensed under the SIL Open Font License Version 1.1. This license is available with a FAQ at: http://scripts.sil.org/OFL";
},
{
name = licenseURL;
value = "http://scripts.sil.org/OFL";
},
{
name = vendorID;
value = toff;
},
{
name = fsType;
value = (
);
},
{
name = trademark;
value = "Dasa is a trademark of Dan Reynolds.";
},
{
name = note;
value = "Version 1.001: Updated OpenType features to include PAN language tags. Changed name from Moga to Dasa. Changed form of the comma, as well as other characters whose form reflects the comma’s shape.";
}
);
date = "2016-04-16 13:22:05 +0000";
designer = "Dan Reynolds";
designerURL = "https://github.com/typeoff/";
familyName = "Dasa";
featurePrefixes = (
{
code = "languagesystem DFLT dflt;\012languagesystem latn dflt;\012languagesystem gur2 dflt;\012languagesystem guru dflt;\012languagesystem latn NLD;\012languagesystem latn ROM;\012languagesystem latn MOL;\012languagesystem latn KAZ;\012languagesystem latn TAT;\012languagesystem latn TRK;\012languagesystem latn CRT;\012languagesystem latn AZE;\012languagesystem gur2 PAN;\012languagesystem guru PAN;\012";
name = Languagesystems;
}
);
features = (
{
automatic = 1;
code = "feature locl;\012feature nukt;\012feature blwf;\012feature calt;\012feature ccmp;\012feature sups;\012feature frac;\012feature lnum;\012feature onum;\012feature abvs;\012feature salt;\012feature ss01;\012feature cjct;\012";
name = aalt;
},
{
automatic = 1;

glyphs = (
{
color = -1;
glyphname = A;
lastChange = "2016-02-12 12:36:05 +0000";
layers = (
{
anchors = (
{
name = bottom;
position = "{385, 0}";
},
{
name = top;
position = "{385, 636}";
}
);
layerId = "D34FCF88-AF1D-4520-8FB0-498E26D42FBC";
paths = (
{
closed = 1;
nodes = (
"75 -32 OFFCURVE",
"129 31 OFFCURVE",
"165 70 CURVE SMOOTH",
"324 249 OFFCURVE",
"400 417 OFFCURVE",
"419 552 CURVE",
"348 552 LINE",
"306 377 OFFCURVE",
"188 226 OFFCURVE",
"100 127 CURVE SMOOTH",
"42 63 OFFCURVE",
"-17 54 OFFCURVE",
"-17 12 CURVE SMOOTH",
"-17 -14 OFFCURVE",
"7 -32 OFFCURVE",
"27 -32 CURVE SMOOTH"
);
},
{
closed = 1;
nodes = (
"427 80 OFFCURVE",
"456 90 OFFCURVE",
"510 113 CURVE",
"510 113 OFFCURVE",
"466 184 OFFCURVE",
"466 184 CURVE",
"430 168 OFFCURVE",
"405 165 OFFCURVE",
"381 165 CURVE SMOOTH",
"338 165 OFFCURVE",
"302 169 OFFCURVE",
"223 190 CURVE",
"223 190 OFFCURVE",
"173 116 OFFCURVE",
"173 116 CURVE",
"285 86 OFFCURVE",
"338 80 OFFCURVE",
"381 80 CURVE SMOOTH"
);
},
{
closed = 1;
nodes = (
"577 -31 OFFCURVE",
"603 -14 OFFCURVE",
"603 11 CURVE SMOOTH",
"603 43 OFFCURVE",
"573 69 OFFCURVE",
"538 148 CURVE SMOOTH",
"503 225 OFFCURVE",
"472 333 OFFCURVE",
"444 457 CURVE SMOOTH",
"427 525 OFFCURVE",
"457 655 OFFCURVE",
"385 655 CURVE SMOOTH",
"316 655 OFFCURVE",
"335 552 OFFCURVE",
"355 466 CURVE SMOOTH",
"378 367 OFFCURVE",
"414 233 OFFCURVE",
"456 122 CURVE SMOOTH",
"483 48 OFFCURVE",
"511 -31 OFFCURVE",
"557 -31 CURVE SMOOTH"
);
}
);
width = 630;
}
);
unicode = 0041;
},
{
color = -1;
glyphname = AE;
lastChange = "2016-02-12 12:36:05 +0000";
layers = (
{
anchors = (
{
name = top;
position = "{566, 636}";
}
);
background = {
paths = (
{
closed = 1;
nodes = (
"103 27 OFFCURVE",
"138 32 OFFCURVE",
"161 65 CURVE SMOOTH",
"311 283 LINE",
"457 504 LINE SMOOTH",
"482 542 OFFCURVE",
"492 562 OFFCURVE",
"470 578 CURVE SMOOTH",
"439 602 OFFCURVE",
"395 592 OFFCURVE",
"376 565 CURVE SMOOTH",
"355 535 OFFCURVE",
"306 427 OFFCURVE",
"237 331 CURVE SMOOTH",
"169 238 LINE SMOOTH",
"136 191 OFFCURVE",
"90 152 OFFCURVE",
"60 108 CURVE SMOOTH",
"46 90 OFFCURVE",
"58 60 OFFCURVE",
"73 49 CURVE SMOOTH"
);
},
{
closed = 1;
nodes = (
"159 144 OFFCURVE",
"182 122 OFFCURVE",
"205 126 CURVE SMOOTH",
"255 136 OFFCURVE",
"311 163 OFFCURVE",
"367 176 CURVE SMOOTH",
"478 201 LINE SMOOTH",
"594 228 OFFCURVE",
"713 229 OFFCURVE",
"749 238 CURVE SMOOTH",
"780 246 OFFCURVE",
"806 281 OFFCURVE",
"797 319 CURVE SMOOTH",
"791 346 OFFCURVE",
"769 344 OFFCURVE",
"724 336 CURVE SMOOTH",
"463 288 LINE",
"205 237 LINE SMOOTH",
"166 229 OFFCURVE",
"146 198 OFFCURVE",
"155 161 CURVE SMOOTH"
);
}
);
};
guideLines = (
{
position = "{545, 640}";
},
{
position = "{545, -21}";
}
);
layerId = "D34FCF88-AF1D-4520-8FB0-498E26D42FBC";
paths = (
{
closed = 1;
nodes = (
"87 -21 OFFCURVE",
"100 -9 OFFCURVE",
"122 15 CURVE SMOOTH",
"156 54 OFFCURVE",
"194 111 OFFCURVE",
"226 158 CURVE SMOOTH",
"316 292 LINE SMOOTH",
"384 390 OFFCURVE",
"469 515 OFFCURVE",
"483 549 CURVE SMOOTH",
"487 556 OFFCURVE",
"489 565 OFFCURVE",
"489 574 CURVE SMOOTH",
"489 605 OFFCURVE",
"463 640 OFFCURVE",
"435 640 CURVE SMOOTH",
"418 640 OFFCURVE",
"410 624 OFFCURVE",
"390 589 CURVE SMOOTH",
"263 367 LINE",
"118 167 LINE SMOOTH",
"85 121 OFFCURVE",
"13 80 OFFCURVE",
"13 36 CURVE SMOOTH",
"13 11 OFFCURVE",
"46 -21 OFFCURVE",
"67 -21 CURVE SMOOTH"
);
},
{
closed = 1;
nodes = (
"543 216 LINE",
"728 247 LINE SMOOTH",
"758 251 OFFCURVE",
"793 259 OFFCURVE",
"793 281 CURVE SMOOTH",
"793 310 OFFCURVE",
"768 333 OFFCURVE",
"728 333 CURVE SMOOTH",
"702 333 OFFCURVE",
"638 321 OFFCURVE",
"587 311 CURVE SMOOTH",
"283 252 LINE SMOOTH",
"265 249 OFFCURVE",
"255 236 OFFCURVE",
"255 221 CURVE SMOOTH",
"255 204 OFFCURVE",
"286 159 OFFCURVE",
"322 167 CURVE SMOOTH"
);
},
{
closed = 1;
nodes = (
"730 -31 OFFCURVE",
"802 -14 OFFCURVE",
"831 1 CURVE SMOOTH",
"849 11 OFFCURVE",
"859 24 OFFCURVE",
"859 44 CURVE SMOOTH",
"859 70 OFFCURVE",
"843 82 OFFCURVE",
"823 82 CURVE SMOOTH",
"785 82 OFFCURVE",
"740 56 OFFCURVE",
"679 56 CURVE SMOOTH",
"648 56 OFFCURVE",
"606 62 OFFCURVE",
"578 72 CURVE",
"587 232 LINE",
"595 357 LINE",
"595 536 LINE SMOOTH",
"595 553 OFFCURVE",
"601 556 OFFCURVE",
"614 556 CURVE SMOOTH",
"796 551 LINE SMOOTH",
"825 550 OFFCURVE",
"841 572 OFFCURVE",
"841 593 CURVE SMOOTH",
"841 613 OFFCURVE",
"833 635 OFFCURVE",
"796 636 CURVE SMOOTH",
"580 641 LINE SMOOTH",
"538 643 OFFCURVE",
"497 639 OFFCURVE",
"497 585 CURVE SMOOTH",
"497 552 OFFCURVE",
"508 536 OFFCURVE",
"508 501 CURVE",
"508 316 LINE",
"489 42 LINE",
"489 -3 OFFCURVE",
"563 -31 OFFCURVE",
"679 -31 CURVE SMOOTH"
);
}
);
width = 906;
}
);
unicode = 00C6;
},
{
color = -1;
glyphname = B;
lastChange = "2016-02-12 12:36:05 +0000";
layers = (
{
anchors = (
{
name = bottom;
position = "{313, 0}";
},
{
name = top;
position = "{282, 450}";
}
);
background = {
paths = (
{
closed = 1;
nodes = (
"255 547 OFFCURVE",
"165 528 OFFCURVE",
"124 501 CURVE",
"111 417 OFFCURVE",
"107 322 OFFCURVE",
"107 207 CURVE SMOOTH",
"107 121 OFFCURVE",
"120 31 OFFCURVE",
"132 -42 CURVE",
"224 -67 LINE",
"207 17 OFFCURVE",
"195 93 OFFCURVE",
"195 185 CURVE SMOOTH",
"195 271 OFFCURVE",
"196 357 OFFCURVE",
"202 444 CURVE",
"224 451 OFFCURVE",
"266 460 OFFCURVE",
"314 460 CURVE SMOOTH",
"384 460 OFFCURVE",
"451 427 OFFCURVE",
"451 345 CURVE SMOOTH",
"451 273 OFFCURVE",
"387 254 OFFCURVE",
"318 251 CURVE SMOOTH",
"262 251 OFFCURVE",
"207 254 OFFCURVE",
"152 268 CURVE",
"164 171 LINE",
"223 166 OFFCURVE",
"286 166 OFFCURVE",
"346 166 CURVE",
"427 166 OFFCURVE",
"541 232 OFFCURVE",
"541 345 CURVE SMOOTH",
"541 462 OFFCURVE",
"451 547 OFFCURVE",
"314 547 CURVE"
);
}
);
};
layerId = "D34FCF88-AF1D-4520-8FB0-498E26D42FBC";
paths = (
{
closed = 1;
nodes = (
"450 -34 OFFCURVE",
"540 51 OFFCURVE",
"540 168 CURVE SMOOTH",
"540 281 OFFCURVE",
"426 347 OFFCURVE",
"345 347 CURVE",
"284 347 OFFCURVE",
"221 347 OFFCURVE",
"163 342 CURVE",
"151 246 LINE",
"206 259 OFFCURVE",
"261 262 OFFCURVE",
"317 262 CURVE SMOOTH",
"386 259 OFFCURVE",
"450 240 OFFCURVE",
"450 168 CURVE SMOOTH",
"450 86 OFFCURVE",
"383 53 OFFCURVE",
"313 53 CURVE SMOOTH",
"265 53 OFFCURVE",
"225 62 OFFCURVE",
"203 70 CURVE",
"195 119 OFFCURVE",
"194 242 OFFCURVE",
"194 328 CURVE SMOOTH",
"194 420 OFFCURVE",
"206 497 OFFCURVE",
"223 581 CURVE",
"131 555 LINE",
"119 482 OFFCURVE",
"106 393 OFFCURVE",
"106 306 CURVE SMOOTH",
"106 191 OFFCURVE",
"110 96 OFFCURVE",
"123 12 CURVE",
"164 -14 OFFCURVE",
"253 -34 OFFCURVE",
"313 -34 CURVE"
);
},
{
closed = 1;
nodes = (
"412 345 OFFCURVE",
"465 398 OFFCURVE",
"465 492 CURVE SMOOTH",
"465 594 OFFCURVE",
"377 655 OFFCURVE",
"282 655 CURVE SMOOTH",
"244 655 OFFCURVE",
"202 651 OFFCURVE",
"164 638 CURVE SMOOTH",
"123 624 OFFCURVE",
"62 597 OFFCURVE",
"62 568 CURVE SMOOTH",
"62 538 OFFCURVE",
"102 509 OFFCURVE",
"140 497 CURVE",
"167 550 LINE",
"206 561 OFFCURVE",
"244 567 OFFCURVE",
"282 567 CURVE SMOOTH",
"345 567 OFFCURVE",
"375 539 OFFCURVE",
"375 492 CURVE SMOOTH",
"375 424 OFFCURVE",
"318 357 OFFCURVE",
"241 328 CURVE",
"303 282 LINE"
);
}
);
width = 610;
}
);
unicode = 0042;
},
{
color = -1;
glyphname = C;
lastChange = "2016-02-12 12:36:05 +0000";
layers = (
{
anchors = (
{
name = bottom;
position = "{366, 0}";
},
{
name = top;
position = "{395, 636}";
}
);
background = {
paths = (
{
closed = 1;
nodes = (
"508 -31 OFFCURVE",
"648 51 OFFCURVE",
"648 145 CURVE SMOOTH",
"648 156 OFFCURVE",
"644 179 OFFCURVE",
"630 179 CURVE SMOOTH",
"617 179 OFFCURVE",
"580 145 OFFCURVE",
"537 116 CURVE SMOOTH",
"488 84 OFFCURVE",
"433 56 OFFCURVE",
"363 56 CURVE SMOOTH",
"254 56 OFFCURVE",
"165 132 OFFCURVE",
"165 255 CURVE SMOOTH",
"165 409 OFFCURVE",
"279 567 OFFCURVE",
"395 567 CURVE SMOOTH",
"522 567 OFFCURVE",
"527 468 OFFCURVE",
"580 468 CURVE SMOOTH",
"601 468 OFFCURVE",
"625 480 OFFCURVE",
"625 517 CURVE SMOOTH",
"625 578 OFFCURVE",
"540 655 OFFCURVE",
"398 655 CURVE SMOOTH",
"202 655 OFFCURVE",
"76 419 OFFCURVE",
"76 255 CURVE SMOOTH",
"76 94 OFFCURVE",
"184 -31 OFFCURVE",
"366 -31 CURVE SMOOTH"
);
}
);
};
layerId = "D34FCF88-AF1D-4520-8FB0-498E26D42FBC";
paths = (
{
closed = 1;
nodes = (
"503 -31 OFFCURVE",
"637 51 OFFCURVE",
"637 145 CURVE SMOOTH",
"637 156 OFFCURVE",
"633 179 OFFCURVE",
"619 179 CURVE SMOOTH",
"606 179 OFFCURVE",
"571 145 OFFCURVE",
"529 116 CURVE SMOOTH",
"483 84 OFFCURVE",
"430 56 OFFCURVE",
"363 56 CURVE SMOOTH",
"254 56 OFFCURVE",
"165 132 OFFCURVE",
"165 255 CURVE SMOOTH",
"165 409 OFFCURVE",
"279 567 OFFCURVE",
"395 567 CURVE SMOOTH",
"514 567 OFFCURVE",
"516 468 OFFCURVE",
"569 468 CURVE SMOOTH",
"590 468 OFFCURVE",
"614 480 OFFCURVE",
"614 517 CURVE SMOOTH",
"614 578 OFFCURVE",
"534 655 OFFCURVE",
"398 655 CURVE SMOOTH",
"202 655 OFFCURVE",
"76 419 OFFCURVE",
"76 255 CURVE SMOOTH",
"76 94 OFFCURVE",
"184 -31 OFFCURVE",
"366 -31 CURVE SMOOTH"
);
}
);
width = 696;
}
);
unicode = 0043;
},
{
color = -1;
glyphname = D;
lastChange = "2016-02-12 12:36:05 +0000";
layers = (
{
anchors = (
{
name = bottom;
position = "{335, 0}";
},
{
name = top;
position = "{324, 636}";
}
);
background = {
paths = (
{
closed = 1;
nodes = (
"529 -29 OFFCURVE",
"653 94 OFFCURVE",
"653 257 CURVE SMOOTH",
"653 478 OFFCURVE",
"530 645 OFFCURVE",
"345 654 CURVE SMOOTH",
"272 657 LINE SMOOTH",
"152 662 OFFCURVE",
"71 622 OFFCURVE",
"71 597 CURVE SMOOTH",
"71 585 OFFCURVE",
"77 574 OFFCURVE",
"84 566 CURVE SMOOTH",
"101 551 OFFCURVE",
"126 538 OFFCURVE",
"124 503 CURVE SMOOTH",
"101 51 LINE",
"164 -10 OFFCURVE",
"237 -29 OFFCURVE",
"335 -29 CURVE"
);
},
{
closed = 1;
nodes = (
"211 325 LINE SMOOTH",
"215 429 OFFCURVE",
"228 512 OFFCURVE",
"242 605 CURVE",
"150 570 LINE",
"345 566 LINE SMOOTH",
"493 564 OFFCURVE",
"563 409 OFFCURVE",
"563 257 CURVE SMOOTH",
"563 132 OFFCURVE",
"470 85 OFFCURVE",
"380 63 CURVE SMOOTH",
"365 60 OFFCURVE",
"351 59 OFFCURVE",
"335 59 CURVE SMOOTH",
"267 59 OFFCURVE",
"205 74 OFFCURVE",
"122 121 CURVE",
"201 20 LINE"
);
}
);
};
layerId = "D34FCF88-AF1D-4520-8FB0-498E26D42FBC";
paths = (
{
closed = 1;
nodes = (
"529 -29 OFFCURVE",
"653 94 OFFCURVE",
"653 257 CURVE SMOOTH",
"653 489 OFFCURVE",
"530 645 OFFCURVE",
"345 654 CURVE SMOOTH",
"272 657 LINE SMOOTH",
"152 662 OFFCURVE",
"71 622 OFFCURVE",
"71 597 CURVE SMOOTH",
"71 585 OFFCURVE",
"77 574 OFFCURVE",
"84 566 CURVE SMOOTH",
"101 551 OFFCURVE",
"126 538 OFFCURVE",
"124 503 CURVE SMOOTH",
"100 29 LINE",
"159 -8 OFFCURVE",
"237 -29 OFFCURVE",
"335 -29 CURVE"
);
},
{
closed = 1;
nodes = (
"211 325 LINE SMOOTH",
"215 429 OFFCURVE",
"228 512 OFFCURVE",
"242 605 CURVE",
"150 570 LINE",
"323 566 LINE SMOOTH",
"494 563 OFFCURVE",
"563 409 OFFCURVE",
"563 257 CURVE SMOOTH",
"563 127 OFFCURVE",
"458 59 OFFCURVE",
"335 59 CURVE SMOOTH",
"267 59 OFFCURVE",
"205 74 OFFCURVE",
"122 121 CURVE",
"201 20 LINE"
);
}
);
width = 729;
}
);
unicode = 0044;
},
{
color = -1;
glyphname = Eth;
lastChange = "2016-02-12 12:36:05 +0000";
layers = (
{
anchors = (
{
name = bottom;
position = "{335, 0}";
},
{
name = top;
position = "{306, 450}";
}
);
layerId = "D34FCF88-AF1D-4520-8FB0-498E26D42FBC";
paths = (
{
closed = 1;
nodes = (
"529 -29 OFFCURVE",
"653 94 OFFCURVE",
"653 257 CURVE SMOOTH",
"653 489 OFFCURVE",
"530 645 OFFCURVE",
"345 654 CURVE SMOOTH",
"272 657 LINE SMOOTH",
"152 662 OFFCURVE",
"71 622 OFFCURVE",
"71 597 CURVE SMOOTH",
"71 585 OFFCURVE",
"77 574 OFFCURVE",
"84 566 CURVE SMOOTH",
"101 551 OFFCURVE",
"126 538 OFFCURVE",
"124 503 CURVE SMOOTH",
"100 29 LINE",
"159 -8 OFFCURVE",
"237 -29 OFFCURVE",
"335 -29 CURVE"
);
},
{
closed = 1;
nodes = (
"211 325 LINE SMOOTH",
"215 429 OFFCURVE",
"228 512 OFFCURVE",
"242 605 CURVE",
"150 570 LINE",
"323 566 LINE SMOOTH",
"494 563 OFFCURVE",
"563 409 OFFCURVE",
"563 257 CURVE SMOOTH",
"563 127 OFFCURVE",
"458 59 OFFCURVE",
"335 59 CURVE SMOOTH",
"267 59 OFFCURVE",
"205 74 OFFCURVE",
"122 121 CURVE",
"201 20 LINE"
);
},
{
closed = 1;
nodes = (
"358 271 LINE SMOOTH",
"378 271 OFFCURVE",
"389 278 OFFCURVE",
"389 296 CURVE SMOOTH",
"389 323 OFFCURVE",
"374 348 OFFCURVE",
"354 348 CURVE SMOOTH",
"24 348 LINE SMOOTH",
"14 348 OFFCURVE",
"10 337 OFFCURVE",
"10 322 CURVE SMOOTH",
"10 305 OFFCURVE",
"23 271 OFFCURVE",
"43 271 CURVE"
);
}
);
width = 729;
}
);
unicode = 00D0;
},
{
color = -1;
glyphname = E;
lastChange = "2016-02-12 12:36:05 +0000";
layers = (
{
anchors = (
{
name = bottom;
position = "{280, 0}";
},
{
name = top;
position = "{280, 636}";
}
);
background = {
paths = (
{
closed = 1;
nodes = (
"341 -31 OFFCURVE",
"413 -14 OFFCURVE",
"441 1 CURVE SMOOTH",
"460 11 OFFCURVE",
"470 24 OFFCURVE",
"470 44 CURVE SMOOTH",
"470 70 OFFCURVE",
"454 82 OFFCURVE",
"434 82 CURVE SMOOTH",
"396 82 OFFCURVE",
"351 56 OFFCURVE",
"290 56 CURVE SMOOTH",
"242 56 OFFCURVE",
"184 81 OFFCURVE",
"184 142 CURVE SMOOTH",
"184 167 OFFCURVE",
"187 205 OFFCURVE",
"192 232 CURVE SMOOTH",
"200 271 OFFCURVE",
"215 275 OFFCURVE",
"342 286 CURVE SMOOTH",
"378 290 OFFCURVE",
"396 305 OFFCURVE",
"396 331 CURVE SMOOTH",
"396 361 OFFCURVE",
"378 377 OFFCURVE",
"342 377 CURVE SMOOTH",
"303 377 OFFCURVE",
"254 369 OFFCURVE",
"206 358 CURVE",
"206 536 LINE SMOOTH",
"206 553 OFFCURVE",
"211 556 OFFCURVE",
"225 556 CURVE SMOOTH",
"407 551 LINE SMOOTH",
"436 550 OFFCURVE",
"451 572 OFFCURVE",
"451 593 CURVE SMOOTH",
"451 613 OFFCURVE",
"444 635 OFFCURVE",
"407 636 CURVE SMOOTH",
"190 641 LINE SMOOTH",
"148 641 OFFCURVE",
"107 639 OFFCURVE",
"107 585 CURVE",
"107 552 OFFCURVE",
"118 536 OFFCURVE",
"118 501 CURVE",
"118 316 LINE SMOOTH",
"118 271 OFFCURVE",
"94 218 OFFCURVE",
"94 119 CURVE SMOOTH",
"94 39 OFFCURVE",
"174 -31 OFFCURVE",
"290 -31 CURVE SMOOTH"
);
}
);
};
layerId = "D34FCF88-AF1D-4520-8FB0-498E26D42FBC";
paths = (
{
closed = 1;
nodes = (
"341 -31 OFFCURVE",
"413 -14 OFFCURVE",
"441 1 CURVE SMOOTH",
"460 11 OFFCURVE",
"470 24 OFFCURVE",
"470 44 CURVE SMOOTH",
"470 70 OFFCURVE",
"454 82 OFFCURVE",
"434 82 CURVE SMOOTH",
"396 82 OFFCURVE",
"351 56 OFFCURVE",
"290 56 CURVE SMOOTH",
"242 56 OFFCURVE",
"184 81 OFFCURVE",
"184 142 CURVE SMOOTH",
"184 167 OFFCURVE",
"187 205 OFFCURVE",
"192 232 CURVE SMOOTH",
"200 272 OFFCURVE",
"215 278 OFFCURVE",
"342 289 CURVE SMOOTH",
"378 292 OFFCURVE",
"396 306 OFFCURVE",
"396 331 CURVE SMOOTH",
"396 359 OFFCURVE",
"378 376 OFFCURVE",
"342 376 CURVE SMOOTH",
"303 376 OFFCURVE",
"254 368 OFFCURVE",
"206 357 CURVE",
"206 536 LINE SMOOTH",
"206 553 OFFCURVE",
"211 556 OFFCURVE",
"225 556 CURVE SMOOTH",
"407 551 LINE SMOOTH",
"436 550 OFFCURVE",
"451 572 OFFCURVE",
"451 593 CURVE SMOOTH",
"451 613 OFFCURVE",
"444 635 OFFCURVE",
"407 636 CURVE SMOOTH",
"190 641 LINE SMOOTH",
"148 641 OFFCURVE",
"107 639 OFFCURVE",
"107 585 CURVE SMOOTH",
"107 552 OFFCURVE",
"118 536 OFFCURVE",
"118 501 CURVE",
"118 316 LINE SMOOTH",
"118 271 OFFCURVE",
"94 218 OFFCURVE",
"94 119 CURVE SMOOTH",
"94 39 OFFCURVE",
"174 -31 OFFCURVE",
"290 -31 CURVE SMOOTH"
);
}
);
width = 517;
}
);
unicode = 0045;
},
{
color = -1;
glyphname = F;
lastChange = "2016-02-12 12:36:05 +0000";
layers = (
{
background = {
paths = (
{
closed = 1;
nodes = (
"341 -31 OFFCURVE",
"413 -14 OFFCURVE",
"441 1 CURVE SMOOTH",
"460 11 OFFCURVE",
"470 24 OFFCURVE",
"470 44 CURVE SMOOTH",
"470 70 OFFCURVE",
"454 82 OFFCURVE",
"434 82 CURVE SMOOTH",
"396 82 OFFCURVE",
"351 56 OFFCURVE",
"290 56 CURVE SMOOTH",
"242 56 OFFCURVE",
"184 81 OFFCURVE",
"184 142 CURVE SMOOTH",
"184 167 OFFCURVE",
"187 205 OFFCURVE",
"192 232 CURVE SMOOTH",
"200 272 OFFCURVE",
"215 278 OFFCURVE",
"342 289 CURVE SMOOTH",
"378 292 OFFCURVE",
"396 306 OFFCURVE",
"396 331 CURVE SMOOTH",
"396 359 OFFCURVE",
"378 376 OFFCURVE",
"342 376 CURVE SMOOTH",
"303 376 OFFCURVE",
"254 368 OFFCURVE",
"206 357 CURVE",
"206 536 LINE SMOOTH",
"206 553 OFFCURVE",
"211 556 OFFCURVE",
"225 556 CURVE SMOOTH",
"407 551 LINE SMOOTH",
"436 550 OFFCURVE",
"451 572 OFFCURVE",
"451 593 CURVE SMOOTH",
"451 613 OFFCURVE",
"444 635 OFFCURVE",
"407 636 CURVE SMOOTH",
"190 641 LINE SMOOTH",
"148 641 OFFCURVE",
"107 639 OFFCURVE",
"107 585 CURVE SMOOTH",
"107 552 OFFCURVE",
"118 536 OFFCURVE",
"118 501 CURVE",
"118 316 LINE SMOOTH",
"118 271 OFFCURVE",
"94 218 OFFCURVE",
"94 119 CURVE SMOOTH",
"94 39 OFFCURVE",
"174 -31 OFFCURVE",
"290 -31 CURVE SMOOTH"
);
}
);
};
layerId = "D34FCF88-AF1D-4520-8FB0-498E26D42FBC";
paths = (
{
closed = 1;
nodes = (
"188 -21 OFFCURVE",
"192 1 OFFCURVE",
"194 46 CURVE SMOOTH",
"205 305 LINE",
"212 575 LINE",
"158 547 LINE",
"440 547 LINE SMOOTH",
"455 547 OFFCURVE",
"462 557 OFFCURVE",
"462 567 CURVE SMOOTH",
"462 598 OFFCURVE",
"431 636 OFFCURVE",
"285 636 CURVE SMOOTH",
"227 636 LINE",
"185 636 OFFCURVE",
"124 626 OFFCURVE",
"95 619 CURVE SMOOTH",
"87 617 OFFCURVE",
"80 612 OFFCURVE",
"80 595 CURVE SMOOTH",
"80 565 OFFCURVE",
"117 557 OFFCURVE",
"117 489 CURVE SMOOTH",
"117 316 LINE SMOOTH",
"117 197 OFFCURVE",
"92 81 OFFCURVE",
"92 44 CURVE SMOOTH",
"92 12 OFFCURVE",
"122 -21 OFFCURVE",
"160 -21 CURVE SMOOTH"
);
},
{
closed = 1;
nodes = (
"329 255 LINE SMOOTH",
"395 263 OFFCURVE",
"413 270 OFFCURVE",
"413 292 CURVE SMOOTH",
"413 314 OFFCURVE",
"395 347 OFFCURVE",
"368 344 CURVE SMOOTH",
"272 335 LINE SMOOTH",
"230 331 OFFCURVE",
"199 336 OFFCURVE",
"170 344 CURVE",
"155 234 LINE"
);
}
);
width = 481;
}
);
unicode = 0046;
},
{
color = -1;
glyphname = G;
lastChange = "2016-02-12 12:36:05 +0000";
layers = (
{
anchors = (
{
name = bottom;
position = "{404, 0}";
},
{
name = top;
position = "{381, 636}";
}
);
background = {
paths = (
{
closed = 1;
nodes = (
"698 -24 OFFCURVE",
"731 -3 OFFCURVE",
"731 23 CURVE SMOOTH",
"732 75 OFFCURVE",
"718 128 OFFCURVE",
"717 186 CURVE SMOOTH",
"717 300 LINE SMOOTH",
"718 428 OFFCURVE",
"760 556 OFFCURVE",
"759 595 CURVE SMOOTH",
"759 622 OFFCURVE",
"740 649 OFFCURVE",
"708 649 CURVE SMOOTH",
"672 649 OFFCURVE",
"661 627 OFFCURVE",
"657 582 CURVE SMOOTH",
"629 305 LINE",
"624 48 LINE SMOOTH",
"623 8 OFFCURVE",
"639 -24 OFFCURVE",
"675 -24 CURVE SMOOTH"
);
},
{
closed = 1;
nodes = (
"288 -24 OFFCURVE",
"306 -1 OFFCURVE",
"306 48 CURVE SMOOTH",
"306 76 OFFCURVE",
"301 138 OFFCURVE",
"301 169 CURVE SMOOTH",
"301 302 LINE",
"312 567 LINE SMOOTH",
"314 619 OFFCURVE",
"296 633 OFFCURVE",
"261 633 CURVE SMOOTH",
"235 633 OFFCURVE",
"207 616 OFFCURVE",
"207 584 CURVE SMOOTH",
"212 373 LINE SMOOTH",
"212 352 OFFCURVE",
"197 338 OFFCURVE",
"197 314 CURVE SMOOTH",
"197 293 OFFCURVE",
"215 281 OFFCURVE",
"214 262 CURVE",
"196 23 LINE SMOOTH",
"194 -7 OFFCURVE",
"228 -24 OFFCURVE",
"254 -24 CURVE SMOOTH"
);
},
{
closed = 1;
nodes = (
"567 252 OFFCURVE",
"616 261 OFFCURVE",
"653 277 CURVE",
"653 277 OFFCURVE",
"664 366 OFFCURVE",
"664 366 CURVE",
"621 346 OFFCURVE",
"565 337 OFFCURVE",
"493 337 CURVE SMOOTH",
"463 337 OFFCURVE",
"338 347 OFFCURVE",
"279 357 CURVE",
"279 357 OFFCURVE",
"267 271 OFFCURVE",
"267 271 CURVE",
"340 260 OFFCURVE",
"471 252 OFFCURVE",
"519 252 CURVE SMOOTH"
);
}
);
};
layerId = "D34FCF88-AF1D-4520-8FB0-498E26D42FBC";
paths = (
{
closed = 1;
nodes = (
"460 -31 OFFCURVE",
"533 -12 OFFCURVE",
"574 6 CURVE SMOOTH",
"616 23 OFFCURVE",
"637 41 OFFCURVE",
"628 100 CURVE SMOOTH",
"595 323 LINE",
"556 264 LINE",
"608 274 OFFCURVE",
"646 291 OFFCURVE",
"646 322 CURVE SMOOTH",
"646 355 OFFCURVE",
"623 366 OFFCURVE",
"603 366 CURVE SMOOTH",
"575 366 OFFCURVE",
"536 342 OFFCURVE",
"493 342 CURVE SMOOTH",
"463 342 OFFCURVE",
"452 346 OFFCURVE",
"428 346 CURVE SMOOTH",
"386 346 OFFCURVE",
"372 325 OFFCURVE",
"372 304 CURVE SMOOTH",
"372 273 OFFCURVE",
"411 258 OFFCURVE",
"475 258 CURVE SMOOTH",
"503 258 OFFCURVE",
"538 260 OFFCURVE",
"574 265 CURVE",
"509 304 LINE",
"539 115 LINE SMOOTH",
"543 87 OFFCURVE",
"518 80 OFFCURVE",
"486 71 CURVE SMOOTH",
"457 63 OFFCURVE",
"424 56 OFFCURVE",
"402 56 CURVE SMOOTH",
"272 56 OFFCURVE",
"166 147 OFFCURVE",
"166 298 CURVE SMOOTH",
"166 421 OFFCURVE",
"282 567 OFFCURVE",
"378 567 CURVE SMOOTH",
"461 567 OFFCURVE",
"481 542 OFFCURVE",
"513 542 CURVE SMOOTH",
"533 542 OFFCURVE",
"556 554 OFFCURVE",
"556 589 CURVE SMOOTH",
"556 641 OFFCURVE",
"457 655 OFFCURVE",
"381 655 CURVE SMOOTH",
"222 655 OFFCURVE",
"76 453 OFFCURVE",
"76 298 CURVE SMOOTH",
"76 113 OFFCURVE",
"223 -31 OFFCURVE",
"404 -31 CURVE SMOOTH"
);
}
);
width = 712;
}
);
unicode = 0047;
},
{
color = -1;
glyphname = H;
lastChange = "2016-02-12 12:36:05 +0000";
layers = (
{
anchors = (
{
name = bottom;
position = "{377, 0}";
},
{
name = top;
position = "{377, 450}";
}
);
background = {
paths = (
{
closed = 1;
nodes = (
"199 -21 OFFCURVE",
"215 11 OFFCURVE",
"214 51 CURVE SMOOTH",
"209 309 LINE",
"181 585 LINE SMOOTH",
"176 630 OFFCURVE",
"166 653 OFFCURVE",
"130 653 CURVE SMOOTH",
"98 653 OFFCURVE",
"79 625 OFFCURVE",
"79 598 CURVE SMOOTH",
"79 560 OFFCURVE",
"121 431 OFFCURVE",
"121 303 CURVE SMOOTH",
"121 189 LINE SMOOTH",
"121 132 OFFCURVE",
"105 79 OFFCURVE",
"107 27 CURVE SMOOTH",
"108 0 OFFCURVE",
"140 -21 OFFCURVE",
"163 -21 CURVE SMOOTH"
);
},
{
closed = 1;
nodes = (
"610 -21 OFFCURVE",
"644 -3 OFFCURVE",
"642 27 CURVE SMOOTH",
"625 265 LINE",
"623 284 OFFCURVE",
"641 296 OFFCURVE",
"641 317 CURVE SMOOTH",
"641 342 OFFCURVE",
"625 355 OFFCURVE",
"626 376 CURVE SMOOTH",
"631 587 LINE SMOOTH",
"632 619 OFFCURVE",
"603 636 OFFCURVE",
"577 636 CURVE SMOOTH",
"542 636 OFFCURVE",
"524 623 OFFCURVE",
"526 571 CURVE SMOOTH",
"537 305 LINE",
"537 173 LINE SMOOTH",
"537 142 OFFCURVE",
"532 80 OFFCURVE",
"532 51 CURVE SMOOTH",
"532 2 OFFCURVE",
"550 -21 OFFCURVE",
"584 -21 CURVE SMOOTH"
);
},
{
closed = 1;
nodes = (
"367 255 OFFCURVE",
"498 263 OFFCURVE",
"571 274 CURVE",
"571 274 OFFCURVE",
"559 361 OFFCURVE",
"559 361 CURVE",
"500 351 OFFCURVE",
"375 341 OFFCURVE",
"345 341 CURVE SMOOTH",
"273 341 OFFCURVE",
"217 349 OFFCURVE",
"174 369 CURVE",
"174 369 OFFCURVE",
"185 280 OFFCURVE",
"185 280 CURVE",
"222 264 OFFCURVE",
"271 255 OFFCURVE",
"319 255 CURVE SMOOTH"
);
}
);
};
layerId = "D34FCF88-AF1D-4520-8FB0-498E26D42FBC";
paths = (
{
closed = 1;
nodes = (
"607 -21 OFFCURVE",
"640 0 OFFCURVE",
"640 27 CURVE SMOOTH",
"641 79 OFFCURVE",
"627 132 OFFCURVE",
"626 189 CURVE SMOOTH",
"626 303 LINE SMOOTH",
"627 431 OFFCURVE",
"669 560 OFFCURVE",
"668 598 CURVE SMOOTH",
"668 625 OFFCURVE",
"649 653 OFFCURVE",
"617 653 CURVE SMOOTH",
"581 653 OFFCURVE",
"570 630 OFFCURVE",
"566 585 CURVE SMOOTH",
"538 309 LINE",
"533 51 LINE SMOOTH",
"532 11 OFFCURVE",
"548 -21 OFFCURVE",
"584 -21 CURVE SMOOTH"
);
},
{
closed = 1;
nodes = (
"197 -21 OFFCURVE",
"215 2 OFFCURVE",
"215 51 CURVE SMOOTH",
"215 80 OFFCURVE",
"210 142 OFFCURVE",
"210 173 CURVE SMOOTH",
"210 305 LINE",
"221 571 LINE SMOOTH",
"223 623 OFFCURVE",
"205 636 OFFCURVE",
"170 636 CURVE SMOOTH",
"143 636 OFFCURVE",
"116 619 OFFCURVE",
"116 587 CURVE SMOOTH",
"121 376 LINE SMOOTH",
"121 355 OFFCURVE",
"106 342 OFFCURVE",
"106 317 CURVE SMOOTH",
"106 296 OFFCURVE",
"124 284 OFFCURVE",
"122 265 CURVE",
"105 27 LINE SMOOTH",
"103 -3 OFFCURVE",
"137 -21 OFFCURVE",
"163 -21 CURVE SMOOTH"
);
},
{
closed = 1;
nodes = (
"476 255 OFFCURVE",
"525 264 OFFCURVE",
"562 280 CURVE",
"562 280 OFFCURVE",
"573 369 OFFCURVE",
"573 369 CURVE",
"529 349 OFFCURVE",
"474 341 OFFCURVE",
"402 341 CURVE SMOOTH",
"372 341 OFFCURVE",
"247 351 OFFCURVE",
"188 361 CURVE",
"188 361 OFFCURVE",
"176 274 OFFCURVE",
"176 274 CURVE",
"249 263 OFFCURVE",
"380 255 OFFCURVE",
"428 255 CURVE SMOOTH"
);
}
);
width = 741;
}
);
unicode = 0048;
},
{
color = -1;
glyphname = Hbar;
lastChange = "2016-02-12 12:36:05 +0000";
layers = (
{
background = {
paths = (
{
closed = 1;
nodes = (
"690 456 LINE SMOOTH",
"710 459 OFFCURVE",
"720 468 OFFCURVE",
"717 485 CURVE SMOOTH",
"712 512 OFFCURVE",
"693 535 OFFCURVE",
"674 532 CURVE SMOOTH",
"23 430 LINE SMOOTH",
"13 429 OFFCURVE",
"10 417 OFFCURVE",
"13 401 CURVE SMOOTH",
"17 385 OFFCURVE",
"34 354 OFFCURVE",
"53 356 CURVE"
);
}
);
};
layerId = "D34FCF88-AF1D-4520-8FB0-498E26D42FBC";
paths = (
{
closed = 1;
nodes = (
"375 187 OFFCURVE",
"487 204 OFFCURVE",
"560 220 CURVE",
"560 220 OFFCURVE",
"547 303 OFFCURVE",
"547 303 CURVE",
"481 285 OFFCURVE",
"374 272 OFFCURVE",
"307 272 CURVE SMOOTH",
"247 272 OFFCURVE",
"199 281 OFFCURVE",
"163 301 CURVE",
"163 301 OFFCURVE",
"174 207 OFFCURVE",
"174 207 CURVE",
"210 195 OFFCURVE",
"259 187 OFFCURVE",
"307 187 CURVE SMOOTH"
);
},
{
closed = 1;
nodes = (
"184 -21 OFFCURVE",
"202 2 OFFCURVE",
"202 51 CURVE SMOOTH",
"202 80 OFFCURVE",
"197 142 OFFCURVE",
"197 173 CURVE SMOOTH",
"197 305 LINE",
"208 571 LINE SMOOTH",
"210 623 OFFCURVE",
"192 636 OFFCURVE",
"157 636 CURVE SMOOTH",
"131 636 OFFCURVE",
"101 620 OFFCURVE",
"103 587 CURVE SMOOTH",
"114 376 LINE",
"92 27 LINE SMOOTH",
"90 -3 OFFCURVE",
"124 -21 OFFCURVE",
"150 -21 CURVE SMOOTH"
);
},
{
closed = 1;
nodes = (
"594 -21 OFFCURVE",
"627 0 OFFCURVE",
"627 27 CURVE SMOOTH",
"628 79 OFFCURVE",
"614 132 OFFCURVE",
"613 189 CURVE SMOOTH",
"613 303 LINE SMOOTH",
"614 431 OFFCURVE",
"656 560 OFFCURVE",
"655 598 CURVE SMOOTH",
"655 625 OFFCURVE",
"636 653 OFFCURVE",
"604 653 CURVE SMOOTH",
"568 653 OFFCURVE",
"557 630 OFFCURVE",
"553 585 CURVE SMOOTH",
"525 309 LINE",
"520 51 LINE SMOOTH",
"519 11 OFFCURVE",
"535 -21 OFFCURVE",
"571 -21 CURVE SMOOTH"
);
},
{
closed = 1;
nodes = (
"654 450 LINE SMOOTH",
"699 457 OFFCURVE",
"719 462 OFFCURVE",
"719 479 CURVE SMOOTH",
"719 498 OFFCURVE",
"705 531 OFFCURVE",
"674 531 CURVE SMOOTH",
"656 531 OFFCURVE",
"611 522 OFFCURVE",
"585 518 CURVE",
"55 436 LINE SMOOTH",
"29 432 OFFCURVE",
"12 424 OFFCURVE",
"12 400 CURVE SMOOTH",
"12 377 OFFCURVE",
"40 354 OFFCURVE",
"70 359 CURVE SMOOTH"
);
}
);
width = 720;
}
);
unicode = 0126;
},
{
color = -1;
glyphname = I;
lastChange = "2016-02-12 12:36:05 +0000";
layers = (
{
anchors = (
{
name = bottom;
position = "{170, 0}";
},
{
name = top;
position = "{170, 636}";
}
);
layerId = "D34FCF88-AF1D-4520-8FB0-498E26D42FBC";
paths = (
{
closed = 1;
nodes = (
"191 -21 OFFCURVE",
"217 -3 OFFCURVE",
"217 20 CURVE SMOOTH",
"217 72 OFFCURVE",
"205 132 OFFCURVE",
"205 189 CURVE SMOOTH",
"205 303 LINE SMOOTH",
"205 422 OFFCURVE",
"230 539 OFFCURVE",
"230 575 CURVE SMOOTH",
"230 607 OFFCURVE",
"201 640 OFFCURVE",
"162 640 CURVE SMOOTH",
"134 640 OFFCURVE",
"132 618 OFFCURVE",
"129 573 CURVE SMOOTH",
"118 309 LINE",
"110 44 LINE SMOOTH",
"109 4 OFFCURVE",
"134 -21 OFFCURVE",
"172 -21 CURVE SMOOTH"
);
}
);
width = 320;
}
);
unicode = 0049;
},
{
color = -1;
glyphname = Idieresis;
lastChange = "2016-02-12 12:36:05 +0000";
layers = (
{
anchors = (
{
name = _top;
position = "{170, 636}";
},
{
name = bottom;
position = "{170, 0}";
},
{
name = top;
position = "{170, 636}";
}
);
background = {
paths = (
{
closed = 1;
nodes = (
"191 -21 OFFCURVE",
"217 -3 OFFCURVE",
"217 20 CURVE SMOOTH",
"217 72 OFFCURVE",
"205 132 OFFCURVE",
"205 189 CURVE SMOOTH",
"205 303 LINE SMOOTH",
"205 422 OFFCURVE",
"230 539 OFFCURVE",
"230 575 CURVE SMOOTH",
"230 607 OFFCURVE",
"201 640 OFFCURVE",
"162 640 CURVE SMOOTH",
"134 640 OFFCURVE",
"132 618 OFFCURVE",
"129 573 CURVE SMOOTH",
"118 309 LINE",
"110 44 LINE SMOOTH",
"109 4 OFFCURVE",
"134 -21 OFFCURVE",
"172 -21 CURVE SMOOTH"
);
},
{
closed = 1;
nodes = (
"98 785 OFFCURVE",
"128 828 OFFCURVE",
"128 852 CURVE SMOOTH",
"128 897 OFFCURVE",
"77 933 OFFCURVE",
"46 933 CURVE SMOOTH",
"20 933 OFFCURVE",
"-10 890 OFFCURVE",
"-10 867 CURVE SMOOTH",
"-10 822 OFFCURVE",
"41 785 OFFCURVE",
"72 785 CURVE SMOOTH"
);
},
{
closed = 1;
nodes = (
"319 785 OFFCURVE",
"349 828 OFFCURVE",
"349 852 CURVE SMOOTH",
"349 897 OFFCURVE",
"298 933 OFFCURVE",
"267 933 CURVE SMOOTH",
"242 933 OFFCURVE",
"212 890 OFFCURVE",
"212 867 CURVE SMOOTH",
"212 822 OFFCURVE",
"263 785 OFFCURVE",
"294 785 CURVE SMOOTH"
);
}
);
};
layerId = "D34FCF88-AF1D-4520-8FB0-498E26D42FBC";
paths = (
{
closed = 1;
nodes = (
"191 -21 OFFCURVE",
"217 -3 OFFCURVE",
"217 20 CURVE SMOOTH",
"217 72 OFFCURVE",
"205 132 OFFCURVE",
"205 189 CURVE SMOOTH",
"205 303 LINE SMOOTH",
"205 422 OFFCURVE",
"230 539 OFFCURVE",
"230 575 CURVE SMOOTH",
"230 607 OFFCURVE",
"201 640 OFFCURVE",
"162 640 CURVE SMOOTH",
"134 640 OFFCURVE",
"132 618 OFFCURVE",
"129 573 CURVE SMOOTH",
"118 309 LINE",
"110 44 LINE SMOOTH",
"109 4 OFFCURVE",
"134 -21 OFFCURVE",
"172 -21 CURVE SMOOTH"
);
},
{
closed = 1;
nodes = (
"114 785 OFFCURVE",
"144 828 OFFCURVE",
"144 852 CURVE SMOOTH",
"144 897 OFFCURVE",
"93 933 OFFCURVE",
"62 933 CURVE SMOOTH",
"37 933 OFFCURVE",
"7 890 OFFCURVE",
"7 867 CURVE SMOOTH",
"7 822 OFFCURVE",
"58 785 OFFCURVE",
"89 785 CURVE SMOOTH"
);
},
{
closed = 1;
nodes = (
"302 785 OFFCURVE",
"332 828 OFFCURVE",
"332 852 CURVE SMOOTH",
"332 897 OFFCURVE",
"281 933 OFFCURVE",
"250 933 CURVE SMOOTH",
"225 933 OFFCURVE",
"195 890 OFFCURVE",
"195 867 CURVE SMOOTH",
"195 822 OFFCURVE",
"246 785 OFFCURVE",
"277 785 CURVE SMOOTH"
);
}
);
width = 320;
}
);
unicode = 00CF;
},
{
color = -1;
glyphname = J;
lastChange = "2016-02-12 12:36:05 +0000";
layers = (
{
anchors = (
{
name = bottom;
position = "{374, 0}";
},
{
name = top;
position = "{374, 450}";
}
);
background = {
paths = (
{
closed = 1;
nodes = (
"51 55 OFFCURVE",
"104 -31 OFFCURVE",
"242 -31 CURVE SMOOTH",
"363 -31 OFFCURVE",
"435 56 OFFCURVE",
"435 127 CURVE SMOOTH",
"435 164 OFFCURVE",
"414 176 OFFCURVE",
"395 176 CURVE SMOOTH",
"328 176 OFFCURVE",
"346 56 OFFCURVE",
"240 56 CURVE SMOOTH",
"168 56 OFFCURVE",
"140 112 OFFCURVE",
"140 189 CURVE SMOOTH",
"140 573 LINE SMOOTH",
"140 618 OFFCURVE",
"135 640 OFFCURVE",
"107 640 CURVE SMOOTH",
"69 640 OFFCURVE",
"39 607 OFFCURVE",
"39 575 CURVE SMOOTH",
"39 539 OFFCURVE",
"51 421 OFFCURVE",
"51 303 CURVE SMOOTH",
"51 190 LINE"
);
}
);
};
layerId = "D34FCF88-AF1D-4520-8FB0-498E26D42FBC";
paths = (
{
closed = 1;
nodes = (
"430 303 LINE SMOOTH",
"430 421 OFFCURVE",
"442 539 OFFCURVE",
"442 575 CURVE SMOOTH",
"442 607 OFFCURVE",
"413 640 OFFCURVE",
"374 640 CURVE SMOOTH",
"346 640 OFFCURVE",
"344 618 OFFCURVE",
"341 573 CURVE SMOOTH",
"341 189 LINE SMOOTH",
"341 112 OFFCURVE",
"313 56 OFFCURVE",
"241 56 CURVE SMOOTH",
"211 56 OFFCURVE",
"195 64 OFFCURVE",
"179 75 CURVE SMOOTH",
"135 107 OFFCURVE",
"135 176 OFFCURVE",
"86 176 CURVE SMOOTH",
"67 176 OFFCURVE",
"46 164 OFFCURVE",
"46 127 CURVE SMOOTH",
"46 92 OFFCURVE",
"66 52 OFFCURVE",
"102 21 CURVE SMOOTH",
"135 -9 OFFCURVE",
"181 -31 OFFCURVE",
"239 -31 CURVE SMOOTH",
"377 -31 OFFCURVE",
"430 55 OFFCURVE",
"430 190 CURVE"
);
}
);
width = 534;
}
);
unicode = 004A;
},
{
color = -1;
glyphname = K;
lastChange = "2016-02-12 12:36:05 +0000";
layers = (
{
anchors = (
{
name = bottom;
position = "{353, 0}";
},
{
name = top;
position = "{286, 450}";
}
);
background = {
paths = (
{
closed = 1;
nodes = (
"430 25 LINE SMOOTH",
"459 -8 OFFCURVE",
"479 -21 OFFCURVE",
"512 -21 CURVE SMOOTH",
"538 -21 OFFCURVE",
"555 -8 OFFCURVE",
"555 1 CURVE SMOOTH",
"555 12 OFFCURVE",
"546 30 OFFCURVE",
"525 54 CURVE SMOOTH",
"418 176 LINE SMOOTH",
"394 204 OFFCURVE",
"367 241 OFFCURVE",
"353 267 CURVE",
"335 232 LINE",
"442 295 OFFCURVE",
"499 351 OFFCURVE",
"499 448 CURVE SMOOTH",
"499 577 OFFCURVE",
"386 655 OFFCURVE",
"262 655 CURVE SMOOTH",
"204 655 OFFCURVE",
"158 647 OFFCURVE",
"107 624 CURVE",
"107 309 LINE",
"104 44 LINE SMOOTH",
"104 4 OFFCURVE",
"127 -21 OFFCURVE",
"164 -21 CURVE SMOOTH",
"181 -21 OFFCURVE",
"207 -3 OFFCURVE",
"207 20 CURVE SMOOTH",
"207 72 OFFCURVE",
"195 132 OFFCURVE",
"195 189 CURVE SMOOTH",
"195 303 LINE",
"198 575 LINE",
"169 550 LINE",
"200 561 OFFCURVE",
"231 567 OFFCURVE",
"262 567 CURVE SMOOTH",
"362 567 OFFCURVE",
"409 522 OFFCURVE",
"409 448 CURVE SMOOTH",
"409 326 OFFCURVE",
"255 317 OFFCURVE",
"255 261 CURVE SMOOTH",
"255 239 OFFCURVE",
"303 177 OFFCURVE",
"344 128 CURVE SMOOTH"
);
},
{
closed = 1;
nodes = (
"670 -43 OFFCURVE",
"691 -28 OFFCURVE",
"691 -11 CURVE SMOOTH",
"691 4 OFFCURVE",
"674 29 OFFCURVE",
"617 82 CURVE SMOOTH",
"429 270 LINE SMOOTH",
"404 295 OFFCURVE",
"368 309 OFFCURVE",
"337 321 CURVE",
"338 281 LINE",
"462 417 LINE SMOOTH",
"505 463 OFFCURVE",
"540 523 OFFCURVE",
"540 576 CURVE SMOOTH",
"540 603 OFFCURVE",
"529 618 OFFCURVE",
"510 618 CURVE SMOOTH",
"487 618 OFFCURVE",
"477 604 OFFCURVE",
"459 578 CURVE SMOOTH",
"428 532 OFFCURVE",
"421 498 OFFCURVE",
"365 438 CURVE SMOOTH",
"263 330 LINE SMOOTH",
"250 315 OFFCURVE",
"236 302 OFFCURVE",
"236 285 CURVE SMOOTH",
"236 270 OFFCURVE",
"248 261 OFFCURVE",
"268 254 CURVE SMOOTH",
"316 238 LINE SMOOTH",
"347 227 OFFCURVE",
"377 195 OFFCURVE",
"414 157 CURVE SMOOTH",
"532 39 LINE SMOOTH",
"566 3 OFFCURVE",
"584 -43 OFFCURVE",
"640 -43 CURVE SMOOTH"
);
}
);
};
layerId = "D34FCF88-AF1D-4520-8FB0-498E26D42FBC";
paths = (
{
closed = 1;
nodes = (
"648 -21 OFFCURVE",
"669 -6 OFFCURVE",
"669 11 CURVE SMOOTH",
"669 27 OFFCURVE",
"650 49 OFFCURVE",
"595 104 CURVE SMOOTH",
"429 270 LINE SMOOTH",
"404 295 OFFCURVE",
"368 309 OFFCURVE",
"337 321 CURVE",
"338 281 LINE",
"482 439 LINE SMOOTH",
"524 486 OFFCURVE",
"560 545 OFFCURVE",
"560 598 CURVE SMOOTH",
"560 625 OFFCURVE",
"549 640 OFFCURVE",
"530 640 CURVE SMOOTH",
"507 640 OFFCURVE",
"497 626 OFFCURVE",
"479 601 CURVE SMOOTH",
"448 554 OFFCURVE",
"442 521 OFFCURVE",
"385 460 CURVE SMOOTH",
"263 330 LINE SMOOTH",
"251 316 OFFCURVE",
"236 302 OFFCURVE",
"236 285 CURVE SMOOTH",
"236 270 OFFCURVE",
"248 261 OFFCURVE",
"268 254 CURVE SMOOTH",
"316 238 LINE SMOOTH",
"347 227 OFFCURVE",
"376 195 OFFCURVE",
"414 157 CURVE SMOOTH",
"510 61 LINE SMOOTH",
"545 25 OFFCURVE",
"562 -21 OFFCURVE",
"618 -21 CURVE SMOOTH"
);
},
{
closed = 1;
nodes = (
"122 640 OFFCURVE",
"95 623 OFFCURVE",
"95 599 CURVE SMOOTH",
"95 547 OFFCURVE",
"107 488 OFFCURVE",
"107 430 CURVE SMOOTH",
"107 316 LINE SMOOTH",
"107 197 OFFCURVE",
"98 81 OFFCURVE",
"98 44 CURVE SMOOTH",
"98 12 OFFCURVE",
"128 -21 OFFCURVE",
"167 -21 CURVE SMOOTH",
"195 -21 OFFCURVE",
"201 2 OFFCURVE",
"200 46 CURVE SMOOTH",
"195 311 LINE",
"202 575 LINE SMOOTH",
"204 614 OFFCURVE",
"178 640 OFFCURVE",
"140 640 CURVE SMOOTH"
);
}
);
width = 682;
}
);
unicode = 004B;
},
{
color = -1;
glyphname = L;
lastChange = "2016-02-12 12:36:05 +0000";
layers = (
{
anchors = (
{
name = bottom;
position = "{294, 0}";
},
{
name = caron;
position = "{340, 550}";
},
{
name = top;
position = "{176, 636}";
}
);
layerId = "D34FCF88-AF1D-4520-8FB0-498E26D42FBC";
paths = (
{
closed = 1;
nodes = (
"121 184 OFFCURVE",
"108 119 OFFCURVE",
"108 67 CURVE SMOOTH",
"108 13 OFFCURVE",
"183 -12 OFFCURVE",
"209 -12 CURVE SMOOTH",
"239 -12 OFFCURVE",
"286 0 OFFCURVE",
"319 0 CURVE SMOOTH",
"410 0 LINE SMOOTH",
"433 0 OFFCURVE",
"452 18 OFFCURVE",
"452 30 CURVE SMOOTH",
"452 46 OFFCURVE",
"436 85 OFFCURVE",
"405 85 CURVE SMOOTH",
"305 85 LINE",
"181 74 LINE",
"211 20 LINE",
"211 303 LINE SMOOTH",
"211 422 OFFCURVE",
"225 539 OFFCURVE",
"225 575 CURVE SMOOTH",
"225 607 OFFCURVE",
"202 640 OFFCURVE",
"179 640 CURVE SMOOTH",
"132 640 OFFCURVE",
"124 575 OFFCURVE",
"124 540 CURVE SMOOTH",
"124 309 LINE"
);
}
);
width = 481;
}
);
unicode = 004C;
},
{
color = -1;
glyphname = Lslash;
lastChange = "2016-02-12 12:36:05 +0000";
layers = (
{
anchors = (
{
name = bottom;
position = "{294, 0}";
},
{
name = caron;
position = "{340, 450}";
},
{
name = top;
position = "{176, 636}";
}
);
background = {
paths = (
{
closed = 1;
nodes = (
"68 156 OFFCURVE",
"89 164 OFFCURVE",
"120 188 CURVE SMOOTH",
"172 228 LINE",
"204 252 LINE",
"274 309 LINE SMOOTH",
"307 336 OFFCURVE",
"341 361 OFFCURVE",
"341 385 CURVE SMOOTH",
"341 399 OFFCURVE",
"329 432 OFFCURVE",
"311 432 CURVE SMOOTH",
"299 432 OFFCURVE",
"289 427 OFFCURVE",
"269 409 CURVE SMOOTH",
"191 337 LINE",
"98 267 LINE SMOOTH",
"58 237 OFFCURVE",
"28 216 OFFCURVE",
"28 200 CURVE SMOOTH",
"28 178 OFFCURVE",
"49 156 OFFCURVE",
"60 156 CURVE"
);
}
);
};
layerId = "D34FCF88-AF1D-4520-8FB0-498E26D42FBC";
paths = (
{
closed = 1;
nodes = (
"372 355 LINE SMOOTH",
"384 363 OFFCURVE",
"390 371 OFFCURVE",
"390 379 CURVE SMOOTH",
"390 397 OFFCURVE",
"378 432 OFFCURVE",
"360 432 CURVE SMOOTH",
"351 432 OFFCURVE",
"339 425 OFFCURVE",
"328 418 CURVE SMOOTH",
"61 240 LINE SMOOTH",
"40 226 OFFCURVE",
"28 214 OFFCURVE",
"28 201 CURVE SMOOTH",
"28 185 OFFCURVE",
"47 156 OFFCURVE",
"62 156 CURVE SMOOTH",
"71 156 OFFCURVE",
"79 160 OFFCURVE",
"90 167 CURVE SMOOTH"
);
},
{
closed = 1;
nodes = (
"121 184 OFFCURVE",
"108 119 OFFCURVE",
"108 67 CURVE SMOOTH",
"108 13 OFFCURVE",
"183 -12 OFFCURVE",
"209 -12 CURVE SMOOTH",
"239 -12 OFFCURVE",
"286 0 OFFCURVE",
"319 0 CURVE SMOOTH",
"410 0 LINE SMOOTH",
"433 0 OFFCURVE",
"452 18 OFFCURVE",
"452 30 CURVE SMOOTH",
"452 46 OFFCURVE",
"436 85 OFFCURVE",
"405 85 CURVE SMOOTH",
"305 85 LINE",
"181 74 LINE",
"211 20 LINE",
"211 303 LINE SMOOTH",
"211 422 OFFCURVE",
"225 539 OFFCURVE",
"225 575 CURVE SMOOTH",
"225 607 OFFCURVE",
"202 640 OFFCURVE",
"179 640 CURVE SMOOTH",
"132 640 OFFCURVE",
"124 575 OFFCURVE",
"124 540 CURVE SMOOTH",
"124 309 LINE"
);
}
);
width = 481;
}
);
unicode = 0141;
},
{
color = -1;
glyphname = M;
lastChange = "2016-02-12 12:36:05 +0000";
layers = (
{
anchors = (
{
name = bottom;
position = "{486, 0}";
},
{
name = top;
position = "{486, 450}";
}
);
background = {
paths = (
{
closed = 1;
nodes = (
"604 -21 OFFCURVE",
"637 0 OFFCURVE",
"637 27 CURVE SMOOTH",
"638 79 OFFCURVE",
"624 132 OFFCURVE",
"623 189 CURVE SMOOTH",
"623 303 LINE SMOOTH",
"624 431 OFFCURVE",
"666 560 OFFCURVE",
"665 598 CURVE SMOOTH",
"665 625 OFFCURVE",
"646 653 OFFCURVE",
"614 653 CURVE SMOOTH",
"578 653 OFFCURVE",
"567 630 OFFCURVE",
"563 585 CURVE SMOOTH",
"535 309 LINE",
"530 51 LINE SMOOTH",
"529 11 OFFCURVE",
"545 -21 OFFCURVE",
"581 -21 CURVE SMOOTH"
);
},
{
closed = 1;
nodes = (
"194 -21 OFFCURVE",
"212 2 OFFCURVE",
"212 51 CURVE SMOOTH",
"212 80 OFFCURVE",
"207 142 OFFCURVE",
"207 173 CURVE SMOOTH",
"207 305 LINE",
"218 571 LINE SMOOTH",
"220 623 OFFCURVE",
"202 636 OFFCURVE",
"167 636 CURVE SMOOTH",
"140 636 OFFCURVE",
"113 619 OFFCURVE",
"113 587 CURVE SMOOTH",
"118 376 LINE SMOOTH",
"118 355 OFFCURVE",
"103 342 OFFCURVE",
"103 317 CURVE SMOOTH",
"103 296 OFFCURVE",
"121 284 OFFCURVE",
"119 265 CURVE",
"102 27 LINE SMOOTH",
"100 -3 OFFCURVE",
"134 -21 OFFCURVE",
"160 -21 CURVE SMOOTH"
);
},
{
closed = 1;
nodes = (
"473 255 OFFCURVE",
"522 264 OFFCURVE",
"559 280 CURVE",
"559 280 OFFCURVE",
"570 369 OFFCURVE",
"570 369 CURVE",
"526 349 OFFCURVE",
"471 341 OFFCURVE",
"399 341 CURVE SMOOTH",
"369 341 OFFCURVE",
"244 351 OFFCURVE",
"185 361 CURVE",
"185 361 OFFCURVE",
"173 274 OFFCURVE",
"173 274 CURVE",
"246 263 OFFCURVE",
"377 255 OFFCURVE",
"425 255 CURVE SMOOTH"
);
}
);
};
guideLines = (
{
position = "{817, 359}";
}
);
layerId = "D34FCF88-AF1D-4520-8FB0-498E26D42FBC";
paths = (
{
closed = 1;
nodes = (
"69 13 OFFCURVE",
"81 -21 OFFCURVE",
"121 -21 CURVE SMOOTH",
"151 -21 OFFCURVE",
"162 6 OFFCURVE",
"165 25 CURVE SMOOTH",
"201 218 LINE",
"231 512 LINE",
"179 519 LINE",
"364 217 LINE SMOOTH",
"393 170 OFFCURVE",
"420 142 OFFCURVE",
"456 142 CURVE SMOOTH",
"487 142 OFFCURVE",
"518 181 OFFCURVE",
"544 227 CURVE SMOOTH",
"654 416 LINE",
"633 539 LINE",
"636 446 OFFCURVE",
"650 328 OFFCURVE",
"677 229 CURVE SMOOTH",
"707 126 OFFCURVE",
"736 59 OFFCURVE",
"758 18 CURVE SMOOTH",
"779 -18 OFFCURVE",
"797 -25 OFFCURVE",
"826 -25 CURVE SMOOTH",
"847 -25 OFFCURVE",
"874 -18 OFFCURVE",
"874 8 CURVE SMOOTH",
"874 30 OFFCURVE",
"829 100 OFFCURVE",
"794 169 CURVE SMOOTH",
"765 226 OFFCURVE",
"747 280 OFFCURVE",
"741 319 CURVE SMOOTH",
"701 613 LINE SMOOTH",
"698 640 OFFCURVE",
"681 656 OFFCURVE",
"659 656 CURVE SMOOTH",
"633 656 OFFCURVE",
"626 640 OFFCURVE",
"618 597 CURVE SMOOTH",
"610 554 OFFCURVE",
"597 490 OFFCURVE",
"569 432 CURVE SMOOTH",
"533 357 OFFCURVE",
"491 284 OFFCURVE",
"432 218 CURVE",
"482 225 LINE",
"440 272 OFFCURVE",
"407 324 OFFCURVE",
"370 387 CURVE",
"242 585 LINE SMOOTH",
"218 622 OFFCURVE",
"199 637 OFFCURVE",
"177 637 CURVE SMOOTH",
"161 637 OFFCURVE",
"145 629 OFFCURVE",
"137 620 CURVE",
"126 296 LINE",
"75 49 LINE"
);
}
);
width = 902;
}
);
unicode = 004D;
},
{
color = -1;
glyphname = N;
lastChange = "2016-02-12 12:36:05 +0000";
layers = (
{
anchors = (
{
name = bottom;
position = "{398, 0}";
},
{
name = top;
position = "{398, 636}";
}
);
background = {
paths = (
{
closed = 1;
nodes = (
"607 -21 OFFCURVE",
"640 0 OFFCURVE",
"640 27 CURVE SMOOTH",
"641 79 OFFCURVE",
"627 132 OFFCURVE",
"626 189 CURVE SMOOTH",
"626 303 LINE SMOOTH",
"627 431 OFFCURVE",
"669 560 OFFCURVE",
"668 598 CURVE SMOOTH",
"668 625 OFFCURVE",
"649 653 OFFCURVE",
"617 653 CURVE SMOOTH",
"581 653 OFFCURVE",
"570 630 OFFCURVE",
"566 585 CURVE SMOOTH",
"538 309 LINE",
"533 51 LINE SMOOTH",
"532 11 OFFCURVE",
"548 -21 OFFCURVE",
"584 -21 CURVE SMOOTH"
);
},
{
closed = 1;
nodes = (
"197 -21 OFFCURVE",
"215 2 OFFCURVE",
"215 51 CURVE SMOOTH",
"215 80 OFFCURVE",
"210 142 OFFCURVE",
"210 173 CURVE SMOOTH",
"210 305 LINE",
"221 571 LINE SMOOTH",
"223 623 OFFCURVE",
"205 636 OFFCURVE",
"170 636 CURVE SMOOTH",
"143 636 OFFCURVE",
"116 619 OFFCURVE",
"116 587 CURVE SMOOTH",
"121 376 LINE SMOOTH",
"121 355 OFFCURVE",
"106 342 OFFCURVE",
"106 317 CURVE SMOOTH",
"106 296 OFFCURVE",
"124 284 OFFCURVE",
"122 265 CURVE",
"105 27 LINE SMOOTH",
"103 -3 OFFCURVE",
"137 -21 OFFCURVE",
"163 -21 CURVE SMOOTH"
);
},
{
closed = 1;
nodes = (
"476 255 OFFCURVE",
"525 264 OFFCURVE",
"562 280 CURVE",
"562 280 OFFCURVE",
"573 369 OFFCURVE",
"573 369 CURVE",
"529 349 OFFCURVE",
"474 341 OFFCURVE",
"402 341 CURVE SMOOTH",
"372 341 OFFCURVE",
"247 351 OFFCURVE",
"188 361 CURVE",
"188 361 OFFCURVE",
"176 274 OFFCURVE",
"176 274 CURVE",
"249 263 OFFCURVE",
"380 255 OFFCURVE",
"428 255 CURVE SMOOTH"
);
}
);
};
layerId = "D34FCF88-AF1D-4520-8FB0-498E26D42FBC";
paths = (
{
closed = 1;
nodes = (
"667 -21 OFFCURVE",
"689 -4 OFFCURVE",
"689 22 CURVE SMOOTH",
"689 52 OFFCURVE",
"676 220 OFFCURVE",
"676 303 CURVE SMOOTH",
"676 422 OFFCURVE",
"701 539 OFFCURVE",
"701 575 CURVE SMOOTH",
"701 607 OFFCURVE",
"671 640 OFFCURVE",
"632 640 CURVE SMOOTH",
"606 640 OFFCURVE",
"601 618 OFFCURVE",
"599 573 CURVE SMOOTH",
"588 309 LINE",
"583 87 LINE",
"632 100 LINE",
"547 205 OFFCURVE",
"302 510 OFFCURVE",
"221 608 CURVE SMOOTH",
"209 623 OFFCURVE",
"193 636 OFFCURVE",
"167 636 CURVE SMOOTH",
"145 636 OFFCURVE",
"114 622 OFFCURVE",
"115 587 CURVE SMOOTH",
"124 314 LINE",
"105 23 LINE SMOOTH",
"104 -2 OFFCURVE",
"137 -21 OFFCURVE",
"159 -21 CURVE SMOOTH",
"194 -21 OFFCURVE",
"215 -4 OFFCURVE",
"215 54 CURVE SMOOTH",
"215 92 OFFCURVE",
"210 169 OFFCURVE",
"210 255 CURVE SMOOTH",
"211 353 OFFCURVE",
"215 459 OFFCURVE",
"219 538 CURVE",
"188 504 LINE",
"338 334 OFFCURVE",
"513 105 OFFCURVE",
"585 6 CURVE SMOOTH",
"599 -14 OFFCURVE",
"616 -21 OFFCURVE",
"640 -21 CURVE"
);
}
);
width = 795;
}
);
unicode = 004E;
},
{
color = -1;
glyphname = Eng;
lastChange = "2016-02-12 12:36:05 +0000";
layers = (
{
anchors = (
{
name = bottom;
position = "{398, 0}";
},
{
name = top;
position = "{398, 636}";
}
);
background = {
paths = (
{
closed = 1;
nodes = (
"687 71 LINE",
"597 -43 LINE",
"597 -121 OFFCURVE",
"569 -176 OFFCURVE",
"497 -176 CURVE SMOOTH",
"468 -176 OFFCURVE",
"451 -168 OFFCURVE",
"436 -157 CURVE SMOOTH",
"391 -125 OFFCURVE",
"391 -56 OFFCURVE",
"343 -56 CURVE SMOOTH",
"324 -56 OFFCURVE",
"303 -69 OFFCURVE",
"303 -105 CURVE SMOOTH",
"303 -140 OFFCURVE",
"323 -180 OFFCURVE",
"358 -211 CURVE SMOOTH",
"391 -241 OFFCURVE",
"438 -263 OFFCURVE",
"495 -263 CURVE SMOOTH",
"633 -263 OFFCURVE",
"687 -177 OFFCURVE",
"687 -42 CURVE"
);
},
{
closed = 1;
nodes = (
"667 -21 OFFCURVE",
"689 -4 OFFCURVE",
"689 22 CURVE SMOOTH",
"689 52 OFFCURVE",
"676 220 OFFCURVE",
"676 303 CURVE SMOOTH",
"676 422 OFFCURVE",
"701 539 OFFCURVE",
"701 575 CURVE SMOOTH",
"701 607 OFFCURVE",
"671 640 OFFCURVE",
"632 640 CURVE SMOOTH",
"606 640 OFFCURVE",
"601 618 OFFCURVE",
"599 573 CURVE SMOOTH",
"588 309 LINE",
"583 87 LINE",
"632 100 LINE",
"547 205 OFFCURVE",
"302 510 OFFCURVE",
"221 608 CURVE SMOOTH",
"209 623 OFFCURVE",
"193 636 OFFCURVE",
"167 636 CURVE SMOOTH",
"145 636 OFFCURVE",
"114 622 OFFCURVE",
"115 587 CURVE SMOOTH",
"124 314 LINE",
"105 23 LINE SMOOTH",
"104 -2 OFFCURVE",
"137 -21 OFFCURVE",
"159 -21 CURVE SMOOTH",
"194 -21 OFFCURVE",
"215 -4 OFFCURVE",
"215 54 CURVE SMOOTH",
"215 92 OFFCURVE",
"210 169 OFFCURVE",
"210 255 CURVE SMOOTH",
"211 353 OFFCURVE",
"215 459 OFFCURVE",
"219 538 CURVE",
"188 504 LINE",
"338 334 OFFCURVE",
"513 105 OFFCURVE",
"585 6 CURVE SMOOTH",
"599 -14 OFFCURVE",
"616 -21 OFFCURVE",
"640 -21 CURVE"
);
}
);
};
layerId = "D34FCF88-AF1D-4520-8FB0-498E26D42FBC";
paths = (
{
closed = 1;
nodes = (
"633 -263 OFFCURVE",
"687 -177 OFFCURVE",
"687 -42 CURVE",
"687 22 LINE SMOOTH",
"687 85 OFFCURVE",
"676 220 OFFCURVE",
"676 303 CURVE SMOOTH",
"676 422 OFFCURVE",
"701 539 OFFCURVE",
"701 575 CURVE SMOOTH",
"701 607 OFFCURVE",
"671 640 OFFCURVE",
"632 640 CURVE SMOOTH",
"606 640 OFFCURVE",
"601 618 OFFCURVE",
"599 573 CURVE SMOOTH",
"588 309 LINE",
"583 87 LINE",
"632 100 LINE",
"547 205 OFFCURVE",
"302 510 OFFCURVE",
"221 608 CURVE SMOOTH",
"209 623 OFFCURVE",
"193 636 OFFCURVE",
"167 636 CURVE SMOOTH",
"145 636 OFFCURVE",
"114 622 OFFCURVE",
"115 587 CURVE SMOOTH",
"124 314 LINE",
"105 23 LINE SMOOTH",
"104 -2 OFFCURVE",
"137 -21 OFFCURVE",
"159 -21 CURVE SMOOTH",
"194 -21 OFFCURVE",
"215 -4 OFFCURVE",
"215 54 CURVE SMOOTH",
"215 92 OFFCURVE",
"210 169 OFFCURVE",
"210 255 CURVE SMOOTH",
"211 353 OFFCURVE",
"215 459 OFFCURVE",
"219 538 CURVE",
"188 504 LINE",
"338 334 OFFCURVE",
"517 97 OFFCURVE",
"585 6 CURVE SMOOTH",
"594 -7 OFFCURVE",
"597 -27 OFFCURVE",
"597 -43 CURVE SMOOTH",
"597 -121 OFFCURVE",
"569 -176 OFFCURVE",
"497 -176 CURVE SMOOTH",
"468 -176 OFFCURVE",
"451 -168 OFFCURVE",
"436 -157 CURVE SMOOTH",
"391 -125 OFFCURVE",
"391 -56 OFFCURVE",
"343 -56 CURVE SMOOTH",
"324 -56 OFFCURVE",
"303 -69 OFFCURVE",
"303 -105 CURVE SMOOTH",
"303 -140 OFFCURVE",
"323 -180 OFFCURVE",
"358 -211 CURVE SMOOTH",
"392 -241 OFFCURVE",
"438 -263 OFFCURVE",
"495 -263 CURVE SMOOTH"
);
}
);
width = 795;
}
);
unicode = 014A;
},
{
color = -1;
glyphname = O;
lastChange = "2016-02-12 12:36:05 +0000";
layers = (
{
anchors = (
{
name = bottom;
position = "{405, 0}";
},
{
name = top;
position = "{405, 636}";
}
);
layerId = "D34FCF88-AF1D-4520-8FB0-498E26D42FBC";
paths = (
{
closed = 1;
nodes = (
"607 -31 OFFCURVE",
"712 181 OFFCURVE",
"712 326 CURVE SMOOTH",
"712 533 OFFCURVE",
"585 655 OFFCURVE",
"382 655 CURVE SMOOTH",
"224 655 OFFCURVE",
"76 453 OFFCURVE",
"76 298 CURVE SMOOTH",
"76 91 OFFCURVE",
"209 -31 OFFCURVE",
"405 -31 CURVE"
);
},
{
closed = 1;
nodes = (
"265 56 OFFCURVE",
"165 136 OFFCURVE",
"165 298 CURVE SMOOTH",
"165 421 OFFCURVE",
"286 567 OFFCURVE",
"382 567 CURVE SMOOTH",
"534 567 OFFCURVE",
"622 477 OFFCURVE",
"622 326 CURVE SMOOTH",
"622 225 OFFCURVE",
"546 56 OFFCURVE",
"405 56 CURVE SMOOTH"
);
}
);
width = 790;
}
);
unicode = 004F;
},
{
color = -1;
glyphname = Oslash;
lastChange = "2016-02-12 12:36:05 +0000";
layers = (
{
background = {
paths = (
{
closed = 1;
nodes = (
"722 724 LINE SMOOTH",
"733 741 OFFCURVE",
"734 754 OFFCURVE",
"718 765 CURVE SMOOTH",
"697 781 OFFCURVE",
"667 781 OFFCURVE",
"655 764 CURVE SMOOTH",
"84 -78 LINE SMOOTH",
"78 -86 OFFCURVE",
"85 -96 OFFCURVE",
"98 -105 CURVE SMOOTH",
"111 -114 OFFCURVE",
"148 -122 OFFCURVE",
"159 -106 CURVE"
);
}
);
};
layerId = "D34FCF88-AF1D-4520-8FB0-498E26D42FBC";
paths = (
{
closed = 1;
nodes = (
"188 -66 OFFCURVE",
"198 -54 OFFCURVE",
"210 -35 CURVE SMOOTH",
"250 28 LINE",
"606 553 LINE SMOOTH",
"628 585 OFFCURVE",
"660 624 OFFCURVE",
"660 643 CURVE SMOOTH",
"660 662 OFFCURVE",
"636 690 OFFCURVE",
"617 690 CURVE SMOOTH",
"600 690 OFFCURVE",
"589 674 OFFCURVE",
"574 649 CURVE SMOOTH",
"538 591 LINE",
"188 75 LINE",
"169 50 LINE SMOOTH",
"150 24 OFFCURVE",
"125 -3 OFFCURVE",
"125 -20 CURVE SMOOTH",
"125 -41 OFFCURVE",
"156 -66 OFFCURVE",
"172 -66 CURVE SMOOTH"
);
},
{
closed = 1;
nodes = (
"607 -31 OFFCURVE",
"712 181 OFFCURVE",
"712 326 CURVE SMOOTH",
"712 533 OFFCURVE",
"585 655 OFFCURVE",
"382 655 CURVE SMOOTH",
"224 655 OFFCURVE",
"76 453 OFFCURVE",
"76 298 CURVE SMOOTH",
"76 91 OFFCURVE",
"209 -31 OFFCURVE",
"405 -31 CURVE"
);
},
{
closed = 1;
nodes = (
"265 56 OFFCURVE",
"165 136 OFFCURVE",
"165 298 CURVE SMOOTH",
"165 421 OFFCURVE",
"286 567 OFFCURVE",
"382 567 CURVE SMOOTH",
"534 567 OFFCURVE",
"622 477 OFFCURVE",
"622 326 CURVE SMOOTH",
"622 225 OFFCURVE",
"546 56 OFFCURVE",
"405 56 CURVE SMOOTH"
);
}
);
width = 790;
}
);
leftMetricsKey = O;
rightMetricsKey = O;
unicode = 00D8;
},
{
color = -1;
glyphname = OE;
lastChange = "2016-02-12 12:36:05 +0000";
layers = (
{
background = {
paths = (
{
closed = 1;
nodes = (
"602 -31 OFFCURVE",
"707 181 OFFCURVE",
"707 326 CURVE SMOOTH",
"707 533 OFFCURVE",
"580 655 OFFCURVE",
"377 655 CURVE SMOOTH",
"219 655 OFFCURVE",
"71 453 OFFCURVE",
"71 298 CURVE SMOOTH",
"71 91 OFFCURVE",
"204 -31 OFFCURVE",
"400 -31 CURVE"
);
},
{
closed = 1;
nodes = (
"260 56 OFFCURVE",
"160 136 OFFCURVE",
"160 298 CURVE SMOOTH",
"160 421 OFFCURVE",
"281 567 OFFCURVE",
"377 567 CURVE SMOOTH",
"529 567 OFFCURVE",
"617 477 OFFCURVE",
"617 326 CURVE SMOOTH",
"617 225 OFFCURVE",
"541 56 OFFCURVE",
"400 56 CURVE SMOOTH"
);
}
);
};
layerId = "D34FCF88-AF1D-4520-8FB0-498E26D42FBC";
paths = (
{
closed = 1;
nodes = (
"200 657 OFFCURVE",
"76 501 OFFCURVE",
"76 294 CURVE SMOOTH",
"76 104 OFFCURVE",
"192 -31 OFFCURVE",
"395 -31 CURVE SMOOTH",
"488 -31 OFFCURVE",
"546 -1 OFFCURVE",
"616 44 CURVE",
"572 154 LINE",
"613 301 LINE",
"629 599 LINE",
"570 636 OFFCURVE",
"492 657 OFFCURVE",
"394 657 CURVE"
);
},
{
closed = 1;
nodes = (
"528 316 LINE SMOOTH",
"528 241 OFFCURVE",
"519 145 OFFCURVE",
"520 52 CURVE",
"567 121 LINE",
"506 69 OFFCURVE",
"457 56 OFFCURVE",
"395 56 CURVE SMOOTH",
"231 56 OFFCURVE",
"166 178 OFFCURVE",
"166 294 CURVE SMOOTH",
"166 475 OFFCURVE",
"271 570 OFFCURVE",
"394 570 CURVE SMOOTH",
"462 570 OFFCURVE",
"524 554 OFFCURVE",
"607 508 CURVE",
"528 608 LINE"
);
},
{
closed = 1;
nodes = (
"750 -31 OFFCURVE",
"822 -14 OFFCURVE",
"851 1 CURVE SMOOTH",
"869 11 OFFCURVE",
"879 24 OFFCURVE",
"879 44 CURVE SMOOTH",
"879 70 OFFCURVE",
"863 82 OFFCURVE",
"843 82 CURVE SMOOTH",
"805 82 OFFCURVE",
"760 56 OFFCURVE",
"699 56 CURVE SMOOTH",
"652 56 OFFCURVE",
"593 81 OFFCURVE",
"593 142 CURVE SMOOTH",
"593 167 OFFCURVE",
"596 205 OFFCURVE",
"602 232 CURVE SMOOTH",
"610 272 OFFCURVE",
"624 278 OFFCURVE",
"751 289 CURVE SMOOTH",
"788 292 OFFCURVE",
"805 306 OFFCURVE",
"805 331 CURVE SMOOTH",
"805 359 OFFCURVE",
"788 376 OFFCURVE",
"751 376 CURVE SMOOTH",
"712 376 OFFCURVE",
"665 368 OFFCURVE",
"616 357 CURVE",
"626 531 LINE SMOOTH",
"627 547 OFFCURVE",
"632 551 OFFCURVE",
"645 551 CURVE SMOOTH",
"816 551 LINE SMOOTH",
"845 551 OFFCURVE",
"861 572 OFFCURVE",
"861 593 CURVE SMOOTH",
"861 613 OFFCURVE",
"853 636 OFFCURVE",
"816 636 CURVE SMOOTH",
"489 636 LINE",
"538 585 LINE",
"528 501 LINE",
"528 316 LINE SMOOTH",
"528 271 OFFCURVE",
"503 218 OFFCURVE",
"503 119 CURVE SMOOTH",
"503 39 OFFCURVE",
"583 -31 OFFCURVE",
"699 -31 CURVE SMOOTH"
);
}
);
width = 926;
}
);
leftMetricsKey = O;
rightMetricsKey = E;
unicode = 0152;
},
{
color = -1;
glyphname = P;
lastChange = "2016-02-12 12:36:05 +0000";
layers = (
{
anchors = (
{
name = bottom;
position = "{328, 0}";
},
{
name = top;
position = "{297, 450}";
}
);
background = {
paths = (
{
closed = 1;
nodes = (
"443 25 LINE SMOOTH",
"472 -8 OFFCURVE",
"492 -21 OFFCURVE",
"525 -21 CURVE SMOOTH",
"551 -21 OFFCURVE",
"568 -8 OFFCURVE",
"568 1 CURVE SMOOTH",
"568 12 OFFCURVE",
"559 30 OFFCURVE",
"538 54 CURVE SMOOTH",
"431 176 LINE SMOOTH",
"407 204 OFFCURVE",
"380 241 OFFCURVE",
"366 267 CURVE",
"348 232 LINE",
"455 295 OFFCURVE",
"512 351 OFFCURVE",
"512 448 CURVE SMOOTH",
"512 577 OFFCURVE",
"399 655 OFFCURVE",
"275 655 CURVE SMOOTH",
"217 655 OFFCURVE",
"171 647 OFFCURVE",
"120 624 CURVE",
"120 309 LINE",
"117 44 LINE SMOOTH",
"117 4 OFFCURVE",
"140 -21 OFFCURVE",
"177 -21 CURVE SMOOTH",
"194 -21 OFFCURVE",
"220 -3 OFFCURVE",
"220 20 CURVE SMOOTH",
"220 72 OFFCURVE",
"208 132 OFFCURVE",
"208 189 CURVE SMOOTH",
"208 303 LINE",
"211 575 LINE",
"182 550 LINE",
"213 561 OFFCURVE",
"244 567 OFFCURVE",
"275 567 CURVE SMOOTH",
"375 567 OFFCURVE",
"422 522 OFFCURVE",
"422 448 CURVE SMOOTH",
"422 326 OFFCURVE",
"268 317 OFFCURVE",
"268 261 CURVE SMOOTH",
"268 239 OFFCURVE",
"316 177 OFFCURVE",
"357 128 CURVE SMOOTH"
);
}
);
};
layerId = "D34FCF88-AF1D-4520-8FB0-498E26D42FBC";
paths = (
{
closed = 1;
nodes = (
"268 219 OFFCURVE",
"314 194 OFFCURVE",
"337 194 CURVE SMOOTH",
"390 194 OFFCURVE",
"530 275 OFFCURVE",
"530 426 CURVE SMOOTH",
"530 570 OFFCURVE",
"423 655 OFFCURVE",
"281 655 CURVE SMOOTH",
"205 655 OFFCURVE",
"93 632 OFFCURVE",
"93 592 CURVE SMOOTH",
"93 556 OFFCURVE",
"120 547 OFFCURVE",
"120 481 CURVE",
"120 309 LINE",
"120 199 OFFCURVE",
"108 88 OFFCURVE",
"108 44 CURVE SMOOTH",
"108 12 OFFCURVE",
"141 -21 OFFCURVE",
"182 -21 CURVE SMOOTH",
"202 -21 OFFCURVE",
"217 -3 OFFCURVE",
"217 20 CURVE SMOOTH",
"217 72 OFFCURVE",
"208 132 OFFCURVE",
"208 189 CURVE SMOOTH",
"208 303 LINE",
"211 575 LINE",
"182 550 LINE",
"215 561 OFFCURVE",
"247 567 OFFCURVE",
"281 567 CURVE SMOOTH",
"382 567 OFFCURVE",
"440 514 OFFCURVE",
"440 426 CURVE SMOOTH",
"440 289 OFFCURVE",
"268 247 OFFCURVE",
"268 233 CURVE"
);
}
);
width = 583;
}
);
unicode = 0050;
},
{
color = -1;
glyphname = Thorn;
lastChange = "2016-02-12 12:36:05 +0000";
layers = (
{
background = {
paths = (
{
closed = 1;
nodes = (
"268 219 OFFCURVE",
"314 194 OFFCURVE",
"337 194 CURVE SMOOTH",
"390 194 OFFCURVE",
"530 275 OFFCURVE",
"530 426 CURVE SMOOTH",
"530 570 OFFCURVE",
"423 655 OFFCURVE",
"281 655 CURVE SMOOTH",
"205 655 OFFCURVE",
"93 632 OFFCURVE",
"93 592 CURVE SMOOTH",
"93 556 OFFCURVE",
"120 547 OFFCURVE",
"120 481 CURVE",
"120 309 LINE",
"120 199 OFFCURVE",
"108 88 OFFCURVE",
"108 44 CURVE SMOOTH",
"108 12 OFFCURVE",
"141 -21 OFFCURVE",
"182 -21 CURVE SMOOTH",
"202 -21 OFFCURVE",
"217 -3 OFFCURVE",
"217 20 CURVE SMOOTH",
"217 72 OFFCURVE",
"208 132 OFFCURVE",
"208 189 CURVE SMOOTH",
"208 303 LINE",
"211 575 LINE",
"182 550 LINE",
"215 561 OFFCURVE",
"247 567 OFFCURVE",
"281 567 CURVE SMOOTH",
"382 567 OFFCURVE",
"440 514 OFFCURVE",
"440 426 CURVE SMOOTH",
"440 289 OFFCURVE",
"268 247 OFFCURVE",
"268 233 CURVE"
);
}
);
};
layerId = "D34FCF88-AF1D-4520-8FB0-498E26D42FBC";
paths = (
{
closed = 1;
nodes = (
"239 144 OFFCURVE",
"288 107 OFFCURVE",
"312 107 CURVE SMOOTH",
"393 107 OFFCURVE",
"559 189 OFFCURVE",
"559 321 CURVE SMOOTH",
"559 440 OFFCURVE",
"466 511 OFFCURVE",
"340 511 CURVE SMOOTH",
"243 511 OFFCURVE",
"97 488 OFFCURVE",
"97 448 CURVE SMOOTH",
"97 422 OFFCURVE",
"143 392 OFFCURVE",
"186 406 CURVE SMOOTH",
"237 423 OFFCURVE",
"288 424 OFFCURVE",
"340 424 CURVE SMOOTH",
"423 424 OFFCURVE",
"469 385 OFFCURVE",
"469 321 CURVE SMOOTH",
"469 247 OFFCURVE",
"378 204 OFFCURVE",
"312 192 CURVE SMOOTH",
"274 185 OFFCURVE",
"239 180 OFFCURVE",
"239 164 CURVE"
);
},
{
closed = 1;
nodes = (
"191 -21 OFFCURVE",
"217 -3 OFFCURVE",
"217 20 CURVE SMOOTH",
"217 72 OFFCURVE",
"205 132 OFFCURVE",
"205 189 CURVE SMOOTH",
"205 303 LINE SMOOTH",
"205 422 OFFCURVE",
"230 539 OFFCURVE",
"230 575 CURVE SMOOTH",
"230 607 OFFCURVE",
"201 640 OFFCURVE",
"162 640 CURVE SMOOTH",
"134 640 OFFCURVE",
"131 618 OFFCURVE",
"129 573 CURVE SMOOTH",
"118 309 LINE",
"110 44 LINE SMOOTH",
"109 4 OFFCURVE",
"134 -21 OFFCURVE",
"172 -21 CURVE SMOOTH"
);
}
);
width = 615;
}
);
unicode = 00DE;
},
{
color = -1;
glyphname = Q;
lastChange = "2016-02-12 12:36:05 +0000";
layers = (
{
background = {
paths = (
{
closed = 1;
nodes = (
"607 -31 OFFCURVE",
"712 181 OFFCURVE",
"712 326 CURVE SMOOTH",
"712 533 OFFCURVE",
"585 655 OFFCURVE",
"382 655 CURVE SMOOTH",
"224 655 OFFCURVE",
"76 453 OFFCURVE",
"76 298 CURVE SMOOTH",
"76 91 OFFCURVE",
"209 -31 OFFCURVE",
"405 -31 CURVE"
);
},
{
closed = 1;
nodes = (
"265 56 OFFCURVE",
"165 136 OFFCURVE",
"165 298 CURVE SMOOTH",
"165 421 OFFCURVE",
"286 567 OFFCURVE",
"382 567 CURVE SMOOTH",
"534 567 OFFCURVE",
"622 477 OFFCURVE",
"622 326 CURVE SMOOTH",
"622 225 OFFCURVE",
"546 56 OFFCURVE",
"405 56 CURVE SMOOTH"
);
}
);
};
layerId = "D34FCF88-AF1D-4520-8FB0-498E26D42FBC";
paths = (
{
closed = 1;
nodes = (
"690 -173 OFFCURVE",
"756 -135 OFFCURVE",
"756 -95 CURVE SMOOTH",
"756 -76 OFFCURVE",
"737 -52 OFFCURVE",
"716 -52 CURVE SMOOTH",
"692 -52 OFFCURVE",
"673 -87 OFFCURVE",
"633 -87 CURVE SMOOTH",
"593 -87 OFFCURVE",
"543 -10 OFFCURVE",
"480 33 CURVE",
"497 -15 LINE",
"625 31 OFFCURVE",
"712 186 OFFCURVE",
"712 326 CURVE SMOOTH",
"712 533 OFFCURVE",
"585 655 OFFCURVE",
"382 655 CURVE SMOOTH",
"224 655 OFFCURVE",
"76 453 OFFCURVE",
"76 298 CURVE SMOOTH",
"76 135 OFFCURVE",
"160 39 OFFCURVE",
"211 39 CURVE SMOOTH",
"233 39 OFFCURVE",
"252 54 OFFCURVE",
"252 81 CURVE SMOOTH",
"252 116 OFFCURVE",
"165 142 OFFCURVE",
"165 298 CURVE SMOOTH",
"165 421 OFFCURVE",
"286 567 OFFCURVE",
"382 567 CURVE SMOOTH",
"534 567 OFFCURVE",
"622 477 OFFCURVE",
"622 326 CURVE SMOOTH",
"622 225 OFFCURVE",
"546 56 OFFCURVE",
"405 56 CURVE SMOOTH",
"384 56 OFFCURVE",
"377 63 OFFCURVE",
"352 63 CURVE SMOOTH",
"330 63 OFFCURVE",
"313 49 OFFCURVE",
"313 25 CURVE SMOOTH",
"313 -39 OFFCURVE",
"391 -14 OFFCURVE",
"440 -52 CURVE SMOOTH",
"494 -98 OFFCURVE",
"537 -173 OFFCURVE",
"633 -173 CURVE SMOOTH"
);
}
);
width = 790;
}
);
unicode = 0051;
},
{
color = -1;
glyphname = R;
lastChange = "2016-02-12 12:36:05 +0000";
layers = (
{
anchors = (
{
name = bottom;
position = "{323, 0}";
},
{
name = top;
position = "{270, 636}";
}
);
background = {
paths = (
{
closed = 1;
nodes = (
"638 -85 OFFCURVE",
"645 -55 OFFCURVE",
"631 -38 CURVE SMOOTH",
"596 0 OFFCURVE",
"549 38 OFFCURVE",
"509 81 CURVE SMOOTH",
"435 165 LINE SMOOTH",
"354 255 OFFCURVE",
"297 358 OFFCURVE",
"272 386 CURVE SMOOTH",
"251 410 OFFCURVE",
"207 416 OFFCURVE",
"177 390 CURVE SMOOTH",
"156 371 OFFCURVE",
"171 353 OFFCURVE",
"198 319 CURVE SMOOTH",
"364 113 LINE",
"536 -91 LINE SMOOTH",
"560 -122 OFFCURVE",
"596 -125 OFFCURVE",
"625 -98 CURVE SMOOTH"
);
}
);
};
layerId = "D34FCF88-AF1D-4520-8FB0-498E26D42FBC";
paths = (
{
closed = 1;
nodes = (
"438 25 LINE SMOOTH",
"467 -8 OFFCURVE",
"487 -21 OFFCURVE",
"520 -21 CURVE SMOOTH",
"546 -21 OFFCURVE",
"563 -8 OFFCURVE",
"563 1 CURVE SMOOTH",
"563 12 OFFCURVE",
"554 30 OFFCURVE",
"533 54 CURVE SMOOTH",
"426 176 LINE SMOOTH",
"402 204 OFFCURVE",
"375 241 OFFCURVE",
"361 267 CURVE",
"343 232 LINE",
"450 295 OFFCURVE",
"507 351 OFFCURVE",
"507 448 CURVE SMOOTH",
"507 577 OFFCURVE",
"394 655 OFFCURVE",
"270 655 CURVE SMOOTH",
"212 655 OFFCURVE",
"166 647 OFFCURVE",
"115 624 CURVE",
"115 309 LINE",
"112 44 LINE SMOOTH",
"112 4 OFFCURVE",
"135 -21 OFFCURVE",
"172 -21 CURVE SMOOTH",
"189 -21 OFFCURVE",
"215 -3 OFFCURVE",
"215 20 CURVE SMOOTH",
"215 72 OFFCURVE",
"203 132 OFFCURVE",
"203 189 CURVE SMOOTH",
"203 303 LINE",
"206 575 LINE",
"177 550 LINE",
"208 561 OFFCURVE",
"239 567 OFFCURVE",
"270 567 CURVE SMOOTH",
"370 567 OFFCURVE",
"417 522 OFFCURVE",
"417 448 CURVE SMOOTH",
"417 326 OFFCURVE",
"263 317 OFFCURVE",
"263 261 CURVE SMOOTH",
"263 239 OFFCURVE",
"311 177 OFFCURVE",
"352 128 CURVE SMOOTH"
);
}
);
width = 607;
}
);
unicode = 0052;
},
{
color = -1;
glyphname = S;
lastChange = "2016-02-12 12:36:05 +0000";
layers = (
{
anchors = (
{
name = bottom;
position = "{291, 0}";
},
{
name = top;
position = "{314, 636}";
}
);
background = {
paths = (
{
closed = 1;
nodes = (
"502 -31 OFFCURVE",
"607 181 OFFCURVE",
"607 326 CURVE SMOOTH",
"607 533 OFFCURVE",
"480 655 OFFCURVE",
"278 655 CURVE SMOOTH",
"119 655 OFFCURVE",
"-29 453 OFFCURVE",
"-29 298 CURVE SMOOTH",
"-29 91 OFFCURVE",
"104 -31 OFFCURVE",
"301 -31 CURVE"
);
},
{
closed = 1;
nodes = (
"160 56 OFFCURVE",
"61 136 OFFCURVE",
"61 298 CURVE SMOOTH",
"61 421 OFFCURVE",
"181 567 OFFCURVE",
"278 567 CURVE SMOOTH",
"429 567 OFFCURVE",
"518 477 OFFCURVE",
"518 326 CURVE SMOOTH",
"518 225 OFFCURVE",
"441 56 OFFCURVE",
"301 56 CURVE SMOOTH"
);
}
);
};
guideLines = (
{
angle = 90;
position = "{71, 309}";
},
{
angle = 90;
position = "{522, 309}";
}
);
layerId = "D34FCF88-AF1D-4520-8FB0-498E26D42FBC";
paths = (
{
closed = 1;
nodes = (
"427 -36 OFFCURVE",
"514 34 OFFCURVE",
"514 149 CURVE SMOOTH",
"514 371 OFFCURVE",
"189 343 OFFCURVE",
"189 473 CURVE SMOOTH",
"189 539 OFFCURVE",
"248 564 OFFCURVE",
"314 564 CURVE SMOOTH",
"378 564 OFFCURVE",
"420 550 OFFCURVE",
"449 528 CURVE",
"449 528 OFFCURVE",
"403 611 OFFCURVE",
"397 611 CURVE",
"417 451 LINE SMOOTH",
"421 415 OFFCURVE",
"433 405 OFFCURVE",
"456 405 CURVE SMOOTH",
"473 405 OFFCURVE",
"480 415 OFFCURVE",
"482 430 CURVE SMOOTH",
"505 612 LINE SMOOTH",
"510 650 OFFCURVE",
"489 669 OFFCURVE",
"459 669 CURVE SMOOTH",
"437 669 OFFCURVE",
"420 655 OFFCURVE",
"407 624 CURVE",
"407 624 OFFCURVE",
"474 625 OFFCURVE",
"474 625 CURVE",
"431 639 OFFCURVE",
"376 651 OFFCURVE",
"314 651 CURVE SMOOTH",
"201 651 OFFCURVE",
"99 591 OFFCURVE",
"99 473 CURVE SMOOTH",
"99 260 OFFCURVE",
"425 295 OFFCURVE",
"425 149 CURVE SMOOTH",
"425 69 OFFCURVE",
"344 51 OFFCURVE",
"291 51 CURVE SMOOTH",
"232 51 OFFCURVE",
"169 65 OFFCURVE",
"119 119 CURVE",
"119 119 OFFCURVE",
"157 15 OFFCURVE",
"157 15 CURVE",
"157 208 LINE SMOOTH",
"157 226 OFFCURVE",
"140 237 OFFCURVE",
"123 237 CURVE SMOOTH",
"96 237 OFFCURVE",
"63 202 OFFCURVE",
"63 142 CURVE SMOOTH",
"63 96 OFFCURVE",
"72 46 OFFCURVE",
"111 13 CURVE SMOOTH",
"148 -17 OFFCURVE",
"221 -36 OFFCURVE",
"291 -36 CURVE SMOOTH"
);
}
);
width = 591;
}
);
unicode = 0053;
},
{
color = -1;
glyphname = T;
lastChange = "2016-02-12 12:36:05 +0000";
layers = (
{
anchors = (
{
name = bottom;
position = "{336, 0}";
},
{
name = top;
position = "{336, 636}";
}
);
background = {
paths = (
{
closed = 1;
nodes = (
"327 640 CURVE SMOOTH",
"300 640 OFFCURVE",
"298 618 OFFCURVE",
"294 573 CURVE SMOOTH",
"283 309 LINE",
"275 44 LINE SMOOTH",
"274 4 OFFCURVE",
"300 -21 OFFCURVE",
"337 -21 CURVE SMOOTH",
"356 -21 OFFCURVE",
"383 -3 OFFCURVE",
"383 20 CURVE SMOOTH",
"383 72 OFFCURVE",
"371 132 OFFCURVE",
"371 189 CURVE SMOOTH",
"371 303 LINE SMOOTH",
"371 422 OFFCURVE",
"396 539 OFFCURVE",
"396 575 CURVE SMOOTH",
"396 607 OFFCURVE",
"366 640 OFFCURVE"
);
}
);
};
layerId = "D34FCF88-AF1D-4520-8FB0-498E26D42FBC";
paths = (
{
closed = 1;
nodes = (
"283 573 LINE",
"283 309 LINE",
"275 44 LINE SMOOTH",
"274 4 OFFCURVE",
"300 -21 OFFCURVE",
"336 -21 CURVE SMOOTH",
"355 -21 OFFCURVE",
"383 -3 OFFCURVE",
"383 20 CURVE SMOOTH",
"383 72 OFFCURVE",
"371 132 OFFCURVE",
"371 189 CURVE SMOOTH",
"371 303 LINE SMOOTH",
"371 422 OFFCURVE",
"378 539 OFFCURVE",
"378 575 CURVE"
);
},
{
closed = 1;
nodes = (
"60 624 LINE SMOOTH",
"23 624 OFFCURVE",
"15 612 OFFCURVE",
"15 592 CURVE SMOOTH",
"15 571 OFFCURVE",
"52 539 OFFCURVE",
"81 539 CURVE SMOOTH",
"359 539 LINE",
"542 551 LINE SMOOTH",
"571 553 OFFCURVE",
"586 560 OFFCURVE",
"586 582 CURVE SMOOTH",
"586 602 OFFCURVE",
"568 638 OFFCURVE",
"531 636 CURVE SMOOTH",
"325 624 LINE"
);
}
);
width = 612;
}
);
unicode = 0054;
},
{
color = -1;
glyphname = Tbar;
lastChange = "2016-02-12 12:36:05 +0000";
layers = (
{
anchors = (
{
name = bottom;
position = "{336, 0}";
},
{
name = top;
position = "{336, 450}";
}
);
layerId = "D34FCF88-AF1D-4520-8FB0-498E26D42FBC";
paths = (
{
closed = 1;
nodes = (
"283 573 LINE",
"283 309 LINE",
"275 44 LINE SMOOTH",
"274 4 OFFCURVE",
"300 -21 OFFCURVE",
"336 -21 CURVE SMOOTH",
"355 -21 OFFCURVE",
"383 -3 OFFCURVE",
"383 20 CURVE SMOOTH",
"383 72 OFFCURVE",
"371 132 OFFCURVE",
"371 189 CURVE SMOOTH",
"371 303 LINE SMOOTH",
"371 422 OFFCURVE",
"378 539 OFFCURVE",
"378 575 CURVE"
);
},
{
closed = 1;
nodes = (
"60 624 LINE SMOOTH",
"23 624 OFFCURVE",
"15 612 OFFCURVE",
"15 592 CURVE SMOOTH",
"15 571 OFFCURVE",
"52 539 OFFCURVE",
"81 539 CURVE SMOOTH",
"359 539 LINE",
"542 551 LINE SMOOTH",
"571 553 OFFCURVE",
"586 560 OFFCURVE",
"586 582 CURVE SMOOTH",
"586 602 OFFCURVE",
"568 638 OFFCURVE",
"531 636 CURVE SMOOTH",
"325 624 LINE"
);
},
{
closed = 1;
nodes = (
"483 271 LINE SMOOTH",
"503 271 OFFCURVE",
"514 278 OFFCURVE",
"514 296 CURVE SMOOTH",
"514 323 OFFCURVE",
"499 348 OFFCURVE",
"479 348 CURVE SMOOTH",
"149 348 LINE SMOOTH",
"139 348 OFFCURVE",
"135 337 OFFCURVE",
"135 322 CURVE SMOOTH",
"135 305 OFFCURVE",
"148 271 OFFCURVE",
"168 271 CURVE"
);
}
);
width = 612;
}
);
unicode = 0166;
},
{
color = -1;
glyphname = U;
lastChange = "2016-02-12 12:36:05 +0000";
layers = (
{
anchors = (
{
name = bottom;
position = "{284, 0}";
},
{
name = top;
position = "{405, 636}";
}
);
background = {
paths = (
{
closed = 1;
nodes = (
"660 -21 OFFCURVE",
"682 -4 OFFCURVE",
"682 22 CURVE SMOOTH",
"682 52 OFFCURVE",
"669 220 OFFCURVE",
"669 303 CURVE SMOOTH",
"669 422 OFFCURVE",
"695 539 OFFCURVE",
"695 575 CURVE SMOOTH",
"695 607 OFFCURVE",
"665 640 OFFCURVE",
"626 640 CURVE SMOOTH",
"599 640 OFFCURVE",
"595 618 OFFCURVE",
"593 573 CURVE SMOOTH",
"582 309 LINE",
"576 87 LINE",
"626 100 LINE",
"541 205 OFFCURVE",
"296 511 OFFCURVE",
"215 608 CURVE SMOOTH",
"202 623 OFFCURVE",
"187 636 OFFCURVE",
"160 636 CURVE SMOOTH",
"138 636 OFFCURVE",
"107 622 OFFCURVE",
"108 587 CURVE SMOOTH",
"117 314 LINE",
"98 23 LINE SMOOTH",
"97 -2 OFFCURVE",
"131 -21 OFFCURVE",
"153 -21 CURVE SMOOTH",
"188 -21 OFFCURVE",
"209 -4 OFFCURVE",
"209 54 CURVE SMOOTH",
"209 92 OFFCURVE",
"204 169 OFFCURVE",
"204 255 CURVE SMOOTH",
"204 353 OFFCURVE",
"209 459 OFFCURVE",
"212 538 CURVE",
"181 504 LINE",
"332 334 OFFCURVE",
"507 105 OFFCURVE",
"578 6 CURVE SMOOTH",
"593 -14 OFFCURVE",
"609 -21 OFFCURVE",
"634 -21 CURVE"
);
}
);
};
layerId = "D34FCF88-AF1D-4520-8FB0-498E26D42FBC";
paths = (
{
closed = 1;
nodes = (
"588 44 LINE SMOOTH",
"592 14 OFFCURVE",
"617 -21 OFFCURVE",
"661 -21 CURVE SMOOTH",
"681 -21 OFFCURVE",
"696 -6 OFFCURVE",
"696 14 CURVE SMOOTH",
"696 62 OFFCURVE",
"649 220 OFFCURVE",
"649 303 CURVE SMOOTH",
"649 415 OFFCURVE",
"695 541 OFFCURVE",
"695 575 CURVE SMOOTH",
"695 607 OFFCURVE",
"665 640 OFFCURVE",
"637 640 CURVE SMOOTH",
"609 640 OFFCURVE",
"604 617 OFFCURVE",
"593 573 CURVE SMOOTH",
"495 204 OFFCURVE",
"395 56 OFFCURVE",
"284 56 CURVE SMOOTH",
"230 56 OFFCURVE",
"178 96 OFFCURVE",
"178 270 CURVE SMOOTH",
"178 395 OFFCURVE",
"226 536 OFFCURVE",
"226 575 CURVE SMOOTH",
"226 607 OFFCURVE",
"196 640 OFFCURVE",
"168 640 CURVE SMOOTH",
"134 640 OFFCURVE",
"86 472 OFFCURVE",
"86 273 CURVE SMOOTH",
"86 31 OFFCURVE",
"182 -31 OFFCURVE",
"284 -31 CURVE SMOOTH",
"460 -31 OFFCURVE",
"572 220 OFFCURVE",
"599 357 CURVE",
"559 303 LINE"
);
}
);
width = 784;
}
);
unicode = 0055;
},
{
color = -1;
glyphname = V;
lastChange = "2016-02-12 12:36:05 +0000";
layers = (
{
anchors = (
{
name = bottom;
position = "{297, 0}";
},
{
name = top;
position = "{320, 450}";
}
);
layerId = "D34FCF88-AF1D-4520-8FB0-498E26D42FBC";
paths = (
{
closed = 1;
nodes = (
"327 -31 OFFCURVE",
"359 -8 OFFCURVE",
"387 34 CURVE SMOOTH",
"482 180 LINE SMOOTH",
"569 313 OFFCURVE",
"632 444 OFFCURVE",
"641 577 CURVE SMOOTH",
"643 606 OFFCURVE",
"634 636 OFFCURVE",
"596 636 CURVE SMOOTH",
"572 636 OFFCURVE",
"556 618 OFFCURVE",
"552 587 CURVE SMOOTH",
"532 429 OFFCURVE",
"456 297 OFFCURVE",
"413 230 CURVE SMOOTH",
"344 123 LINE SMOOTH",
"337 113 OFFCURVE",
"328 104 OFFCURVE",
"322 104 CURVE SMOOTH",
"315 104 OFFCURVE",
"309 107 OFFCURVE",
"305 117 CURVE SMOOTH",
"281 180 LINE SMOOTH",
"266 220 OFFCURVE",
"245 267 OFFCURVE",
"231 307 CURVE SMOOTH",
"175 467 LINE SMOOTH",
"157 518 OFFCURVE",
"151 572 OFFCURVE",
"142 598 CURVE SMOOTH",
"129 634 OFFCURVE",
"94 636 OFFCURVE",
"77 636 CURVE SMOOTH",
"55 636 OFFCURVE",
"32 626 OFFCURVE",
"32 585 CURVE SMOOTH",
"32 567 OFFCURVE",
"52 521 OFFCURVE",
"72 465 CURVE SMOOTH",
"100 386 OFFCURVE",
"135 291 OFFCURVE",
"159 231 CURVE SMOOTH",
"241 28 LINE SMOOTH",
"251 2 OFFCURVE",
"280 -31 OFFCURVE",
"308 -31 CURVE SMOOTH"
);
}
);
width = 657;
}
);
unicode = 0056;
},
{
color = -1;
glyphname = W;
lastChange = "2016-02-12 12:36:05 +0000";
layers = (
{
anchors = (
{
name = bottom;
position = "{543, 0}";
},
{
name = top;
position = "{543, 638}";
}
);
background = {
paths = (
{
closed = 1;
nodes = (
"416 -31 OFFCURVE",
"432 -20 OFFCURVE",
"450 13 CURVE SMOOTH",
"578 317 LINE SMOOTH",
"601 371 OFFCURVE",
"629 407 OFFCURVE",
"655 452 CURVE",
"608 450 LINE",
"687 312 OFFCURVE",
"765 121 OFFCURVE",
"821 -19 CURVE",
"832 -25 OFFCURVE",
"845 -31 OFFCURVE",
"866 -31 CURVE SMOOTH",
"895 -31 OFFCURVE",
"918 -9 OFFCURVE",
"941 30 CURVE SMOOTH",
"1048 211 OFFCURVE",
"1103 444 OFFCURVE",
"1103 557 CURVE SMOOTH",
"1103 608 OFFCURVE",
"1078 636 OFFCURVE",
"1046 636 CURVE SMOOTH",
"1029 636 OFFCURVE",
"1014 633 OFFCURVE",
"999 623 CURVE",
"1011 406 OFFCURVE",
"947 213 OFFCURVE",
"875 88 CURVE",
"899 55 LINE",
"760 353 LINE SMOOTH",
"734 407 OFFCURVE",
"692 511 OFFCURVE",
"684 589 CURVE SMOOTH",
"681 605 OFFCURVE",
"678 636 OFFCURVE",
"644 636 CURVE SMOOTH",
"623 636 OFFCURVE",
"598 625 OFFCURVE",
"583 602 CURVE",
"580 578 OFFCURVE",
"581 549 OFFCURVE",
"583 524 CURVE",
"519 378 OFFCURVE",
"453 241 OFFCURVE",
"389 116 CURVE",
"436 131 LINE",
"383 249 OFFCURVE",
"331 363 OFFCURVE",
"272 479 CURVE SMOOTH",
"238 547 OFFCURVE",
"184 636 OFFCURVE",
"158 636 CURVE SMOOTH",
"137 636 OFFCURVE",
"94 604 OFFCURVE",
"94 573 CURVE SMOOTH",
"94 553 OFFCURVE",
"149 503 OFFCURVE",
"173 467 CURVE SMOOTH",
"223 388 OFFCURVE",
"260 306 OFFCURVE",
"294 227 CURVE SMOOTH",
"327 148 OFFCURVE",
"348 60 OFFCURVE",
"359 -23 CURVE",
"369 -29 OFFCURVE",
"378 -31 OFFCURVE",
"389 -31 CURVE"
);
}
);
};
guideLines = (
{
position = "{481, 97}";
}
);
layerId = "D34FCF88-AF1D-4520-8FB0-498E26D42FBC";
paths = (
{
closed = 1;
nodes = (
"333 -31 OFFCURVE",
"350 -20 OFFCURVE",
"364 13 CURVE SMOOTH",
"492 317 LINE SMOOTH",
"515 371 OFFCURVE",
"536 408 OFFCURVE",
"569 452 CURVE",
"522 450 LINE",
"601 312 OFFCURVE",
"679 121 OFFCURVE",
"734 -19 CURVE",
"745 -25 OFFCURVE",
"759 -31 OFFCURVE",
"780 -31 CURVE SMOOTH",
"809 -31 OFFCURVE",
"832 -9 OFFCURVE",
"855 30 CURVE SMOOTH",
"962 211 OFFCURVE",
"1016 444 OFFCURVE",
"1016 557 CURVE SMOOTH",
"1016 608 OFFCURVE",
"992 636 OFFCURVE",
"960 636 CURVE SMOOTH",
"942 636 OFFCURVE",
"928 633 OFFCURVE",
"912 623 CURVE",
"925 406 OFFCURVE",
"861 213 OFFCURVE",
"789 88 CURVE",
"813 55 LINE",
"674 353 LINE SMOOTH",
"649 407 OFFCURVE",
"607 511 OFFCURVE",
"597 589 CURVE SMOOTH",
"595 605 OFFCURVE",
"592 636 OFFCURVE",
"557 636 CURVE SMOOTH",
"536 636 OFFCURVE",
"512 625 OFFCURVE",
"497 602 CURVE",
"493 578 OFFCURVE",
"494 549 OFFCURVE",
"497 524 CURVE",
"432 378 OFFCURVE",
"362 219 OFFCURVE",
"308 94 CURVE",
"346 101 LINE",
"309 231 OFFCURVE",
"244 365 OFFCURVE",
"186 479 CURVE SMOOTH",
"151 548 OFFCURVE",
"97 636 OFFCURVE",
"72 636 CURVE SMOOTH",
"51 636 OFFCURVE",
"8 604 OFFCURVE",
"8 573 CURVE SMOOTH",
"8 553 OFFCURVE",
"63 503 OFFCURVE",
"86 467 CURVE SMOOTH",
"137 388 OFFCURVE",
"174 306 OFFCURVE",
"208 227 CURVE SMOOTH",
"242 147 OFFCURVE",
"267 60 OFFCURVE",
"279 -23 CURVE",
"288 -29 OFFCURVE",
"298 -31 OFFCURVE",
"309 -31 CURVE"
);
}
);
width = 1057;
}
);
unicode = 0057;
},
{
color = -1;
glyphname = X;
lastChange = "2016-02-12 12:36:05 +0000";
layers = (
{
background = {
paths = (
{
closed = 1;
nodes = (
"157 876 OFFCURVE",
"136 861 OFFCURVE",
"138 844 CURVE SMOOTH",
"140 829 OFFCURVE",
"159 806 OFFCURVE",
"218 755 CURVE SMOOTH",
"395 602 LINE SMOOTH",
"422 578 OFFCURVE",
"458 568 OFFCURVE",
"489 558 CURVE",
"486 597 LINE",
"354 430 LINE SMOOTH",
"316 381 OFFCURVE",
"282 319 OFFCURVE",
"286 266 CURVE SMOOTH",
"288 239 OFFCURVE",
"302 224 OFFCURVE",
"320 226 CURVE SMOOTH",
"344 229 OFFCURVE",
"354 243 OFFCURVE",
"368 269 CURVE SMOOTH",
"395 318 OFFCURVE",
"399 349 OFFCURVE",
"453 416 CURVE SMOOTH",
"565 555 LINE SMOOTH",
"576 568 OFFCURVE",
"591 584 OFFCURVE",
"590 601 CURVE SMOOTH",
"589 616 OFFCURVE",
"575 625 OFFCURVE",
"554 630 CURVE SMOOTH",
"506 642 LINE SMOOTH",
"473 650 OFFCURVE",
"441 681 OFFCURVE",
"402 716 CURVE SMOOTH",
"300 806 LINE SMOOTH",
"262 839 OFFCURVE",
"242 884 OFFCURVE",
"187 879 CURVE SMOOTH"
);
}
);
};
layerId = "D34FCF88-AF1D-4520-8FB0-498E26D42FBC";
paths = (
{
closed = 1;
nodes = (
"134 -24 OFFCURVE",
"153 64 OFFCURVE",
"234 159 CURVE SMOOTH",
"338 282 LINE",
"299 289 LINE",
"397 145 LINE SMOOTH",
"432 93 OFFCURVE",
"457 21 OFFCURVE",
"477 -4 CURVE SMOOTH",
"484 -14 OFFCURVE",
"495 -21 OFFCURVE",
"511 -21 CURVE SMOOTH",
"540 -21 OFFCURVE",
"568 3 OFFCURVE",
"568 35 CURVE SMOOTH",
"568 67 OFFCURVE",
"542 93 OFFCURVE",
"467 200 CURVE SMOOTH",
"391 307 LINE",
"347 368 LINE",
"362 301 LINE",
"446 406 LINE SMOOTH",
"523 502 OFFCURVE",
"573 560 OFFCURVE",
"573 594 CURVE SMOOTH",
"573 615 OFFCURVE",
"557 640 OFFCURVE",
"533 640 CURVE SMOOTH",
"491 640 OFFCURVE",
"465 572 OFFCURVE",
"379 462 CURVE SMOOTH",
"299 359 LINE",
"357 356 LINE",
"212 562 LINE SMOOTH",
"176 614 OFFCURVE",
"151 653 OFFCURVE",
"128 653 CURVE SMOOTH",
"105 653 OFFCURVE",
"81 614 OFFCURVE",
"81 586 CURVE SMOOTH",
"81 565 OFFCURVE",
"103 541 OFFCURVE",
"149 482 CURVE SMOOTH",
"307 281 LINE",
"281 349 LINE",
"135 175 LINE SMOOTH",
"76 104 OFFCURVE",
"51 69 OFFCURVE",
"51 19 CURVE SMOOTH",
"51 -4 OFFCURVE",
"61 -24 OFFCURVE",
"84 -24 CURVE SMOOTH"
);
}
);
width = 620;
}
);
unicode = 0058;
},
{
color = -1;
glyphname = Y;
lastChange = "2016-02-12 12:36:05 +0000";
layers = (
{
anchors = (
{
name = bottom;
position = "{324, 0}";
},
{
name = top;
position = "{312, 636}";
}
);
background = {
paths = (
{
closed = 1;
nodes = (
"738 31 OFFCURVE",
"757 49 OFFCURVE",
"753 65 CURVE",
"751 81 OFFCURVE",
"729 100 OFFCURVE",
"665 145 CURVE",
"473 281 LINE",
"445 301 OFFCURVE",
"369 348 OFFCURVE",
"375 316 CURVE SMOOTH",
"382 278 LINE",
"498 456 LINE",
"532 509 OFFCURVE",
"556 574 OFFCURVE",
"547 626 CURVE",
"544 653 OFFCURVE",
"531 666 OFFCURVE",
"512 662 CURVE",
"489 657 OFFCURVE",
"481 644 OFFCURVE",
"468 616 CURVE",
"444 565 OFFCURVE",
"445 531 OFFCURVE",
"398 461 CURVE",
"300 313 LINE",
"290 298 OFFCURVE",
"278 280 OFFCURVE",
"281 264 CURVE",
"283 249 OFFCURVE",
"296 243 OFFCURVE",
"316 239 CURVE",
"368 230 LINE",
"400 226 OFFCURVE",
"434 197 OFFCURVE",
"478 167 CURVE",
"588 88 LINE",
"628 60 OFFCURVE",
"653 15 OFFCURVE",
"708 25 CURVE"
);
}
);
};
layerId = "D34FCF88-AF1D-4520-8FB0-498E26D42FBC";
paths = (
{
closed = 1;
nodes = (
"355 -21 OFFCURVE",
"382 -3 OFFCURVE",
"382 20 CURVE SMOOTH",
"382 95 OFFCURVE",
"366 210 OFFCURVE",
"371 284 CURVE",
"358 247 LINE",
"378 273 OFFCURVE",
"407 315 OFFCURVE",
"465 405 CURVE SMOOTH",
"520 491 OFFCURVE",
"586 550 OFFCURVE",
"586 581 CURVE SMOOTH",
"586 614 OFFCURVE",
"563 640 OFFCURVE",
"542 640 CURVE SMOOTH",
"519 640 OFFCURVE",
"500 615 OFFCURVE",
"471 566 CURVE SMOOTH",
"418 476 OFFCURVE",
"331 348 OFFCURVE",
"324 348 CURVE SMOOTH",
"306 348 OFFCURVE",
"176 549 OFFCURVE",
"153 581 CURVE SMOOTH",
"128 614 OFFCURVE",
"109 640 OFFCURVE",
"76 640 CURVE SMOOTH",
"53 640 OFFCURVE",
"28 625 OFFCURVE",
"28 607 CURVE SMOOTH",
"28 588 OFFCURVE",
"66 538 OFFCURVE",
"106 482 CURVE SMOOTH",
"168 397 OFFCURVE",
"244 286 OFFCURVE",
"270 254 CURVE",
"275 195 OFFCURVE",
"275 164 OFFCURVE",
"274 44 CURVE SMOOTH",
"273 4 OFFCURVE",
"299 -21 OFFCURVE",
"336 -21 CURVE SMOOTH"
);
}
);
width = 614;
}
);
unicode = 0059;
},
{
color = -1;
glyphname = Z;
lastChange = "2016-02-12 12:36:05 +0000";
layers = (
{
anchors = (
{
name = top;
position = "{337, 636}";
}
);
background = {
paths = (
{
closed = 1;
nodes = (
"-130 573 LINE",
"-130 309 LINE",
"-138 44 LINE SMOOTH",
"-139 4 OFFCURVE",
"-114 -21 OFFCURVE",
"-77 -21 CURVE SMOOTH",
"-59 -21 OFFCURVE",
"-31 -3 OFFCURVE",
"-31 20 CURVE SMOOTH",
"-31 72 OFFCURVE",
"-43 132 OFFCURVE",
"-43 189 CURVE SMOOTH",
"-43 303 LINE SMOOTH",
"-43 422 OFFCURVE",
"-35 539 OFFCURVE",
"-35 575 CURVE"
);
},
{
closed = 1;
nodes = (
"-354 624 LINE SMOOTH",
"-390 624 OFFCURVE",
"-398 612 OFFCURVE",
"-398 592 CURVE SMOOTH",
"-398 571 OFFCURVE",
"-362 539 OFFCURVE",
"-333 539 CURVE SMOOTH",
"-54 539 LINE",
"128 551 LINE SMOOTH",
"157 553 OFFCURVE",
"173 560 OFFCURVE",
"173 582 CURVE SMOOTH",
"173 602 OFFCURVE",
"155 638 OFFCURVE",
"117 636 CURVE SMOOTH",
"-88 624 LINE"
);
}
);
};
layerId = "D34FCF88-AF1D-4520-8FB0-498E26D42FBC";
paths = (
{
closed = 1;
nodes = (
"408 -21 OFFCURVE",
"466 -21 CURVE SMOOTH",
"569 -21 OFFCURVE",
"690 15 OFFCURVE",
"690 58 CURVE SMOOTH",
"690 75 OFFCURVE",
"677 104 OFFCURVE",
"655 104 CURVE SMOOTH",
"624 104 OFFCURVE",
"556 66 OFFCURVE",
"466 66 CURVE SMOOTH",
"387 66 OFFCURVE",
"275 92 OFFCURVE",
"200 92 CURVE",
"190 59 LINE",
"567 508 LINE SMOOTH",
"602 550 OFFCURVE",
"631 581 OFFCURVE",
"631 613 CURVE SMOOTH",
"631 643 OFFCURVE",
"605 653 OFFCURVE",
"579 653 CURVE SMOOTH",
"539 653 OFFCURVE",
"414 624 OFFCURVE",
"337 624 CURVE SMOOTH",
"266 624 OFFCURVE",
"102 636 OFFCURVE",
"78 636 CURVE SMOOTH",
"65 636 OFFCURVE",
"51 626 OFFCURVE",
"51 613 CURVE SMOOTH",
"51 585 OFFCURVE",
"84 553 OFFCURVE",
"95 551 CURVE SMOOTH",
"128 542 OFFCURVE",
"170 539 OFFCURVE",
"222 539 CURVE SMOOTH",
"272 539 OFFCURVE",
"456 549 OFFCURVE",
"542 563 CURVE",
"529 582 LINE",
"402 450 OFFCURVE",
"263 273 OFFCURVE",
"134 128 CURVE SMOOTH",
"95 85 OFFCURVE",
"66 67 OFFCURVE",
"66 39 CURVE SMOOTH",
"66 4 OFFCURVE",
"91 -12 OFFCURVE",
"129 -12 CURVE SMOOTH",
"166 -12 OFFCURVE",
"205 0 OFFCURVE",
"253 0 CURVE SMOOTH",
"324 0 OFFCURVE"
);
}
);
width = 721;
}
);
unicode = 005A;
},
{
color = -1;
glyphname = A.ss01;
lastChange = "2016-02-12 12:36:05 +0000";
layers = (
{
anchors = (
{
name = bottom;
position = "{343, 0}";
},
{
name = top;
position = "{362, 636}";
}
);
background = {
paths = (
{
closed = 1;
nodes = (
"327 650 OFFCURVE",
"307 623 OFFCURVE",
"280 581 CURVE SMOOTH",
"185 435 LINE SMOOTH",
"94 296 OFFCURVE",
"25 131 OFFCURVE",
"13 27 CURVE SMOOTH",
"9 -12 OFFCURVE",
"25 -32 OFFCURVE",
"52 -32 CURVE SMOOTH",
"76 -32 OFFCURVE",
"108 -17 OFFCURVE",
"113 17 CURVE SMOOTH",
"135 181 OFFCURVE",
"212 322 OFFCURVE",
"253 385 CURVE SMOOTH",
"323 492 LINE",
"378 571 LINE",
"332 576 LINE",
"386 435 LINE SMOOTH",
"401 394 OFFCURVE",
"421 348 OFFCURVE",
"436 307 CURVE SMOOTH",
"492 148 LINE SMOOTH",
"510 97 OFFCURVE",
"515 43 OFFCURVE",
"524 17 CURVE SMOOTH",
"536 -19 OFFCURVE",
"573 -21 OFFCURVE",
"589 -21 CURVE SMOOTH",
"612 -21 OFFCURVE",
"635 -11 OFFCURVE",
"635 30 CURVE SMOOTH",
"635 48 OFFCURVE",
"615 94 OFFCURVE",
"595 150 CURVE SMOOTH",
"567 229 OFFCURVE",
"532 324 OFFCURVE",
"508 384 CURVE SMOOTH",
"426 587 LINE SMOOTH",
"407 633 OFFCURVE",
"387 650 OFFCURVE",
"358 650 CURVE SMOOTH"
);
},
{
closed = 1;
nodes = (
"424 155 OFFCURVE",
"472 164 OFFCURVE",
"509 179 CURVE",
"509 179 OFFCURVE",
"520 269 OFFCURVE",
"520 269 CURVE",
"477 249 OFFCURVE",
"421 240 OFFCURVE",
"349 240 CURVE SMOOTH",
"320 240 OFFCURVE",
"195 250 OFFCURVE",
"135 260 CURVE",
"135 260 OFFCURVE",
"123 174 OFFCURVE",
"123 174 CURVE",
"196 163 OFFCURVE",
"327 155 OFFCURVE",
"375 155 CURVE SMOOTH"
);
}
);
};
layerId = "D34FCF88-AF1D-4520-8FB0-498E26D42FBC";
paths = (
{
closed = 1;
nodes = (
"331 640 OFFCURVE",
"311 613 OFFCURVE",
"283 571 CURVE SMOOTH",
"188 425 LINE SMOOTH",
"94 289 OFFCURVE",
"29 121 OFFCURVE",
"17 17 CURVE SMOOTH",
"12 -22 OFFCURVE",
"29 -42 OFFCURVE",
"55 -42 CURVE SMOOTH",
"80 -42 OFFCURVE",
"112 -27 OFFCURVE",
"116 7 CURVE SMOOTH",
"137 171 OFFCURVE",
"215 312 OFFCURVE",
"257 375 CURVE SMOOTH",
"326 482 LINE",
"382 561 LINE",
"335 566 LINE",
"389 425 LINE SMOOTH",
"405 384 OFFCURVE",
"425 338 OFFCURVE",
"439 298 CURVE SMOOTH",
"495 138 LINE SMOOTH",
"511 91 OFFCURVE",
"515 42 OFFCURVE",
"524 17 CURVE SMOOTH",
"534 -12 OFFCURVE",
"563 -21 OFFCURVE",
"587 -21 CURVE SMOOTH",
"612 -21 OFFCURVE",
"638 -13 OFFCURVE",
"638 19 CURVE SMOOTH",
"638 39 OFFCURVE",
"618 84 OFFCURVE",
"598 140 CURVE SMOOTH",
"570 219 OFFCURVE",
"535 314 OFFCURVE",
"511 374 CURVE SMOOTH",
"429 577 LINE SMOOTH",
"410 623 OFFCURVE",
"390 640 OFFCURVE",
"362 640 CURVE SMOOTH"
);
},
{
closed = 1;
nodes = (
"427 145 OFFCURVE",
"476 154 OFFCURVE",
"512 169 CURVE",
"512 169 OFFCURVE",
"523 259 OFFCURVE",
"523 259 CURVE",
"480 239 OFFCURVE",
"425 230 OFFCURVE",
"353 230 CURVE SMOOTH",
"323 230 OFFCURVE",
"198 240 OFFCURVE",
"138 250 CURVE",
"138 250 OFFCURVE",
"126 164 OFFCURVE",
"126 164 CURVE",
"199 153 OFFCURVE",
"331 145 OFFCURVE",
"378 145 CURVE SMOOTH"
);
}
);
width = 670;
}
);
},
{
color = -1;
glyphname = M.ss01;
lastChange = "2016-02-12 12:36:05 +0000";
layers = (
{
anchors = (
{
name = bottom;
position = "{490, 0}";
},
{
name = top;
position = "{490, 450}";
}
);
background = {
paths = (
{
closed = 1;
nodes = (
"729 636 OFFCURVE",
"721 634 OFFCURVE",
"710 627 CURVE",
"646 458 OFFCURVE",
"544 223 OFFCURVE",
"453 55 CURVE",
"508 53 LINE",
"469 168 OFFCURVE",
"363 455 OFFCURVE",
"310 592 CURVE SMOOTH",
"296 626 OFFCURVE",
"277 636 OFFCURVE",
"249 636 CURVE SMOOTH",
"238 636 OFFCURVE",
"229 634 OFFCURVE",
"219 628 CURVE",
"206 460 OFFCURVE",
"164 282 OFFCURVE",
"109 138 CURVE SMOOTH",
"93 94 OFFCURVE",
"54 34 OFFCURVE",
"54 10 CURVE SMOOTH",
"54 -24 OFFCURVE",
"96 -42 OFFCURVE",
"117 -42 CURVE SMOOTH",
"181 -42 OFFCURVE",
"225 252 OFFCURVE",
"286 474 CURVE",
"240 489 LINE",
"319 338 OFFCURVE",
"373 194 OFFCURVE",
"409 14 CURVE SMOOTH",
"416 -18 OFFCURVE",
"450 -31 OFFCURVE",
"482 -31 CURVE SMOOTH",
"508 -31 OFFCURVE",
"521 -21 OFFCURVE",
"532 6 CURVE SMOOTH",
"565 86 OFFCURVE",
"627 250 OFFCURVE",
"781 528 CURVE",
"738 539 LINE",
"747 451 OFFCURVE",
"761 332 OFFCURVE",
"794 229 CURVE SMOOTH",
"855 39 OFFCURVE",
"873 -21 OFFCURVE",
"945 -21 CURVE SMOOTH",
"970 -21 OFFCURVE",
"988 -8 OFFCURVE",
"988 1 CURVE SMOOTH",
"988 22 OFFCURVE",
"943 100 OFFCURVE",
"910 169 CURVE SMOOTH",
"883 228 OFFCURVE",
"863 290 OFFCURVE",
"857 319 CURVE SMOOTH",
"824 489 OFFCURVE",
"813 636 OFFCURVE",
"747 636 CURVE"
);
}
);
};
layerId = "D34FCF88-AF1D-4520-8FB0-498E26D42FBC";
paths = (
{
closed = 1;
nodes = (
"730 636 OFFCURVE",
"719 634 OFFCURVE",
"710 627 CURVE",
"646 458 OFFCURVE",
"544 223 OFFCURVE",
"453 55 CURVE",
"508 53 LINE",
"469 168 OFFCURVE",
"364 455 OFFCURVE",
"310 592 CURVE SMOOTH",
"296 626 OFFCURVE",
"277 636 OFFCURVE",
"249 636 CURVE SMOOTH",
"238 636 OFFCURVE",
"229 634 OFFCURVE",
"219 628 CURVE",
"206 460 OFFCURVE",
"164 282 OFFCURVE",
"109 138 CURVE SMOOTH",
"93 94 OFFCURVE",
"54 34 OFFCURVE",
"54 10 CURVE SMOOTH",
"54 -24 OFFCURVE",
"96 -42 OFFCURVE",
"117 -42 CURVE SMOOTH",
"181 -42 OFFCURVE",
"225 252 OFFCURVE",
"286 474 CURVE",
"240 489 LINE",
"319 338 OFFCURVE",
"373 194 OFFCURVE",
"409 14 CURVE SMOOTH",
"417 -18 OFFCURVE",
"450 -31 OFFCURVE",
"482 -31 CURVE SMOOTH",
"508 -31 OFFCURVE",
"521 -21 OFFCURVE",
"532 6 CURVE SMOOTH",
"564 86 OFFCURVE",
"627 250 OFFCURVE",
"781 528 CURVE",
"738 539 LINE",
"747 451 OFFCURVE",
"761 332 OFFCURVE",
"794 229 CURVE SMOOTH",
"855 39 OFFCURVE",
"873 -21 OFFCURVE",
"945 -21 CURVE SMOOTH",
"970 -21 OFFCURVE",
"988 -8 OFFCURVE",
"988 1 CURVE SMOOTH",
"988 22 OFFCURVE",
"942 100 OFFCURVE",
"910 169 CURVE SMOOTH",
"883 228 OFFCURVE",
"863 290 OFFCURVE",
"857 319 CURVE SMOOTH",
"831 449 OFFCURVE",
"827 567 OFFCURVE",
"790 614 CURVE SMOOTH",
"776 630 OFFCURVE",
"763 636 OFFCURVE",
"741 636 CURVE"
);
}
);
width = 1037;
}
);
},
{
color = -1;
glyphname = N.ss01;
lastChange = "2016-02-12 12:36:05 +0000";
layers = (
{
anchors = (
{
name = bottom;
position = "{385, 0}";
},
{
name = top;
position = "{385, 636}";
}
);
background = {
paths = (
{
closed = 1;
nodes = (
"650 -54 OFFCURVE",
"672 -38 OFFCURVE",
"672 -11 CURVE SMOOTH",
"672 19 OFFCURVE",
"659 187 OFFCURVE",
"659 270 CURVE SMOOTH",
"659 389 OFFCURVE",
"685 505 OFFCURVE",
"685 542 CURVE SMOOTH",
"685 574 OFFCURVE",
"655 607 OFFCURVE",
"616 607 CURVE SMOOTH",
"589 607 OFFCURVE",
"585 585 OFFCURVE",
"583 540 CURVE SMOOTH",
"572 275 LINE",
"566 54 LINE",
"616 66 LINE",
"531 171 OFFCURVE",
"286 478 OFFCURVE",
"205 575 CURVE SMOOTH",
"192 589 OFFCURVE",
"177 603 OFFCURVE",
"150 603 CURVE SMOOTH",
"128 603 OFFCURVE",
"97 588 OFFCURVE",
"98 554 CURVE SMOOTH",
"107 281 LINE",
"88 -10 LINE SMOOTH",
"87 -35 OFFCURVE",
"121 -54 OFFCURVE",
"143 -54 CURVE SMOOTH",
"178 -54 OFFCURVE",
"199 -38 OFFCURVE",
"199 21 CURVE SMOOTH",
"199 59 OFFCURVE",
"194 136 OFFCURVE",
"194 222 CURVE SMOOTH",
"194 320 OFFCURVE",
"199 426 OFFCURVE",
"202 504 CURVE",
"171 471 LINE",
"322 301 OFFCURVE",
"497 72 OFFCURVE",
"568 -28 CURVE SMOOTH",
"583 -48 OFFCURVE",
"599 -54 OFFCURVE",
"624 -54 CURVE"
);
}
);
};
layerId = "D34FCF88-AF1D-4520-8FB0-498E26D42FBC";
paths = (
{
closed = 1;
nodes = (
"114 640 OFFCURVE",
"94 619 OFFCURVE",
"96 597 CURVE SMOOTH",
"106 493 OFFCURVE",
"109 399 OFFCURVE",
"109 316 CURVE SMOOTH",
"109 197 OFFCURVE",
"84 81 OFFCURVE",
"84 44 CURVE SMOOTH",
"84 12 OFFCURVE",
"114 -21 OFFCURVE",
"153 -21 CURVE SMOOTH",
"179 -21 OFFCURVE",
"184 1 OFFCURVE",
"186 46 CURVE SMOOTH",
"197 311 LINE SMOOTH",
"200 378 OFFCURVE",
"196 434 OFFCURVE",
"186 494 CURVE",
"156 482 LINE",
"241 345 OFFCURVE",
"484 64 OFFCURVE",
"564 0 CURVE SMOOTH",
"574 -8 OFFCURVE",
"588 -17 OFFCURVE",
"615 -17 CURVE SMOOTH",
"639 -17 OFFCURVE",
"671 -2 OFFCURVE",
"670 32 CURVE SMOOTH",
"661 305 LINE",
"680 596 LINE SMOOTH",
"681 622 OFFCURVE",
"648 640 OFFCURVE",
"626 640 CURVE SMOOTH",
"591 640 OFFCURVE",
"570 624 OFFCURVE",
"570 565 CURVE SMOOTH",
"570 528 OFFCURVE",
"575 450 OFFCURVE",
"575 364 CURVE SMOOTH",
"574 267 OFFCURVE",
"570 160 OFFCURVE",
"566 82 CURVE",
"592 104 LINE",
"467 218 OFFCURVE",
"270 438 OFFCURVE",
"200 605 CURVE SMOOTH",
"191 626 OFFCURVE",
"178 640 OFFCURVE",
"145 640 CURVE"
);
}
);
width = 782;
}
);
},
{
color = -1;
glyphname = Q.ss01;
lastChange = "2016-02-12 12:36:05 +0000";
layers = (
{
background = {
paths = (
{
closed = 1;
nodes = (
"603 -31 OFFCURVE",
"708 181 OFFCURVE",
"708 326 CURVE SMOOTH",
"708 533 OFFCURVE",
"581 655 OFFCURVE",
"378 655 CURVE SMOOTH",
"220 655 OFFCURVE",
"72 453 OFFCURVE",
"72 298 CURVE SMOOTH",
"72 91 OFFCURVE",
"205 -31 OFFCURVE",
"401 -31 CURVE"
);
},
{
closed = 1;
nodes = (
"261 56 OFFCURVE",
"161 136 OFFCURVE",
"161 298 CURVE SMOOTH",
"161 421 OFFCURVE",
"282 567 OFFCURVE",
"378 567 CURVE SMOOTH",
"530 567 OFFCURVE",
"618 477 OFFCURVE",
"618 326 CURVE SMOOTH",
"618 225 OFFCURVE",
"542 56 OFFCURVE",
"401 56 CURVE SMOOTH"
);
}
);
};
layerId = "D34FCF88-AF1D-4520-8FB0-498E26D42FBC";
paths = (
{
closed = 1;
nodes = (
"637 -176 OFFCURVE",
"695 -155 OFFCURVE",
"695 -113 CURVE SMOOTH",
"695 -90 OFFCURVE",
"678 -73 OFFCURVE",
"655 -73 CURVE SMOOTH",
"633 -73 OFFCURVE",
"625 -91 OFFCURVE",
"592 -91 CURVE SMOOTH",
"518 -91 OFFCURVE",
"459 -42 OFFCURVE",
"401 -6 CURVE",
"379 -20 LINE",
"595 -20 OFFCURVE",
"708 167 OFFCURVE",
"708 326 CURVE SMOOTH",
"708 533 OFFCURVE",
"573 655 OFFCURVE",
"390 655 CURVE SMOOTH",
"240 655 OFFCURVE",
"117 551 OFFCURVE",
"117 404 CURVE SMOOTH",
"117 264 OFFCURVE",
"226 188 OFFCURVE",
"290 188 CURVE SMOOTH",
"317 188 OFFCURVE",
"342 204 OFFCURVE",
"342 230 CURVE SMOOTH",
"342 302 OFFCURVE",
"207 265 OFFCURVE",
"207 404 CURVE SMOOTH",
"207 512 OFFCURVE",
"293 567 OFFCURVE",
"390 567 CURVE SMOOTH",
"512 567 OFFCURVE",
"618 492 OFFCURVE",
"618 326 CURVE SMOOTH",
"618 196 OFFCURVE",
"534 67 OFFCURVE",
"379 67 CURVE SMOOTH",
"269 67 OFFCURVE",
"232 144 OFFCURVE",
"177 144 CURVE SMOOTH",
"147 144 OFFCURVE",
"134 123 OFFCURVE",
"134 100 CURVE SMOOTH",
"134 56 OFFCURVE",
"182 46 OFFCURVE",
"253 3 CURVE SMOOTH",
"358 -61 OFFCURVE",
"459 -176 OFFCURVE",
"592 -176 CURVE SMOOTH"
);
}
);
width = 791;
}
);
},
{
color = -1;
glyphname = a;
lastChange = "2016-02-12 12:36:05 +0000";
layers = (
{
anchors = (
{
name = top;
position = "{259, 450}";
}
);
background = {
paths = (
{
closed = 1;
nodes = (
"440 -21 OFFCURVE",
"536 108 OFFCURVE",
"536 242 CURVE SMOOTH",
"536 363 OFFCURVE",
"441 473 OFFCURVE",
"309 473 CURVE SMOOTH",
"179 473 OFFCURVE",
"61 354 OFFCURVE",
"61 220 CURVE SMOOTH",
"61 175 OFFCURVE",
"69 133 OFFCURVE",
"96 90 CURVE SMOOTH",
"130 33 OFFCURVE",
"186 -21 OFFCURVE",
"281 -21 CURVE SMOOTH"
);
},
{
closed = 1;
nodes = (
"217 64 OFFCURVE",
"149 135 OFFCURVE",
"149 220 CURVE SMOOTH",
"149 306 OFFCURVE",
"226 388 OFFCURVE",
"309 388 CURVE SMOOTH",
"398 388 OFFCURVE",
"448 299 OFFCURVE",
"448 242 CURVE SMOOTH",
"448 155 OFFCURVE",
"388 64 OFFCURVE",
"281 64 CURVE SMOOTH"
);
}
);
};
guideLines = (
{
angle = 90;
position = "{69, 271}";
}
);
layerId = "D34FCF88-AF1D-4520-8FB0-498E26D42FBC";
paths = (
{
closed = 1;
nodes = (
"502 -21 OFFCURVE",
"541 -7 OFFCURVE",
"541 29 CURVE SMOOTH",
"541 59 OFFCURVE",
"522 70 OFFCURVE",
"504 70 CURVE SMOOTH",
"485 70 OFFCURVE",
"481 64 OFFCURVE",
"463 64 CURVE SMOOTH",
"445 64 OFFCURVE",
"435 79 OFFCURVE",
"435 116 CURVE SMOOTH",
"435 294 LINE SMOOTH",
"435 413 OFFCURVE",
"360 473 OFFCURVE",
"259 473 CURVE SMOOTH",
"225 473 OFFCURVE",
"185 463 OFFCURVE",
"155 450 CURVE SMOOTH",
"109 429 OFFCURVE",
"77 395 OFFCURVE",
"77 366 CURVE SMOOTH",
"77 337 OFFCURVE",
"101 319 OFFCURVE",
"127 319 CURVE SMOOTH",
"174 319 OFFCURVE",
"194 394 OFFCURVE",
"259 394 CURVE SMOOTH",
"319 394 OFFCURVE",
"350 355 OFFCURVE",
"350 294 CURVE SMOOTH",
"350 116 LINE SMOOTH",
"350 71 OFFCURVE",
"370 -21 OFFCURVE",
"464 -21 CURVE SMOOTH"
);
},
{
closed = 1;
nodes = (
"279 -21 OFFCURVE",
"341 14 OFFCURVE",
"382 55 CURVE",
"364 124 LINE",
"321 73 OFFCURVE",
"270 59 OFFCURVE",
"222 59 CURVE SMOOTH",
"185 59 OFFCURVE",
"157 76 OFFCURVE",
"157 113 CURVE SMOOTH",
"157 148 OFFCURVE",
"187 184 OFFCURVE",
"238 184 CURVE SMOOTH",
"286 184 OFFCURVE",
"331 169 OFFCURVE",
"366 133 CURVE",
"366 133 OFFCURVE",
"366 215 OFFCURVE",
"366 215 CURVE",
"332 242 OFFCURVE",
"279 263 OFFCURVE",
"238 263 CURVE SMOOTH",
"139 263 OFFCURVE",
"69 189 OFFCURVE",
"69 113 CURVE SMOOTH",
"69 7 OFFCURVE",
"164 -21 OFFCURVE",
"222 -21 CURVE SMOOTH"
);
}
);
width = 552;
}
);
unicode = 0061;
},
{
color = -1;
glyphname = ae;
lastChange = "2016-02-12 12:36:05 +0000";
layers = (
{
anchors = (
{
name = bottom;
position = "{370, 0}";
},
{
name = top;
position = "{422, 450}";
}
);
background = {
paths = (
{
closed = 1;
nodes = (
"502 -21 OFFCURVE",
"541 -7 OFFCURVE",
"541 29 CURVE SMOOTH",
"541 59 OFFCURVE",
"522 70 OFFCURVE",
"504 70 CURVE SMOOTH",
"485 70 OFFCURVE",
"481 64 OFFCURVE",
"463 64 CURVE SMOOTH",
"445 64 OFFCURVE",
"435 79 OFFCURVE",
"435 116 CURVE SMOOTH",
"435 294 LINE SMOOTH",
"435 413 OFFCURVE",
"360 473 OFFCURVE",
"259 473 CURVE SMOOTH",
"225 473 OFFCURVE",
"185 463 OFFCURVE",
"155 450 CURVE SMOOTH",
"109 429 OFFCURVE",
"77 395 OFFCURVE",
"77 366 CURVE SMOOTH",
"77 337 OFFCURVE",
"101 319 OFFCURVE",
"127 319 CURVE SMOOTH",
"174 319 OFFCURVE",
"194 394 OFFCURVE",
"259 394 CURVE SMOOTH",
"319 394 OFFCURVE",
"350 355 OFFCURVE",
"350 294 CURVE SMOOTH",
"350 116 LINE SMOOTH",
"350 71 OFFCURVE",
"370 -21 OFFCURVE",
"464 -21 CURVE SMOOTH"
);
},
{
closed = 1;
nodes = (
"279 -21 OFFCURVE",
"341 14 OFFCURVE",
"382 55 CURVE",
"364 124 LINE",
"321 73 OFFCURVE",
"270 59 OFFCURVE",
"222 59 CURVE SMOOTH",
"185 59 OFFCURVE",
"157 76 OFFCURVE",
"157 113 CURVE SMOOTH",
"157 148 OFFCURVE",
"187 184 OFFCURVE",
"238 184 CURVE SMOOTH",
"286 184 OFFCURVE",
"331 169 OFFCURVE",
"366 133 CURVE",
"366 133 OFFCURVE",
"366 215 OFFCURVE",
"366 215 CURVE",
"332 242 OFFCURVE",
"279 263 OFFCURVE",
"238 263 CURVE SMOOTH",
"139 263 OFFCURVE",
"69 189 OFFCURVE",
"69 113 CURVE SMOOTH",
"69 7 OFFCURVE",
"164 -21 OFFCURVE",
"222 -21 CURVE SMOOTH"
);
},
{
closed = 1;
nodes = (
"638 388 OFFCURVE",
"658 363 OFFCURVE",
"658 338 CURVE SMOOTH",
"658 289 OFFCURVE",
"549 244 OFFCURVE",
"389 225 CURVE",
"430 149 LINE",
"624 177 OFFCURVE",
"759 241 OFFCURVE",
"759 338 CURVE SMOOTH",
"759 406 OFFCURVE",
"689 474 OFFCURVE",
"592 473 CURVE SMOOTH",
"503 472 OFFCURVE",
"425 426 OFFCURVE",
"425 382 CURVE SMOOTH",
"425 363 OFFCURVE",
"435 344 OFFCURVE",
"456 344 CURVE SMOOTH",
"509 344 OFFCURVE",
"515 388 OFFCURVE",
"592 388 CURVE"
);
},
{
closed = 1;
nodes = (
"348 79 OFFCURVE",
"439 -22 OFFCURVE",
"575 -21 CURVE SMOOTH",
"693 -20 OFFCURVE",
"778 58 OFFCURVE",
"778 108 CURVE SMOOTH",
"778 132 OFFCURVE",
"765 153 OFFCURVE",
"737 153 CURVE SMOOTH",
"687 153 OFFCURVE",
"687 64 OFFCURVE",
"575 64 CURVE SMOOTH",
"494 64 OFFCURVE",
"435 127 OFFCURVE",
"435 220 CURVE SMOOTH",
"435 273 OFFCURVE",
"456 296 OFFCURVE",
"456 319 CURVE SMOOTH",
"456 346 OFFCURVE",
"435 359 OFFCURVE",
"413 359 CURVE SMOOTH",
"374 359 OFFCURVE",
"349 291 OFFCURVE",
"348 220 CURVE"
);
}
);
};
layerId = "D34FCF88-AF1D-4520-8FB0-498E26D42FBC";
paths = (
{
closed = 1;
nodes = (
"628 175 OFFCURVE",
"759 241 OFFCURVE",
"759 338 CURVE SMOOTH",
"759 406 OFFCURVE",
"689 474 OFFCURVE",
"592 473 CURVE SMOOTH",
"514 472 OFFCURVE",
"447 438 OFFCURVE",
"447 394 CURVE SMOOTH",
"447 375 OFFCURVE",
"457 356 OFFCURVE",
"478 356 CURVE SMOOTH",
"520 356 OFFCURVE",
"524 388 OFFCURVE",
"592 388 CURVE SMOOTH",
"638 388 OFFCURVE",
"658 363 OFFCURVE",
"658 338 CURVE SMOOTH",
"658 289 OFFCURVE",
"565 255 OFFCURVE",
"426 255 CURVE",
"395 270 LINE",
"294 270 LINE",
"116 270 OFFCURVE",
"69 176 OFFCURVE",
"69 113 CURVE SMOOTH",
"69 7 OFFCURVE",
"164 -21 OFFCURVE",
"222 -21 CURVE SMOOTH",
"294 -21 OFFCURVE",
"369 31 OFFCURVE",
"420 96 CURVE",
"364 124 LINE",
"321 73 OFFCURVE",
"270 59 OFFCURVE",
"222 59 CURVE SMOOTH",
"185 59 OFFCURVE",
"157 76 OFFCURVE",
"157 113 CURVE SMOOTH",
"157 148 OFFCURVE",
"175 189 OFFCURVE",
"291 189 CURVE",
"395 189 LINE",
"426 175 LINE"
);
},
{
closed = 1;
nodes = (
"435 294 LINE SMOOTH",
"435 413 OFFCURVE",
"360 473 OFFCURVE",
"259 473 CURVE SMOOTH",
"225 473 OFFCURVE",
"185 463 OFFCURVE",
"155 450 CURVE SMOOTH",
"109 429 OFFCURVE",
"77 395 OFFCURVE",
"77 366 CURVE SMOOTH",
"77 337 OFFCURVE",
"101 319 OFFCURVE",
"127 319 CURVE SMOOTH",
"174 319 OFFCURVE",
"194 394 OFFCURVE",
"259 394 CURVE SMOOTH",
"318 394 OFFCURVE",
"348 355 OFFCURVE",
"348 294 CURVE SMOOTH",
"348 220 LINE",
"348 79 OFFCURVE",
"439 -22 OFFCURVE",
"575 -21 CURVE SMOOTH",
"693 -20 OFFCURVE",
"778 58 OFFCURVE",
"778 108 CURVE SMOOTH",
"778 132 OFFCURVE",
"765 153 OFFCURVE",
"737 153 CURVE SMOOTH",
"687 153 OFFCURVE",
"687 64 OFFCURVE",
"575 64 CURVE SMOOTH",
"494 64 OFFCURVE",
"435 127 OFFCURVE",
"435 220 CURVE"
);
}
);
width = 833;
}
);
leftMetricsKey = a;
rightMetricsKey = e;
unicode = 00E6;
},
{
color = -1;
glyphname = b;
lastChange = "2016-02-12 12:36:05 +0000";
layers = (
{
background = {
paths = (
{
closed = 1;
nodes = (
"243 -21 OFFCURVE",
"301 388 OFFCURVE",
"398 388 CURVE SMOOTH",
"421 388 OFFCURVE",
"434 354 OFFCURVE",
"434 311 CURVE SMOOTH",
"434 116 LINE SMOOTH",
"434 22 OFFCURVE",
"474 -21 OFFCURVE",
"542 -21 CURVE SMOOTH",
"580 -21 OFFCURVE",
"620 -7 OFFCURVE",
"620 29 CURVE SMOOTH",
"620 55 OFFCURVE",
"604 69 OFFCURVE",
"587 69 CURVE",
"570 69 OFFCURVE",
"565 64 OFFCURVE",
"547 64 CURVE SMOOTH",
"529 64 OFFCURVE",
"519 79 OFFCURVE",
"519 116 CURVE SMOOTH",
"519 311 LINE SMOOTH",
"519 431 OFFCURVE",
"456 473 OFFCURVE",
"398 473 CURVE SMOOTH",
"294 473 OFFCURVE",
"221 263 OFFCURVE",
"191 146 CURVE",
"191 146 OFFCURVE",
"202 149 OFFCURVE",
"202 149 CURVE",
"196 356 OFFCURVE",
"148 473 OFFCURVE",
"87 473 CURVE SMOOTH",
"64 473 OFFCURVE",
"40 452 OFFCURVE",
"40 426 CURVE SMOOTH",
"40 374 OFFCURVE",
"120 305 OFFCURVE",
"120 228 CURVE SMOOTH",
"120 115 LINE SMOOTH",
"120 61 OFFCURVE",
"116 59 OFFCURVE",
"116 30 CURVE SMOOTH",
"116 -3 OFFCURVE",
"135 -21 OFFCURVE",
"159 -21 CURVE SMOOTH"
);
}
);
};
layerId = "D34FCF88-AF1D-4520-8FB0-498E26D42FBC";
paths = (
{
closed = 1;
nodes = (
"199 -21 OFFCURVE",
"210 12 OFFCURVE",
"210 51 CURVE",
"164 15 LINE",
"216 -10 OFFCURVE",
"270 -21 OFFCURVE",
"312 -21 CURVE SMOOTH",
"488 -21 OFFCURVE",
"536 118 OFFCURVE",
"536 277 CURVE SMOOTH",
"536 444 OFFCURVE",
"463 473 OFFCURVE",
"403 473 CURVE SMOOTH",
"325 473 OFFCURVE",
"245 373 OFFCURVE",
"182 268 CURVE",
"171 79 LINE",
"210 62 LINE",
"197 326 LINE",
"197 368 OFFCURVE",
"187 486 OFFCURVE",
"187 539 CURVE SMOOTH",
"187 607 OFFCURVE",
"205 660 OFFCURVE",
"205 712 CURVE SMOOTH",
"205 739 OFFCURVE",
"182 760 OFFCURVE",
"158 760 CURVE SMOOTH",
"129 760 OFFCURVE",
"108 738 OFFCURVE",
"108 688 CURVE SMOOTH",
"108 659 OFFCURVE",
"99 549 OFFCURVE",
"99 526 CURVE",
"99 469 OFFCURVE",
"113 347 OFFCURVE",
"113 289 CURVE",
"125 49 LINE SMOOTH",
"127 17 OFFCURVE",
"164 -21 OFFCURVE",
"183 -21 CURVE SMOOTH"
);
},
{
closed = 1;
nodes = (
"260 64 OFFCURVE",
"223 79 OFFCURVE",
"194 97 CURVE",
"204 154 LINE",
"223 196 OFFCURVE",
"239 226 OFFCURVE",
"255 250 CURVE SMOOTH",
"301 319 OFFCURVE",
"360 387 OFFCURVE",
"403 387 CURVE SMOOTH",
"426 387 OFFCURVE",
"448 373 OFFCURVE",
"448 280 CURVE SMOOTH",
"448 149 OFFCURVE",
"413 64 OFFCURVE",
"312 64 CURVE SMOOTH"
);
}
);
width = 607;
}
);
unicode = 0062;
},
{
color = -1;
glyphname = c;
lastChange = "2016-02-12 12:36:05 +0000";
layers = (
{
anchors = (
{
name = bottom;
position = "{288, 0}";
},
{
name = top;
position = "{299, 450}";
}
);
background = {
paths = (
{
closed = 1;
nodes = (
"440 -21 OFFCURVE",
"536 108 OFFCURVE",
"536 242 CURVE SMOOTH",
"536 363 OFFCURVE",
"441 473 OFFCURVE",
"309 473 CURVE SMOOTH",
"179 473 OFFCURVE",
"61 354 OFFCURVE",
"61 220 CURVE SMOOTH",
"61 175 OFFCURVE",
"69 133 OFFCURVE",
"96 90 CURVE SMOOTH",
"130 33 OFFCURVE",
"186 -21 OFFCURVE",
"281 -21 CURVE SMOOTH"
);
},
{
closed = 1;
nodes = (
"217 64 OFFCURVE",
"149 135 OFFCURVE",
"149 220 CURVE SMOOTH",
"149 306 OFFCURVE",
"226 388 OFFCURVE",
"309 388 CURVE SMOOTH",
"398 388 OFFCURVE",
"448 299 OFFCURVE",
"448 242 CURVE SMOOTH",
"448 155 OFFCURVE",
"388 64 OFFCURVE",
"281 64 CURVE SMOOTH"
);
}
);
};
layerId = "D34FCF88-AF1D-4520-8FB0-498E26D42FBC";
paths = (
{
closed = 1;
nodes = (
"406 -20 OFFCURVE",
"492 58 OFFCURVE",
"492 108 CURVE SMOOTH",
"492 132 OFFCURVE",
"478 153 OFFCURVE",
"451 153 CURVE SMOOTH",
"401 153 OFFCURVE",
"401 64 OFFCURVE",
"288 64 CURVE SMOOTH",
"206 64 OFFCURVE",
"149 135 OFFCURVE",
"149 220 CURVE SMOOTH",
"149 306 OFFCURVE",
"215 388 OFFCURVE",
"299 388 CURVE SMOOTH",
"379 388 OFFCURVE",
"379 341 OFFCURVE",
"423 341 CURVE SMOOTH",
"451 341 OFFCURVE",
"463 361 OFFCURVE",
"463 382 CURVE SMOOTH",
"463 408 OFFCURVE",
"440 430 OFFCURVE",
"409 447 CURVE SMOOTH",
"380 462 OFFCURVE",
"345 473 OFFCURVE",
"299 473 CURVE SMOOTH",
"168 473 OFFCURVE",
"61 354 OFFCURVE",
"61 220 CURVE SMOOTH",
"61 79 OFFCURVE",
"151 -22 OFFCURVE",
"288 -21 CURVE SMOOTH"
);
}
);
width = 533;
}
);
unicode = 0063;
},
{
color = -1;
glyphname = d;
lastChange = "2016-02-12 12:36:05 +0000";
layers = (
{
anchors = (
{
name = caron;
position = "{637, 550}";
}
);
background = {
paths = (
{
closed = 1;
nodes = (
"288 -21 OFFCURVE",
"370 102 OFFCURVE",
"413 186 CURVE SMOOTH",
"449 254 OFFCURVE",
"520 355 OFFCURVE",
"520 434 CURVE SMOOTH",
"520 458 OFFCURVE",
"492 473 OFFCURVE",
"473 473 CURVE SMOOTH",
"450 473 OFFCURVE",
"387 430 OFFCURVE",
"387 345 CURVE SMOOTH",
"387 284 OFFCURVE",
"404 237 OFFCURVE",
"414 155 CURVE SMOOTH",
"419 117 LINE SMOOTH",
"430 21 OFFCURVE",
"472 -21 OFFCURVE",
"524 -21 CURVE SMOOTH",
"547 -21 OFFCURVE",
"570 0 OFFCURVE",
"570 27 CURVE SMOOTH",
"570 79 OFFCURVE",
"503 51 OFFCURVE",
"494 153 CURVE SMOOTH",
"483 275 LINE",
"483 275 OFFCURVE",
"489 392 OFFCURVE",
"489 392 CURVE",
"489 392 OFFCURVE",
"440 413 OFFCURVE",
"440 413 CURVE",
"350 215 LINE SMOOTH",
"314 133 OFFCURVE",
"247 64 OFFCURVE",
"204 64 CURVE SMOOTH",
"181 64 OFFCURVE",
"159 82 OFFCURVE",
"159 206 CURVE SMOOTH",
"159 316 OFFCURVE",
"185 417 OFFCURVE",
"185 452 CURVE SMOOTH",
"185 477 OFFCURVE",
"171 491 OFFCURVE",
"140 491 CURVE SMOOTH",
"88 491 OFFCURVE",
"71 362 OFFCURVE",
"71 209 CURVE SMOOTH",
"71 14 OFFCURVE",
"144 -21 OFFCURVE",
"204 -21 CURVE SMOOTH"
);
}
);
};
layerId = "D34FCF88-AF1D-4520-8FB0-498E26D42FBC";
paths = (
{
closed = 1;
nodes = (
"282 -21 OFFCURVE",
"362 85 OFFCURVE",
"425 210 CURVE",
"403 222 LINE",
"418 117 LINE SMOOTH",
"432 9 OFFCURVE",
"476 -21 OFFCURVE",
"524 -21 CURVE SMOOTH",
"547 -21 OFFCURVE",
"570 0 OFFCURVE",
"570 27 CURVE SMOOTH",
"570 79 OFFCURVE",
"488 51 OFFCURVE",
"493 153 CURVE SMOOTH",
"503 397 LINE",
"514 550 LINE SMOOTH",
"518 608 OFFCURVE",
"531 660 OFFCURVE",
"531 712 CURVE SMOOTH",
"531 739 OFFCURVE",
"498 760 OFFCURVE",
"475 760 CURVE SMOOTH",
"445 760 OFFCURVE",
"424 738 OFFCURVE",
"424 688 CURVE SMOOTH",
"424 659 OFFCURVE",
"432 628 OFFCURVE",
"430 599 CURVE SMOOTH",
"420 447 LINE",
"381 463 OFFCURVE",
"335 473 OFFCURVE",
"295 473 CURVE SMOOTH",
"119 473 OFFCURVE",
"71 334 OFFCURVE",
"71 176 CURVE SMOOTH",
"71 9 OFFCURVE",
"144 -21 OFFCURVE",
"204 -21 CURVE SMOOTH"
);
},
{
closed = 1;
nodes = (
"181 65 OFFCURVE",
"159 80 OFFCURVE",
"159 173 CURVE SMOOTH",
"159 303 OFFCURVE",
"194 388 OFFCURVE",
"295 388 CURVE SMOOTH",
"347 388 OFFCURVE",
"384 374 OFFCURVE",
"413 355 CURVE",
"350 215 LINE SMOOTH",
"314 134 OFFCURVE",
"247 65 OFFCURVE",
"204 65 CURVE SMOOTH"
);
}
);
width = 620;
}
);
unicode = 0064;
},
{
color = -1;
glyphname = eth;
lastChange = "2016-02-12 12:36:05 +0000";
layers = (
{
background = {
paths = (
{
closed = 1;
nodes = (
"440 -21 OFFCURVE",
"536 108 OFFCURVE",
"536 242 CURVE SMOOTH",
"536 363 OFFCURVE",
"441 473 OFFCURVE",
"309 473 CURVE SMOOTH",
"179 473 OFFCURVE",
"61 354 OFFCURVE",
"61 220 CURVE SMOOTH",
"61 175 OFFCURVE",
"69 133 OFFCURVE",
"96 90 CURVE SMOOTH",
"130 33 OFFCURVE",
"186 -21 OFFCURVE",
"281 -21 CURVE SMOOTH"
);
},
{
closed = 1;
nodes = (
"217 64 OFFCURVE",
"149 135 OFFCURVE",
"149 220 CURVE SMOOTH",
"149 306 OFFCURVE",
"226 388 OFFCURVE",
"309 388 CURVE SMOOTH",
"398 388 OFFCURVE",
"448 299 OFFCURVE",
"448 242 CURVE SMOOTH",
"448 155 OFFCURVE",
"388 64 OFFCURVE",
"281 64 CURVE SMOOTH"
);
}
);
};
layerId = "D34FCF88-AF1D-4520-8FB0-498E26D42FBC";
paths = (
{
closed = 1;
nodes = (
"395 -21 OFFCURVE",
"536 78 OFFCURVE",
"536 300 CURVE SMOOTH",
"536 580 OFFCURVE",
"361 760 OFFCURVE",
"191 760 CURVE SMOOTH",
"142 760 OFFCURVE",
"79 743 OFFCURVE",
"79 705 CURVE SMOOTH",
"79 684 OFFCURVE",
"93 666 OFFCURVE",
"116 666 CURVE SMOOTH",
"140 666 OFFCURVE",
"155 675 OFFCURVE",
"191 675 CURVE SMOOTH",
"325 675 OFFCURVE",
"448 524 OFFCURVE",
"448 300 CURVE SMOOTH",
"448 133 OFFCURVE",
"360 64 OFFCURVE",
"281 64 CURVE SMOOTH",
"212 64 OFFCURVE",
"149 129 OFFCURVE",
"149 209 CURVE SMOOTH",
"149 291 OFFCURVE",
"207 355 OFFCURVE",
"269 355 CURVE SMOOTH",
"302 355 OFFCURVE",
"308 346 OFFCURVE",
"329 346 CURVE SMOOTH",
"350 346 OFFCURVE",
"362 364 OFFCURVE",
"362 382 CURVE SMOOTH",
"362 426 OFFCURVE",
"317 440 OFFCURVE",
"269 440 CURVE SMOOTH",
"158 440 OFFCURVE",
"61 325 OFFCURVE",
"61 209 CURVE SMOOTH",
"61 80 OFFCURVE",
"155 -21 OFFCURVE",
"281 -21 CURVE SMOOTH"
);
},
{
closed = 1;
nodes = (
"246 521 OFFCURVE",
"258 527 OFFCURVE",
"275 541 CURVE SMOOTH",
"353 605 LINE",
"396 639 LINE SMOOTH",
"428 664 OFFCURVE",
"468 695 OFFCURVE",
"468 716 CURVE SMOOTH",
"468 732 OFFCURVE",
"447 753 OFFCURVE",
"426 753 CURVE SMOOTH",
"412 753 OFFCURVE",
"403 747 OFFCURVE",
"384 729 CURVE SMOOTH",
"328 676 LINE",
"252 615 OFFCURVE",
"189 580 OFFCURVE",
"189 560 CURVE SMOOTH",
"189 540 OFFCURVE",
"213 521 OFFCURVE",
"231 521 CURVE"
);
}
);
width = 599;
}
);
unicode = 00F0;
},
{
color = -1;
glyphname = dcroat;
lastChange = "2016-02-12 12:36:05 +0000";
layers = (
{
layerId = "D34FCF88-AF1D-4520-8FB0-498E26D42FBC";
paths = (
{
closed = 1;
nodes = (
"282 -21 OFFCURVE",
"362 85 OFFCURVE",
"425 210 CURVE",
"403 222 LINE",
"418 117 LINE SMOOTH",
"432 9 OFFCURVE",
"476 -21 OFFCURVE",
"524 -21 CURVE SMOOTH",
"547 -21 OFFCURVE",
"570 0 OFFCURVE",
"570 27 CURVE SMOOTH",
"570 79 OFFCURVE",
"488 51 OFFCURVE",
"493 153 CURVE SMOOTH",
"503 397 LINE",
"514 550 LINE SMOOTH",
"518 608 OFFCURVE",
"531 660 OFFCURVE",
"531 712 CURVE SMOOTH",
"531 739 OFFCURVE",
"498 760 OFFCURVE",
"475 760 CURVE SMOOTH",
"445 760 OFFCURVE",
"424 738 OFFCURVE",
"424 688 CURVE SMOOTH",
"424 659 OFFCURVE",
"432 628 OFFCURVE",
"430 599 CURVE SMOOTH",
"420 447 LINE",
"381 463 OFFCURVE",
"335 473 OFFCURVE",
"295 473 CURVE SMOOTH",
"119 473 OFFCURVE",
"71 334 OFFCURVE",
"71 176 CURVE SMOOTH",
"71 9 OFFCURVE",
"144 -21 OFFCURVE",
"204 -21 CURVE SMOOTH"
);
},
{
closed = 1;
nodes = (
"181 65 OFFCURVE",
"159 80 OFFCURVE",
"159 173 CURVE SMOOTH",
"159 303 OFFCURVE",
"194 388 OFFCURVE",
"295 388 CURVE SMOOTH",
"347 388 OFFCURVE",
"384 374 OFFCURVE",
"413 355 CURVE",
"350 215 LINE SMOOTH",
"314 134 OFFCURVE",
"247 65 OFFCURVE",
"204 65 CURVE SMOOTH"
);
},
{
closed = 1;
nodes = (
"579 559 LINE SMOOTH",
"599 559 OFFCURVE",
"610 565 OFFCURVE",
"610 584 CURVE SMOOTH",
"610 611 OFFCURVE",
"594 636 OFFCURVE",
"575 636 CURVE SMOOTH",
"245 636 LINE SMOOTH",
"235 636 OFFCURVE",
"231 625 OFFCURVE",
"231 609 CURVE SMOOTH",
"231 593 OFFCURVE",
"244 559 OFFCURVE",
"264 559 CURVE"
);
}
);
width = 620;
}
);
unicode = 0111;
},
{
color = -1;
glyphname = e;
lastChange = "2016-02-12 12:36:05 +0000";
layers = (
{
anchors = (
{
name = bottom;
position = "{288, 0}";
},
{
name = top;
position = "{284, 450}";
}
);
background = {
paths = (
{
closed = 1;
nodes = (
"400 -20 OFFCURVE",
"481 53 OFFCURVE",
"481 108 CURVE SMOOTH",
"481 132 OFFCURVE",
"467 153 OFFCURVE",
"440 153 CURVE SMOOTH",
"388 153 OFFCURVE",
"391 64 OFFCURVE",
"281 64 CURVE SMOOTH",
"208 64 OFFCURVE",
"149 135 OFFCURVE",
"149 220 CURVE SMOOTH",
"149 306 OFFCURVE",
"211 388 OFFCURVE",
"289 388 CURVE SMOOTH",
"325 388 OFFCURVE",
"347 354 OFFCURVE",
"349 309 CURVE",
"349 309 OFFCURVE",
"423 357 OFFCURVE",
"423 357 CURVE",
"423 447 OFFCURVE",
"349 473 OFFCURVE",
"289 473 CURVE SMOOTH",
"163 473 OFFCURVE",
"61 354 OFFCURVE",
"61 220 CURVE SMOOTH",
"61 79 OFFCURVE",
"153 -22 OFFCURVE",
"281 -21 CURVE SMOOTH"
);
},
{
closed = 1;
nodes = (
"274 163 OFFCURVE",
"375 215 OFFCURVE",
"465 285 CURVE SMOOTH",
"509 320 OFFCURVE",
"551 368 OFFCURVE",
"551 403 CURVE SMOOTH",
"551 429 OFFCURVE",
"536 442 OFFCURVE",
"518 442 CURVE SMOOTH",
"495 442 OFFCURVE",
"487 424 OFFCURVE",
"467 403 CURVE SMOOTH",
"371 301 OFFCURVE",
"252 238 OFFCURVE",
"102 213 CURVE",
"102 213 OFFCURVE",
"143 138 OFFCURVE",
"143 138 CURVE"
);
}
);
};
layerId = "D34FCF88-AF1D-4520-8FB0-498E26D42FBC";
paths = (
{
closed = 1;
nodes = (
"351 388 OFFCURVE",
"371 363 OFFCURVE",
"371 338 CURVE SMOOTH",
"371 289 OFFCURVE",
"263 244 OFFCURVE",
"102 225 CURVE",
"143 149 LINE",
"338 177 OFFCURVE",
"473 241 OFFCURVE",
"473 338 CURVE SMOOTH",
"473 406 OFFCURVE",
"402 474 OFFCURVE",
"306 473 CURVE SMOOTH",
"216 472 OFFCURVE",
"139 426 OFFCURVE",
"139 382 CURVE SMOOTH",
"139 363 OFFCURVE",
"149 344 OFFCURVE",
"170 344 CURVE SMOOTH",
"223 344 OFFCURVE",
"228 388 OFFCURVE",
"306 388 CURVE"
);
},
{
closed = 1;
nodes = (
"61 79 OFFCURVE",
"152 -22 OFFCURVE",
"288 -21 CURVE SMOOTH",
"406 -20 OFFCURVE",
"492 58 OFFCURVE",
"492 108 CURVE SMOOTH",
"492 132 OFFCURVE",
"478 153 OFFCURVE",
"451 153 CURVE SMOOTH",
"401 153 OFFCURVE",
"401 64 OFFCURVE",
"288 64 CURVE SMOOTH",
"207 64 OFFCURVE",
"149 127 OFFCURVE",
"149 220 CURVE SMOOTH",
"149 273 OFFCURVE",
"170 296 OFFCURVE",
"170 319 CURVE SMOOTH",
"170 346 OFFCURVE",
"149 359 OFFCURVE",
"127 359 CURVE SMOOTH",
"88 359 OFFCURVE",
"62 291 OFFCURVE",
"61 220 CURVE"
);
}
);
width = 547;
}
);
unicode = 0065;
},
{
color = -1;
glyphname = f;
lastChange = "2016-02-12 12:36:05 +0000";
layers = (
{
background = {
paths = (
{
closed = 1;
nodes = (
"212 265 OFFCURVE",
"232 357 OFFCURVE",
"232 403 CURVE SMOOTH",
"232 581 LINE SMOOTH",
"232 641 OFFCURVE",
"263 680 OFFCURVE",
"323 680 CURVE SMOOTH",
"388 680 OFFCURVE",
"408 605 OFFCURVE",
"456 605 CURVE SMOOTH",
"481 605 OFFCURVE",
"505 624 OFFCURVE",
"505 653 CURVE SMOOTH",
"505 681 OFFCURVE",
"473 716 OFFCURVE",
"427 737 CURVE SMOOTH",
"397 750 OFFCURVE",
"357 760 OFFCURVE",
"323 760 CURVE SMOOTH",
"222 760 OFFCURVE",
"147 699 OFFCURVE",
"147 581 CURVE SMOOTH",
"147 403 LINE SMOOTH",
"147 365 OFFCURVE",
"137 351 OFFCURVE",
"119 351 CURVE SMOOTH",
"102 351 OFFCURVE",
"97 356 OFFCURVE",
"79 356 CURVE SMOOTH",
"61 356 OFFCURVE",
"41 345 OFFCURVE",
"41 315 CURVE SMOOTH",
"41 280 OFFCURVE",
"81 265 OFFCURVE",
"118 265 CURVE SMOOTH"
);
}
);
};
layerId = "D34FCF88-AF1D-4520-8FB0-498E26D42FBC";
paths = (
{
closed = 1;
nodes = (
"221 358 OFFCURVE",
"283 364 OFFCURVE",
"354 376 CURVE SMOOTH",
"365 378 OFFCURVE",
"373 386 OFFCURVE",
"373 401 CURVE SMOOTH",
"373 427 OFFCURVE",
"361 450 OFFCURVE",
"344 450 CURVE SMOOTH",
"24 450 LINE SMOOTH",
"14 450 OFFCURVE",
"10 441 OFFCURVE",
"10 429 CURVE SMOOTH",
"10 413 OFFCURVE",
"18 387 OFFCURVE",
"32 382 CURVE SMOOTH",
"80 364 OFFCURVE",
"133 358 OFFCURVE",
"167 358 CURVE"
);
},
{
closed = 1;
nodes = (
"181 -263 OFFCURVE",
"198 -234 OFFCURVE",
"198 -209 CURVE SMOOTH",
"198 -111 OFFCURVE",
"212 7 OFFCURVE",
"212 105 CURVE SMOOTH",
"213 416 LINE SMOOTH",
"215 616 OFFCURVE",
"247 675 OFFCURVE",
"327 675 CURVE SMOOTH",
"367 675 OFFCURVE",
"378 659 OFFCURVE",
"403 659 CURVE SMOOTH",
"427 659 OFFCURVE",
"439 677 OFFCURVE",
"439 698 CURVE SMOOTH",
"439 723 OFFCURVE",
"422 737 OFFCURVE",
"400 745 CURVE SMOOTH",
"380 753 OFFCURVE",
"355 760 OFFCURVE",
"327 760 CURVE",
"267 760 OFFCURVE",
"228 742 OFFCURVE",
"199 717 CURVE SMOOTH",
"131 656 OFFCURVE",
"114 524 OFFCURVE",
"117 416 CURVE SMOOTH",
"127 105 LINE SMOOTH",
"129 25 OFFCURVE",
"97 -125 OFFCURVE",
"97 -194 CURVE SMOOTH",
"97 -227 OFFCURVE",
"143 -263 OFFCURVE",
"165 -263 CURVE SMOOTH"
);
}
);
width = 383;
}
);
unicode = 0066;
},
{
color = -1;
glyphname = g;
lastChange = "2016-02-12 12:36:05 +0000";
layers = (
{
anchors = (
{
name = top;
position = "{254, 450}";
}
);
background = {
anchors = (
{
name = top;
position = "{303, 450}";
}
);
paths = (
{
closed = 1;
nodes = (
"344 150 OFFCURVE",
"420 211 OFFCURVE",
"420 312 CURVE SMOOTH",
"420 413 OFFCURVE",
"355 473 OFFCURVE",
"243 473 CURVE SMOOTH",
"201 473 OFFCURVE",
"182 469 OFFCURVE",
"158 462 CURVE SMOOTH",
"103 447 OFFCURVE",
"77 382 OFFCURVE",
"77 312 CURVE SMOOTH",
"77 211 OFFCURVE",
"149 150 OFFCURVE",
"243 150 CURVE SMOOTH"
);
},
{
closed = 1;
nodes = (
"194 236 OFFCURVE",
"165 270 OFFCURVE",
"165 312 CURVE SMOOTH",
"165 338 OFFCURVE",
"174 362 OFFCURVE",
"191 379 CURVE SMOOTH",
"202 390 OFFCURVE",
"228 388 OFFCURVE",
"254 388 CURVE SMOOTH",
"281 388 OFFCURVE",
"303 380 OFFCURVE",
"319 367 CURVE SMOOTH",
"331 357 OFFCURVE",
"333 334 OFFCURVE",
"333 312 CURVE SMOOTH",
"333 270 OFFCURVE",
"300 236 OFFCURVE",
"243 236 CURVE SMOOTH"
);
},
{
closed = 1;
nodes = (
"66 0 OFFCURVE",
"134 -25 OFFCURVE",
"229 -25 CURVE SMOOTH",
"310 -25 LINE SMOOTH",
"357 -25 OFFCURVE",
"396 -29 OFFCURVE",
"396 -77 CURVE SMOOTH",
"396 -139 OFFCURVE",
"310 -185 OFFCURVE",
"230 -185 CURVE SMOOTH",
"184 -185 OFFCURVE",
"161 -171 OFFCURVE",
"149 -154 CURVE SMOOTH",
"126 -121 OFFCURVE",
"136 -71 OFFCURVE",
"98 -71 CURVE SMOOTH",
"77 -71 OFFCURVE",
"46 -98 OFFCURVE",
"46 -146 CURVE SMOOTH",
"46 -171 OFFCURVE",
"60 -199 OFFCURVE",
"86 -220 CURVE SMOOTH",
"119 -247 OFFCURVE",
"175 -263 OFFCURVE",
"230 -263 CURVE SMOOTH",
"366 -263 OFFCURVE",
"483 -191 OFFCURVE",
"483 -77 CURVE SMOOTH",
"483 42 OFFCURVE",
"407 62 OFFCURVE",
"310 62 CURVE SMOOTH",
"229 62 LINE SMOOTH",
"174 62 OFFCURVE",
"154 70 OFFCURVE",
"154 88 CURVE SMOOTH",
"154 113 OFFCURVE",
"188 147 OFFCURVE",
"233 173 CURVE",
"171 215 LINE",
"98 164 OFFCURVE",
"66 118 OFFCURVE",
"66 72 CURVE SMOOTH"
);
},
{
closed = 1;
nodes = (
"408 380 OFFCURVE",
"501 396 OFFCURVE",
"501 442 CURVE SMOOTH",
"501 476 OFFCURVE",
"478 487 OFFCURVE",
"458 487 CURVE SMOOTH",
"434 487 OFFCURVE",
"408 462 OFFCURVE",
"363 462 CURVE SMOOTH",
"346 462 OFFCURVE",
"320 463 OFFCURVE",
"294 468 CURVE",
"341 380 LINE"
);
}
);
};
layerId = "D34FCF88-AF1D-4520-8FB0-498E26D42FBC";
paths = (
{
closed = 1;
nodes = (
"345 150 OFFCURVE",
"421 211 OFFCURVE",
"421 312 CURVE SMOOTH",
"421 410 OFFCURVE",
"356 473 OFFCURVE",
"243 473 CURVE SMOOTH",
"201 473 OFFCURVE",
"182 469 OFFCURVE",
"158 462 CURVE SMOOTH",
"103 447 OFFCURVE",
"77 382 OFFCURVE",
"77 312 CURVE SMOOTH",
"77 211 OFFCURVE",
"149 150 OFFCURVE",
"243 150 CURVE SMOOTH"
);
},
{
closed = 1;
nodes = (
"194 235 OFFCURVE",
"165 269 OFFCURVE",
"165 312 CURVE SMOOTH",
"165 338 OFFCURVE",
"174 363 OFFCURVE",
"192 379 CURVE SMOOTH",
"200 386 OFFCURVE",
"217 388 OFFCURVE",
"243 388 CURVE SMOOTH",
"283 388 OFFCURVE",
"303 380 OFFCURVE",
"319 367 CURVE SMOOTH",
"331 357 OFFCURVE",
"333 334 OFFCURVE",
"333 312 CURVE SMOOTH",
"333 269 OFFCURVE",
"300 235 OFFCURVE",
"243 235 CURVE SMOOTH"
);
},
{
closed = 1;
nodes = (
"66 0 OFFCURVE",
"134 -25 OFFCURVE",
"229 -25 CURVE SMOOTH",
"310 -25 LINE SMOOTH",
"357 -25 OFFCURVE",
"396 -29 OFFCURVE",
"396 -77 CURVE SMOOTH",
"396 -139 OFFCURVE",
"310 -185 OFFCURVE",
"230 -185 CURVE SMOOTH",
"184 -185 OFFCURVE",
"161 -171 OFFCURVE",
"149 -154 CURVE SMOOTH",
"126 -121 OFFCURVE",
"136 -71 OFFCURVE",
"98 -71 CURVE SMOOTH",
"77 -71 OFFCURVE",
"46 -98 OFFCURVE",
"46 -146 CURVE SMOOTH",
"46 -171 OFFCURVE",
"60 -199 OFFCURVE",
"86 -220 CURVE SMOOTH",
"119 -247 OFFCURVE",
"175 -263 OFFCURVE",
"230 -263 CURVE SMOOTH",
"366 -263 OFFCURVE",
"483 -191 OFFCURVE",
"483 -77 CURVE SMOOTH",
"483 42 OFFCURVE",
"407 62 OFFCURVE",
"310 62 CURVE SMOOTH",
"229 62 LINE SMOOTH",
"174 62 OFFCURVE",
"154 70 OFFCURVE",
"154 88 CURVE SMOOTH",
"154 113 OFFCURVE",
"188 147 OFFCURVE",
"233 173 CURVE",
"171 215 LINE",
"98 164 OFFCURVE",
"66 118 OFFCURVE",
"66 72 CURVE SMOOTH"
);
},
{
closed = 1;
nodes = (
"408 380 OFFCURVE",
"501 396 OFFCURVE",
"501 442 CURVE SMOOTH",
"501 476 OFFCURVE",
"478 487 OFFCURVE",
"458 487 CURVE SMOOTH",
"434 487 OFFCURVE",
"408 462 OFFCURVE",
"363 462 CURVE SMOOTH",
"346 462 OFFCURVE",
"320 463 OFFCURVE",
"294 468 CURVE",
"341 380 LINE"
);
}
);
width = 517;
}
);
unicode = 0067;
},
{
color = -1;
glyphname = h;
lastChange = "2016-02-12 12:36:05 +0000";
layers = (
{
background = {
paths = (
{
closed = 1;
nodes = (
"241 -21 OFFCURVE",
"299 388 OFFCURVE",
"396 388 CURVE SMOOTH",
"419 388 OFFCURVE",
"432 354 OFFCURVE",
"432 311 CURVE SMOOTH",
"432 116 LINE SMOOTH",
"432 22 OFFCURVE",
"472 -21 OFFCURVE",
"540 -21 CURVE SMOOTH",
"578 -21 OFFCURVE",
"618 -7 OFFCURVE",
"618 29 CURVE",
"618 55 OFFCURVE",
"602 69 OFFCURVE",
"585 69 CURVE",
"568 69 OFFCURVE",
"563 64 OFFCURVE",
"545 64 CURVE SMOOTH",
"527 64 OFFCURVE",
"517 79 OFFCURVE",
"517 116 CURVE SMOOTH",
"517 311 LINE SMOOTH",
"517 431 OFFCURVE",
"454 473 OFFCURVE",
"396 473 CURVE SMOOTH",
"292 473 OFFCURVE",
"219 263 OFFCURVE",
"189 146 CURVE",
"189 146 OFFCURVE",
"200 149 OFFCURVE",
"200 149 CURVE",
"194 356 OFFCURVE",
"146 473 OFFCURVE",
"85 473 CURVE SMOOTH",
"62 473 OFFCURVE",
"38 452 OFFCURVE",
"38 426 CURVE SMOOTH",
"38 374 OFFCURVE",
"118 305 OFFCURVE",
"118 228 CURVE SMOOTH",
"118 115 LINE SMOOTH",
"118 61 OFFCURVE",
"114 59 OFFCURVE",
"114 30 CURVE SMOOTH",
"114 -3 OFFCURVE",
"133 -21 OFFCURVE",
"157 -21 CURVE SMOOTH"
);
}
);
};
layerId = "D34FCF88-AF1D-4520-8FB0-498E26D42FBC";
paths = (
{
closed = 1;
nodes = (
"241 -21 OFFCURVE",
"299 388 OFFCURVE",
"396 388 CURVE SMOOTH",
"419 388 OFFCURVE",
"432 353 OFFCURVE",
"432 311 CURVE SMOOTH",
"432 94 LINE SMOOTH",
"432 15 OFFCURVE",
"467 -21 OFFCURVE",
"529 -21 CURVE SMOOTH",
"561 -21 OFFCURVE",
"596 -4 OFFCURVE",
"596 29 CURVE SMOOTH",
"596 55 OFFCURVE",
"580 69 OFFCURVE",
"563 69 CURVE SMOOTH",
"550 69 OFFCURVE",
"547 64 OFFCURVE",
"534 64 CURVE SMOOTH",
"523 64 OFFCURVE",
"517 72 OFFCURVE",
"517 94 CURVE SMOOTH",
"517 311 LINE SMOOTH",
"517 431 OFFCURVE",
"454 473 OFFCURVE",
"396 473 CURVE SMOOTH",
"292 473 OFFCURVE",
"219 263 OFFCURVE",
"189 146 CURVE",
"189 146 OFFCURVE",
"200 149 OFFCURVE",
"200 149 CURVE",
"202 326 LINE SMOOTH",
"202 368 OFFCURVE",
"192 486 OFFCURVE",
"192 539 CURVE SMOOTH",
"192 607 OFFCURVE",
"210 660 OFFCURVE",
"210 712 CURVE SMOOTH",
"210 739 OFFCURVE",
"187 760 OFFCURVE",
"163 760 CURVE SMOOTH",
"133 760 OFFCURVE",
"112 738 OFFCURVE",
"112 688 CURVE SMOOTH",
"112 659 OFFCURVE",
"104 549 OFFCURVE",
"104 526 CURVE",
"104 469 OFFCURVE",
"118 347 OFFCURVE",
"118 289 CURVE SMOOTH",
"118 115 LINE",
"118 61 OFFCURVE",
"114 59 OFFCURVE",
"114 30 CURVE SMOOTH",
"114 -3 OFFCURVE",
"133 -21 OFFCURVE",
"157 -21 CURVE SMOOTH"
);
}
);
width = 634;
}
);
unicode = 0068;
},
{
color = -1;
glyphname = hbar;
lastChange = "2016-02-12 12:36:05 +0000";
layers = (
{
layerId = "D34FCF88-AF1D-4520-8FB0-498E26D42FBC";
paths = (
{
closed = 1;
nodes = (
"246 -21 OFFCURVE",
"304 388 OFFCURVE",
"401 388 CURVE SMOOTH",
"424 388 OFFCURVE",
"437 353 OFFCURVE",
"437 311 CURVE SMOOTH",
"437 94 LINE SMOOTH",
"437 15 OFFCURVE",
"472 -21 OFFCURVE",
"534 -21 CURVE SMOOTH",
"566 -21 OFFCURVE",
"601 -4 OFFCURVE",
"601 29 CURVE SMOOTH",
"601 55 OFFCURVE",
"585 69 OFFCURVE",
"568 69 CURVE SMOOTH",
"555 69 OFFCURVE",
"552 64 OFFCURVE",
"539 64 CURVE SMOOTH",
"528 64 OFFCURVE",
"522 72 OFFCURVE",
"522 94 CURVE SMOOTH",
"522 311 LINE SMOOTH",
"522 431 OFFCURVE",
"459 473 OFFCURVE",
"401 473 CURVE SMOOTH",
"297 473 OFFCURVE",
"224 263 OFFCURVE",
"194 146 CURVE",
"194 146 OFFCURVE",
"205 149 OFFCURVE",
"205 149 CURVE",
"207 326 LINE SMOOTH",
"207 368 OFFCURVE",
"197 486 OFFCURVE",
"197 539 CURVE SMOOTH",
"197 607 OFFCURVE",
"215 660 OFFCURVE",
"215 712 CURVE SMOOTH",
"215 739 OFFCURVE",
"192 760 OFFCURVE",
"168 760 CURVE SMOOTH",
"138 760 OFFCURVE",
"117 738 OFFCURVE",
"117 688 CURVE SMOOTH",
"117 659 OFFCURVE",
"109 549 OFFCURVE",
"109 526 CURVE",
"109 469 OFFCURVE",
"123 347 OFFCURVE",
"123 289 CURVE SMOOTH",
"123 115 LINE",
"123 61 OFFCURVE",
"119 59 OFFCURVE",
"119 30 CURVE SMOOTH",
"119 -3 OFFCURVE",
"138 -21 OFFCURVE",
"162 -21 CURVE SMOOTH"
);
},
{
closed = 1;
nodes = (
"358 559 LINE SMOOTH",
"378 559 OFFCURVE",
"389 565 OFFCURVE",
"389 584 CURVE SMOOTH",
"389 611 OFFCURVE",
"374 636 OFFCURVE",
"354 636 CURVE SMOOTH",
"24 636 LINE SMOOTH",
"14 636 OFFCURVE",
"10 625 OFFCURVE",
"10 609 CURVE SMOOTH",
"10 593 OFFCURVE",
"23 559 OFFCURVE",
"43 559 CURVE"
);
}
);
width = 639;
}
);
unicode = 0127;
},
{
color = -1;
glyphname = i;
lastChange = "2016-02-12 12:36:05 +0000";
layers = (
{
background = {
paths = (
{
closed = 1;
nodes = (
"242 -21 OFFCURVE",
"288 7 OFFCURVE",
"288 40 CURVE SMOOTH",
"288 66 OFFCURVE",
"272 80 OFFCURVE",
"254 80 CURVE SMOOTH",
"231 80 OFFCURVE",
"223 64 OFFCURVE",
"204 64 CURVE SMOOTH",
"186 64 OFFCURVE",
"176 82 OFFCURVE",
"176 111 CURVE SMOOTH",
"176 263 LINE SMOOTH",
"176 332 OFFCURVE",
"194 374 OFFCURVE",
"194 426 CURVE SMOOTH",
"194 452 OFFCURVE",
"159 473 OFFCURVE",
"136 473 CURVE SMOOTH",
"106 473 OFFCURVE",
"85 451 OFFCURVE",
"85 401 CURVE SMOOTH",
"85 373 OFFCURVE",
"91 335 OFFCURVE",
"91 313 CURVE SMOOTH",
"91 111 LINE SMOOTH",
"91 10 OFFCURVE",
"142 -21 OFFCURVE",
"199 -21 CURVE SMOOTH"
);
},
{
closed = 1;
nodes = (
"184 599 OFFCURVE",
"213 643 OFFCURVE",
"213 666 CURVE SMOOTH",
"213 711 OFFCURVE",
"163 748 OFFCURVE",
"132 748 CURVE SMOOTH",
"106 748 OFFCURVE",
"76 705 OFFCURVE",
"76 681 CURVE SMOOTH",
"76 636 OFFCURVE",
"127 599 OFFCURVE",
"158 599 CURVE"
);
}
);
};
layerId = "D34FCF88-AF1D-4520-8FB0-498E26D42FBC";
paths = (
{
closed = 1;
nodes = (
"242 -21 OFFCURVE",
"288 7 OFFCURVE",
"288 40 CURVE SMOOTH",
"288 66 OFFCURVE",
"272 80 OFFCURVE",
"254 80 CURVE SMOOTH",
"231 80 OFFCURVE",
"223 64 OFFCURVE",
"204 64 CURVE SMOOTH",
"186 64 OFFCURVE",
"176 82 OFFCURVE",
"176 111 CURVE SMOOTH",
"176 263 LINE SMOOTH",
"176 332 OFFCURVE",
"194 374 OFFCURVE",
"194 426 CURVE SMOOTH",
"194 452 OFFCURVE",
"159 473 OFFCURVE",
"136 473 CURVE SMOOTH",
"106 473 OFFCURVE",
"85 451 OFFCURVE",
"85 401 CURVE SMOOTH",
"85 373 OFFCURVE",
"91 335 OFFCURVE",
"91 313 CURVE SMOOTH",
"91 111 LINE SMOOTH",
"91 10 OFFCURVE",
"142 -21 OFFCURVE",
"199 -21 CURVE SMOOTH"
);
},
{
closed = 1;
nodes = (
"184 599 OFFCURVE",
"213 643 OFFCURVE",
"213 666 CURVE SMOOTH",
"213 711 OFFCURVE",
"163 748 OFFCURVE",
"132 748 CURVE SMOOTH",
"106 748 OFFCURVE",
"76 705 OFFCURVE",
"76 681 CURVE SMOOTH",
"76 636 OFFCURVE",
"127 599 OFFCURVE",
"158 599 CURVE"
);
}
);
width = 302;
}
);
unicode = 0069;
},
{
color = -1;
glyphname = idotless;
lastChange = "2016-02-12 12:36:05 +0000";
layers = (
{
anchors = (
{
name = top;
position = "{136, 450}";
}
);
background = {
paths = (
{
closed = 1;
nodes = (
"176 111 LINE SMOOTH",
"176 82 OFFCURVE",
"186 64 OFFCURVE",
"204 64 CURVE SMOOTH",
"223 64 OFFCURVE",
"231 80 OFFCURVE",
"254 80 CURVE SMOOTH",
"272 80 OFFCURVE",
"288 66 OFFCURVE",
"288 40 CURVE SMOOTH",
"288 7 OFFCURVE",
"242 -21 OFFCURVE",
"199 -21 CURVE SMOOTH",
"142 -21 OFFCURVE",
"91 10 OFFCURVE",
"91 111 CURVE SMOOTH",
"91 313 LINE SMOOTH",
"91 335 OFFCURVE",
"85 373 OFFCURVE",
"85 401 CURVE SMOOTH",
"85 451 OFFCURVE",
"106 473 OFFCURVE",
"136 473 CURVE SMOOTH",
"159 473 OFFCURVE",
"194 452 OFFCURVE",
"194 426 CURVE SMOOTH",
"194 374 OFFCURVE",
"176 332 OFFCURVE",
"176 263 CURVE SMOOTH"
);
},
{
closed = 1;
nodes = (
"76 681 CURVE SMOOTH",
"76 636 OFFCURVE",
"127 599 OFFCURVE",
"158 599 CURVE",
"184 599 OFFCURVE",
"213 643 OFFCURVE",
"213 666 CURVE SMOOTH",
"213 711 OFFCURVE",
"163 748 OFFCURVE",
"132 748 CURVE SMOOTH",
"106 748 OFFCURVE",
"76 705 OFFCURVE"
);
}
);
};
layerId = "D34FCF88-AF1D-4520-8FB0-498E26D42FBC";
paths = (
{
closed = 1;
nodes = (
"242 -21 OFFCURVE",
"288 7 OFFCURVE",
"288 40 CURVE SMOOTH",
"288 66 OFFCURVE",
"272 80 OFFCURVE",
"254 80 CURVE SMOOTH",
"231 80 OFFCURVE",
"223 64 OFFCURVE",
"204 64 CURVE SMOOTH",
"186 64 OFFCURVE",
"176 82 OFFCURVE",
"176 111 CURVE SMOOTH",
"176 263 LINE SMOOTH",
"176 332 OFFCURVE",
"194 374 OFFCURVE",
"194 426 CURVE SMOOTH",
"194 452 OFFCURVE",
"159 473 OFFCURVE",
"136 473 CURVE SMOOTH",
"106 473 OFFCURVE",
"85 451 OFFCURVE",
"85 401 CURVE SMOOTH",
"85 373 OFFCURVE",
"91 335 OFFCURVE",
"91 313 CURVE SMOOTH",
"91 111 LINE SMOOTH",
"91 10 OFFCURVE",
"142 -21 OFFCURVE",
"199 -21 CURVE SMOOTH"
);
}
);
width = 302;
}
);
unicode = 0131;
},
{
color = -1;
glyphname = idieresis;
lastChange = "2016-02-12 12:36:05 +0000";
layers = (
{
anchors = (
{
name = _top;
position = "{136, 450}";
},
{
name = top;
position = "{136, 450}";
}
);
background = {
paths = (
{
closed = 1;
nodes = (
"242 -21 OFFCURVE",
"288 7 OFFCURVE",
"288 40 CURVE SMOOTH",
"288 66 OFFCURVE",
"272 80 OFFCURVE",
"254 80 CURVE SMOOTH",
"231 80 OFFCURVE",
"223 64 OFFCURVE",
"204 64 CURVE SMOOTH",
"186 64 OFFCURVE",
"176 82 OFFCURVE",
"176 111 CURVE SMOOTH",
"176 263 LINE SMOOTH",
"176 332 OFFCURVE",
"194 374 OFFCURVE",
"194 426 CURVE SMOOTH",
"194 452 OFFCURVE",
"159 473 OFFCURVE",
"136 473 CURVE SMOOTH",
"106 473 OFFCURVE",
"85 451 OFFCURVE",
"85 401 CURVE SMOOTH",
"85 373 OFFCURVE",
"91 335 OFFCURVE",
"91 313 CURVE SMOOTH",
"91 111 LINE SMOOTH",
"91 10 OFFCURVE",
"142 -21 OFFCURVE",
"199 -21 CURVE SMOOTH"
);
},
{
closed = 1;
nodes = (
"64 599 OFFCURVE",
"94 643 OFFCURVE",
"94 666 CURVE SMOOTH",
"94 711 OFFCURVE",
"43 748 OFFCURVE",
"12 748 CURVE SMOOTH",
"-13 748 OFFCURVE",
"-43 705 OFFCURVE",
"-43 681 CURVE SMOOTH",
"-43 636 OFFCURVE",
"8 599 OFFCURVE",
"39 599 CURVE SMOOTH"
);
},
{
closed = 1;
nodes = (
"285 599 OFFCURVE",
"315 643 OFFCURVE",
"315 666 CURVE SMOOTH",
"315 711 OFFCURVE",
"264 748 OFFCURVE",
"233 748 CURVE SMOOTH",
"208 748 OFFCURVE",
"178 705 OFFCURVE",
"178 681 CURVE SMOOTH",
"178 636 OFFCURVE",
"229 599 OFFCURVE",
"260 599 CURVE SMOOTH"
);
}
);
};
layerId = "D34FCF88-AF1D-4520-8FB0-498E26D42FBC";
paths = (
{
closed = 1;
nodes = (
"242 -21 OFFCURVE",
"288 7 OFFCURVE",
"288 40 CURVE SMOOTH",
"288 66 OFFCURVE",
"272 80 OFFCURVE",
"254 80 CURVE SMOOTH",
"231 80 OFFCURVE",
"223 64 OFFCURVE",
"204 64 CURVE SMOOTH",
"186 64 OFFCURVE",
"176 82 OFFCURVE",
"176 111 CURVE SMOOTH",
"176 263 LINE SMOOTH",
"176 332 OFFCURVE",
"194 374 OFFCURVE",
"194 426 CURVE SMOOTH",
"194 452 OFFCURVE",
"159 473 OFFCURVE",
"136 473 CURVE SMOOTH",
"106 473 OFFCURVE",
"85 451 OFFCURVE",
"85 401 CURVE SMOOTH",
"85 373 OFFCURVE",
"91 335 OFFCURVE",
"91 313 CURVE SMOOTH",
"91 111 LINE SMOOTH",
"91 10 OFFCURVE",
"142 -21 OFFCURVE",
"199 -21 CURVE SMOOTH"
);
},
{
closed = 1;
nodes = (
"81 599 OFFCURVE",
"111 643 OFFCURVE",
"111 666 CURVE SMOOTH",
"111 711 OFFCURVE",
"60 748 OFFCURVE",
"29 748 CURVE SMOOTH",
"3 748 OFFCURVE",
"-27 705 OFFCURVE",
"-27 681 CURVE SMOOTH",
"-27 636 OFFCURVE",
"24 599 OFFCURVE",
"55 599 CURVE SMOOTH"
);
},
{
closed = 1;
nodes = (
"269 599 OFFCURVE",
"299 643 OFFCURVE",
"299 666 CURVE SMOOTH",
"299 711 OFFCURVE",
"248 748 OFFCURVE",
"217 748 CURVE SMOOTH",
"191 748 OFFCURVE",
"161 705 OFFCURVE",
"161 681 CURVE SMOOTH",
"161 636 OFFCURVE",
"212 599 OFFCURVE",
"243 599 CURVE SMOOTH"
);
}
);
width = 302;
}
);
unicode = 00EF;
},
{
color = -1;
glyphname = j;
lastChange = "2016-02-12 12:36:05 +0000";
layers = (
{
background = {
paths = (
{
closed = 1;
nodes = (
"229 -21 OFFCURVE",
"275 7 OFFCURVE",
"275 40 CURVE SMOOTH",
"275 66 OFFCURVE",
"259 80 OFFCURVE",
"241 80 CURVE SMOOTH",
"218 80 OFFCURVE",
"210 64 OFFCURVE",
"191 64 CURVE SMOOTH",
"173 64 OFFCURVE",
"163 82 OFFCURVE",
"163 111 CURVE SMOOTH",
"163 263 LINE SMOOTH",
"163 332 OFFCURVE",
"181 374 OFFCURVE",
"181 426 CURVE SMOOTH",
"181 452 OFFCURVE",
"146 473 OFFCURVE",
"123 473 CURVE SMOOTH",
"93 473 OFFCURVE",
"72 451 OFFCURVE",
"72 401 CURVE SMOOTH",
"72 373 OFFCURVE",
"78 335 OFFCURVE",
"78 313 CURVE SMOOTH",
"78 111 LINE SMOOTH",
"78 10 OFFCURVE",
"129 -21 OFFCURVE",
"186 -21 CURVE SMOOTH"
);
},
{
closed = 1;
nodes = (
"171 599 OFFCURVE",
"200 643 OFFCURVE",
"200 666 CURVE SMOOTH",
"200 711 OFFCURVE",
"150 748 OFFCURVE",
"119 748 CURVE SMOOTH",
"93 748 OFFCURVE",
"63 705 OFFCURVE",
"63 681 CURVE SMOOTH",
"63 636 OFFCURVE",
"114 599 OFFCURVE",
"145 599 CURVE"
);
}
);
};
layerId = "D34FCF88-AF1D-4520-8FB0-498E26D42FBC";
paths = (
{
closed = 1;
nodes = (
"41 -244 OFFCURVE",
"68 -227 OFFCURVE",
"91 -206 CURVE SMOOTH",
"139 -163 OFFCURVE",
"175 -112 OFFCURVE",
"178 -17 CURVE SMOOTH",
"188 263 LINE SMOOTH",
"191 332 OFFCURVE",
"206 374 OFFCURVE",
"206 426 CURVE SMOOTH",
"206 452 OFFCURVE",
"172 473 OFFCURVE",
"148 473 CURVE SMOOTH",
"119 473 OFFCURVE",
"98 451 OFFCURVE",
"98 401 CURVE SMOOTH",
"98 373 OFFCURVE",
"104 335 OFFCURVE",
"103 313 CURVE SMOOTH",
"93 -17 LINE SMOOTH",
"91 -87 OFFCURVE",
"68 -116 OFFCURVE",
"8 -146 CURVE SMOOTH",
"-17 -158 OFFCURVE",
"-44 -166 OFFCURVE",
"-44 -196 CURVE SMOOTH",
"-44 -217 OFFCURVE",
"-17 -244 OFFCURVE",
"15 -244 CURVE SMOOTH"
);
},
{
closed = 1;
nodes = (
"115 748 OFFCURVE",
"85 705 OFFCURVE",
"85 681 CURVE SMOOTH",
"85 636 OFFCURVE",
"136 599 OFFCURVE",
"167 599 CURVE",
"193 599 OFFCURVE",
"223 643 OFFCURVE",
"223 666 CURVE SMOOTH",
"223 711 OFFCURVE",
"172 748 OFFCURVE",
"141 748 CURVE SMOOTH"
);
}
);
width = 283;
}
);
unicode = 006A;
},
{
color = -1;
glyphname = jdotless;
lastChange = "2016-02-12 12:36:05 +0000";
layers = (
{
anchors = (
{
name = top;
position = "{148, 450}";
}
);
layerId = "D34FCF88-AF1D-4520-8FB0-498E26D42FBC";
paths = (
{
closed = 1;
nodes = (
"41 -244 OFFCURVE",
"68 -227 OFFCURVE",
"91 -206 CURVE SMOOTH",
"139 -163 OFFCURVE",
"175 -112 OFFCURVE",
"178 -17 CURVE SMOOTH",
"188 263 LINE SMOOTH",
"191 332 OFFCURVE",
"206 374 OFFCURVE",
"206 426 CURVE SMOOTH",
"206 452 OFFCURVE",
"172 473 OFFCURVE",
"148 473 CURVE SMOOTH",
"119 473 OFFCURVE",
"98 451 OFFCURVE",
"98 401 CURVE SMOOTH",
"98 373 OFFCURVE",
"104 335 OFFCURVE",
"103 313 CURVE SMOOTH",
"93 -17 LINE SMOOTH",
"91 -87 OFFCURVE",
"68 -116 OFFCURVE",
"8 -146 CURVE SMOOTH",
"-17 -158 OFFCURVE",
"-44 -166 OFFCURVE",
"-44 -196 CURVE SMOOTH",
"-44 -217 OFFCURVE",
"-17 -244 OFFCURVE",
"15 -244 CURVE SMOOTH"
);
}
);
width = 283;
}
);
unicode = 0237;
},
{
color = -1;
glyphname = k;
lastChange = "2016-02-12 12:36:05 +0000";
layers = (
{
anchors = (
{
name = bottom;
position = "{305, 0}";
}
);
background = {
paths = (
{
closed = 1;
nodes = (
"179 -21 OFFCURVE",
"200 1 OFFCURVE",
"200 51 CURVE SMOOTH",
"200 80 OFFCURVE",
"195 117 OFFCURVE",
"195 139 CURVE SMOOTH",
"194 550 LINE SMOOTH",
"194 618 OFFCURVE",
"211 660 OFFCURVE",
"211 712 CURVE SMOOTH",
"211 739 OFFCURVE",
"177 760 OFFCURVE",
"154 760 CURVE SMOOTH",
"124 760 OFFCURVE",
"103 738 OFFCURVE",
"103 688 CURVE SMOOTH",
"103 659 OFFCURVE",
"108 622 OFFCURVE",
"108 599 CURVE SMOOTH",
"109 189 LINE SMOOTH",
"109 121 OFFCURVE",
"92 79 OFFCURVE",
"92 27 CURVE SMOOTH",
"92 0 OFFCURVE",
"126 -21 OFFCURVE",
"149 -21 CURVE SMOOTH"
);
},
{
closed = 1;
nodes = (
"522 -21 OFFCURVE",
"545 -4 OFFCURVE",
"545 13 CURVE SMOOTH",
"545 35 OFFCURVE",
"505 64 OFFCURVE",
"459 102 CURVE SMOOTH",
"411 140 LINE SMOOTH",
"387 160 OFFCURVE",
"346 188 OFFCURVE",
"311 204 CURVE",
"337 181 LINE",
"384 230 LINE SMOOTH",
"452 302 OFFCURVE",
"489 356 OFFCURVE",
"489 420 CURVE SMOOTH",
"489 453 OFFCURVE",
"471 473 OFFCURVE",
"442 473 CURVE SMOOTH",
"382 473 OFFCURVE",
"424 395 OFFCURVE",
"325 293 CURVE SMOOTH",
"264 230 LINE SMOOTH",
"251 217 OFFCURVE",
"242 204 OFFCURVE",
"242 188 CURVE SMOOTH",
"242 171 OFFCURVE",
"251 159 OFFCURVE",
"267 147 CURVE SMOOTH",
"361 72 LINE SMOOTH",
"414 25 OFFCURVE",
"432 -21 OFFCURVE",
"489 -21 CURVE SMOOTH"
);
}
);
};
layerId = "D34FCF88-AF1D-4520-8FB0-498E26D42FBC";
paths = (
{
closed = 1;
nodes = (
"522 -21 OFFCURVE",
"545 -4 OFFCURVE",
"545 13 CURVE SMOOTH",
"545 35 OFFCURVE",
"505 64 OFFCURVE",
"459 102 CURVE SMOOTH",
"411 140 LINE SMOOTH",
"379 167 OFFCURVE",
"330 206 OFFCURVE",
"283 226 CURVE",
"310 208 LINE",
"384 285 LINE SMOOTH",
"424 327 OFFCURVE",
"477 375 OFFCURVE",
"477 420 CURVE SMOOTH",
"477 453 OFFCURVE",
"459 473 OFFCURVE",
"430 473 CURVE SMOOTH",
"375 473 OFFCURVE",
"391 418 OFFCURVE",
"325 348 CURVE SMOOTH",
"264 285 LINE SMOOTH",
"238 258 OFFCURVE",
"212 241 OFFCURVE",
"212 213 CURVE SMOOTH",
"212 188 OFFCURVE",
"234 174 OFFCURVE",
"267 147 CURVE SMOOTH",
"361 72 LINE SMOOTH",
"422 22 OFFCURVE",
"432 -21 OFFCURVE",
"489 -21 CURVE SMOOTH"
);
},
{
closed = 1;
nodes = (
"179 -21 OFFCURVE",
"200 1 OFFCURVE",
"200 51 CURVE SMOOTH",
"200 80 OFFCURVE",
"195 117 OFFCURVE",
"195 139 CURVE SMOOTH",
"194 550 LINE SMOOTH",
"194 618 OFFCURVE",
"211 660 OFFCURVE",
"211 712 CURVE SMOOTH",
"211 739 OFFCURVE",
"177 760 OFFCURVE",
"154 760 CURVE SMOOTH",
"124 760 OFFCURVE",
"103 738 OFFCURVE",
"103 688 CURVE SMOOTH",
"103 659 OFFCURVE",
"108 622 OFFCURVE",
"108 599 CURVE SMOOTH",
"109 189 LINE SMOOTH",
"109 121 OFFCURVE",
"92 79 OFFCURVE",
"92 27 CURVE SMOOTH",
"92 0 OFFCURVE",
"126 -21 OFFCURVE",
"149 -21 CURVE SMOOTH"
);
}
);
width = 554;
}
);
unicode = 006B;
},
{
color = -1;
glyphname = l;
lastChange = "2016-02-12 12:36:05 +0000";
layers = (
{
anchors = (
{
name = bottom;
position = "{160, 0}";
},
{
name = caron;
position = "{327, 550}";
},
{
name = top;
position = "{157, 738}";
}
);
background = {
paths = (
{
closed = 1;
nodes = (
"90 65 OFFCURVE",
"82 91 OFFCURVE",
"82 175 CURVE SMOOTH",
"82 284 OFFCURVE",
"111 509 OFFCURVE",
"111 599 CURVE SMOOTH",
"111 622 OFFCURVE",
"106 659 OFFCURVE",
"106 688 CURVE SMOOTH",
"106 738 OFFCURVE",
"127 760 OFFCURVE",
"157 760 CURVE SMOOTH",
"180 760 OFFCURVE",
"214 739 OFFCURVE",
"214 712 CURVE SMOOTH",
"214 660 OFFCURVE",
"197 618 OFFCURVE",
"197 550 CURVE",
"186 397 LINE",
"176 131 LINE SMOOTH",
"172 18 OFFCURVE",
"252 105 OFFCURVE",
"252 27 CURVE SMOOTH",
"252 0 OFFCURVE",
"229 -21 OFFCURVE",
"199 -21 CURVE SMOOTH",
"174 -21 OFFCURVE",
"136 -13 OFFCURVE",
"111 29 CURVE SMOOTH"
);
}
);
};
layerId = "D34FCF88-AF1D-4520-8FB0-498E26D42FBC";
paths = (
{
closed = 1;
nodes = (
"229 -21 OFFCURVE",
"252 0 OFFCURVE",
"252 27 CURVE SMOOTH",
"252 105 OFFCURVE",
"172 18 OFFCURVE",
"176 131 CURVE SMOOTH",
"186 397 LINE",
"197 550 LINE SMOOTH",
"202 629 OFFCURVE",
"214 671 OFFCURVE",
"214 712 CURVE SMOOTH",
"214 739 OFFCURVE",
"180 760 OFFCURVE",
"157 760 CURVE SMOOTH",
"127 760 OFFCURVE",
"106 738 OFFCURVE",
"106 688 CURVE SMOOTH",
"106 659 OFFCURVE",
"111 622 OFFCURVE",
"111 599 CURVE SMOOTH",
"111 509 OFFCURVE",
"82 284 OFFCURVE",
"82 175 CURVE SMOOTH",
"82 91 OFFCURVE",
"90 65 OFFCURVE",
"111 29 CURVE SMOOTH",
"136 -13 OFFCURVE",
"174 -21 OFFCURVE",
"199 -21 CURVE SMOOTH"
);
}
);
width = 302;
}
);
unicode = 006C;
},
{
color = -1;
glyphname = lslash;
lastChange = "2016-02-12 12:36:05 +0000";
layers = (
{
background = {
paths = (
{
closed = 1;
nodes = (
"229 -21 OFFCURVE",
"252 0 OFFCURVE",
"252 27 CURVE SMOOTH",
"252 105 OFFCURVE",
"172 18 OFFCURVE",
"176 131 CURVE SMOOTH",
"186 397 LINE",
"197 550 LINE SMOOTH",
"202 629 OFFCURVE",
"214 671 OFFCURVE",
"214 712 CURVE SMOOTH",
"214 739 OFFCURVE",
"180 760 OFFCURVE",
"157 760 CURVE SMOOTH",
"127 760 OFFCURVE",
"106 738 OFFCURVE",
"106 688 CURVE SMOOTH",
"106 659 OFFCURVE",
"111 622 OFFCURVE",
"111 599 CURVE SMOOTH",
"111 509 OFFCURVE",
"82 284 OFFCURVE",
"82 175 CURVE SMOOTH",
"82 91 OFFCURVE",
"90 65 OFFCURVE",
"111 29 CURVE SMOOTH",
"136 -13 OFFCURVE",
"174 -21 OFFCURVE",
"199 -21 CURVE SMOOTH"
);
},
{
closed = 1;
nodes = (
"37 184 OFFCURVE",
"50 191 OFFCURVE",
"75 210 CURVE SMOOTH",
"127 250 LINE",
"159 274 LINE",
"229 331 LINE SMOOTH",
"262 358 OFFCURVE",
"296 383 OFFCURVE",
"296 407 CURVE SMOOTH",
"296 424 OFFCURVE",
"274 447 OFFCURVE",
"256 447 CURVE SMOOTH",
"240 447 OFFCURVE",
"232 439 OFFCURVE",
"214 422 CURVE SMOOTH",
"146 359 LINE",
"53 289 LINE SMOOTH",
"13 259 OFFCURVE",
"-17 238 OFFCURVE",
"-17 226 CURVE SMOOTH",
"-17 207 OFFCURVE",
"11 184 OFFCURVE",
"25 184 CURVE"
);
}
);
};
layerId = "D34FCF88-AF1D-4520-8FB0-498E26D42FBC";
paths = (
{
closed = 1;
nodes = (
"23 171 OFFCURVE",
"44 179 OFFCURVE",
"75 203 CURVE SMOOTH",
"127 243 LINE",
"159 267 LINE",
"229 324 LINE SMOOTH",
"262 351 OFFCURVE",
"296 376 OFFCURVE",
"296 400 CURVE SMOOTH",
"296 414 OFFCURVE",
"284 447 OFFCURVE",
"266 447 CURVE SMOOTH",
"254 447 OFFCURVE",
"244 442 OFFCURVE",
"224 424 CURVE SMOOTH",
"146 352 LINE",
"53 282 LINE SMOOTH",
"13 252 OFFCURVE",
"-17 231 OFFCURVE",
"-17 215 CURVE SMOOTH",
"-17 193 OFFCURVE",
"4 171 OFFCURVE",
"15 171 CURVE"
);
},
{
closed = 1;
nodes = (
"229 -21 OFFCURVE",
"252 0 OFFCURVE",
"252 27 CURVE SMOOTH",
"252 105 OFFCURVE",
"172 18 OFFCURVE",
"176 131 CURVE SMOOTH",
"186 397 LINE",
"197 550 LINE SMOOTH",
"203 629 OFFCURVE",
"214 671 OFFCURVE",
"214 712 CURVE SMOOTH",
"214 739 OFFCURVE",
"180 760 OFFCURVE",
"157 760 CURVE SMOOTH",
"127 760 OFFCURVE",
"106 738 OFFCURVE",
"106 688 CURVE SMOOTH",
"106 659 OFFCURVE",
"111 622 OFFCURVE",
"111 599 CURVE SMOOTH",
"111 499 OFFCURVE",
"90 251 OFFCURVE",
"90 131 CURVE SMOOTH",
"90 17 OFFCURVE",
"143 -21 OFFCURVE",
"199 -21 CURVE SMOOTH"
);
}
);
width = 302;
}
);
unicode = 0142;
},
{
color = -1;
glyphname = m;
lastChange = "2016-02-12 12:36:05 +0000";
layers = (
{
background = {
paths = (
{
closed = 1;
nodes = (
"250 -21 OFFCURVE",
"309 388 OFFCURVE",
"405 388 CURVE SMOOTH",
"428 388 OFFCURVE",
"441 354 OFFCURVE",
"441 311 CURVE SMOOTH",
"441 116 LINE SMOOTH",
"441 22 OFFCURVE",
"481 -21 OFFCURVE",
"550 -21 CURVE SMOOTH",
"587 -21 OFFCURVE",
"627 -7 OFFCURVE",
"627 29 CURVE",
"627 55 OFFCURVE",
"612 69 OFFCURVE",
"594 69 CURVE",
"577 69 OFFCURVE",
"572 64 OFFCURVE",
"554 64 CURVE SMOOTH",
"536 64 OFFCURVE",
"526 79 OFFCURVE",
"526 116 CURVE SMOOTH",
"526 311 LINE SMOOTH",
"526 431 OFFCURVE",
"463 473 OFFCURVE",
"405 473 CURVE SMOOTH",
"275 473 OFFCURVE",
"198 146 OFFCURVE",
"198 146 CURVE",
"198 146 OFFCURVE",
"209 149 OFFCURVE",
"209 149 CURVE",
"204 356 OFFCURVE",
"155 473 OFFCURVE",
"94 473 CURVE SMOOTH",
"71 473 OFFCURVE",
"48 452 OFFCURVE",
"48 426 CURVE SMOOTH",
"48 374 OFFCURVE",
"127 305 OFFCURVE",
"127 228 CURVE SMOOTH",
"127 115 LINE SMOOTH",
"127 61 OFFCURVE",
"123 59 OFFCURVE",
"123 30 CURVE SMOOTH",
"123 -3 OFFCURVE",
"143 -21 OFFCURVE",
"166 -21 CURVE SMOOTH"
);
}
);
};
layerId = "D34FCF88-AF1D-4520-8FB0-498E26D42FBC";
paths = (
{
closed = 1;
nodes = (
"229 -21 OFFCURVE",
"341 388 OFFCURVE",
"451 388 CURVE SMOOTH",
"463 388 OFFCURVE",
"467 373 OFFCURVE",
"461 311 CURVE SMOOTH",
"435 30 LINE SMOOTH",
"432 11 OFFCURVE",
"451 -21 OFFCURVE",
"487 -21 CURVE SMOOTH",
"539 -21 OFFCURVE",
"574 90 OFFCURVE",
"635 188 CURVE",
"674 248 OFFCURVE",
"762 388 OFFCURVE",
"802 388 CURVE SMOOTH",
"810 388 OFFCURVE",
"811 380 OFFCURVE",
"811 346 CURVE SMOOTH",
"811 116 LINE SMOOTH",
"811 27 OFFCURVE",
"848 -21 OFFCURVE",
"914 -21 CURVE SMOOTH",
"951 -21 OFFCURVE",
"991 -7 OFFCURVE",
"991 29 CURVE SMOOTH",
"991 55 OFFCURVE",
"975 69 OFFCURVE",
"958 69 CURVE SMOOTH",
"945 69 OFFCURVE",
"935 64 OFFCURVE",
"921 64 CURVE SMOOTH",
"904 64 OFFCURVE",
"896 84 OFFCURVE",
"896 116 CURVE SMOOTH",
"896 345 LINE SMOOTH",
"896 436 OFFCURVE",
"851 473 OFFCURVE",
"802 473 CURVE SMOOTH",
"732 473 OFFCURVE",
"602 283 OFFCURVE",
"545 184 CURVE SMOOTH",
"541 176 OFFCURVE",
"534 165 OFFCURVE",
"531 159 CURVE",
"517 159 LINE",
"517 159 OFFCURVE",
"522 104 OFFCURVE",
"522 104 CURVE",
"546 311 LINE SMOOTH",
"560 442 OFFCURVE",
"522 473 OFFCURVE",
"451 473 CURVE SMOOTH",
"322 473 OFFCURVE",
"200 157 OFFCURVE",
"200 157 CURVE",
"200 157 OFFCURVE",
"220 157 OFFCURVE",
"220 157 CURVE",
"195 363 OFFCURVE",
"222 473 OFFCURVE",
"145 473 CURVE SMOOTH",
"122 473 OFFCURVE",
"98 452 OFFCURVE",
"98 426 CURVE SMOOTH",
"98 374 OFFCURVE",
"131 328 OFFCURVE",
"128 261 CURVE SMOOTH",
"124 122 LINE SMOOTH",
"123 80 OFFCURVE",
"109 59 OFFCURVE",
"109 30 CURVE SMOOTH",
"109 -3 OFFCURVE",
"124 -21 OFFCURVE",
"147 -21 CURVE SMOOTH"
);
}
);
width = 1013;
}
);
unicode = 006D;
},
{
color = -1;
glyphname = n;
lastChange = "2016-02-12 12:36:05 +0000";
layers = (
{
anchors = (
{
name = bottom;
position = "{335, 0}";
},
{
name = top;
position = "{307, 450}";
}
);
background = {
paths = (
{
closed = 1;
nodes = (
"248 -21 OFFCURVE",
"306 388 OFFCURVE",
"403 388 CURVE SMOOTH",
"426 388 OFFCURVE",
"439 354 OFFCURVE",
"439 311 CURVE SMOOTH",
"439 116 LINE SMOOTH",
"439 22 OFFCURVE",
"479 -21 OFFCURVE",
"547 -21 CURVE SMOOTH",
"585 -21 OFFCURVE",
"625 -7 OFFCURVE",
"625 29 CURVE",
"625 55 OFFCURVE",
"609 69 OFFCURVE",
"592 69 CURVE",
"575 69 OFFCURVE",
"570 64 OFFCURVE",
"552 64 CURVE SMOOTH",
"534 64 OFFCURVE",
"524 79 OFFCURVE",
"524 116 CURVE SMOOTH",
"524 311 LINE SMOOTH",
"524 431 OFFCURVE",
"461 473 OFFCURVE",
"403 473 CURVE SMOOTH",
"273 473 OFFCURVE",
"196 146 OFFCURVE",
"196 146 CURVE",
"196 146 OFFCURVE",
"207 149 OFFCURVE",
"207 149 CURVE",
"201 356 OFFCURVE",
"153 473 OFFCURVE",
"92 473 CURVE SMOOTH",
"69 473 OFFCURVE",
"45 452 OFFCURVE",
"45 426 CURVE SMOOTH",
"45 374 OFFCURVE",
"125 305 OFFCURVE",
"125 228 CURVE SMOOTH",
"125 115 LINE SMOOTH",
"125 61 OFFCURVE",
"121 59 OFFCURVE",
"121 30 CURVE SMOOTH",
"121 -3 OFFCURVE",
"140 -21 OFFCURVE",
"164 -21 CURVE SMOOTH"
);
}
);
};
layerId = "D34FCF88-AF1D-4520-8FB0-498E26D42FBC";
paths = (
{
closed = 1;
nodes = (
"248 -21 OFFCURVE",
"306 388 OFFCURVE",
"403 388 CURVE SMOOTH",
"426 388 OFFCURVE",
"439 354 OFFCURVE",
"439 311 CURVE SMOOTH",
"439 116 LINE SMOOTH",
"439 22 OFFCURVE",
"479 -21 OFFCURVE",
"547 -21 CURVE SMOOTH",
"585 -21 OFFCURVE",
"625 -7 OFFCURVE",
"625 29 CURVE SMOOTH",
"625 55 OFFCURVE",
"609 69 OFFCURVE",
"592 69 CURVE",
"575 69 OFFCURVE",
"570 64 OFFCURVE",
"552 64 CURVE SMOOTH",
"534 64 OFFCURVE",
"524 79 OFFCURVE",
"524 116 CURVE SMOOTH",
"524 311 LINE SMOOTH",
"524 431 OFFCURVE",
"461 473 OFFCURVE",
"403 473 CURVE SMOOTH",
"299 473 OFFCURVE",
"226 263 OFFCURVE",
"196 146 CURVE",
"196 146 OFFCURVE",
"207 149 OFFCURVE",
"207 149 CURVE",
"201 356 OFFCURVE",
"153 473 OFFCURVE",
"92 473 CURVE SMOOTH",
"69 473 OFFCURVE",
"45 452 OFFCURVE",
"45 426 CURVE SMOOTH",
"45 374 OFFCURVE",
"125 305 OFFCURVE",
"125 228 CURVE SMOOTH",
"125 115 LINE SMOOTH",
"125 61 OFFCURVE",
"121 59 OFFCURVE",
"121 30 CURVE SMOOTH",
"121 -3 OFFCURVE",
"140 -21 OFFCURVE",
"164 -21 CURVE SMOOTH"
);
}
);
width = 641;
}
);
unicode = 006E;
},
{
color = -1;
glyphname = eng;
lastChange = "2016-02-12 12:36:05 +0000";
layers = (
{
background = {
paths = (
{
closed = 1;
nodes = (
"174 -263 OFFCURVE",
"188 -230 OFFCURVE",
"188 -191 CURVE SMOOTH",
"188 -163 OFFCURVE",
"184 -117 OFFCURVE",
"188 -81 CURVE SMOOTH",
"198 6 LINE",
"237 -11 OFFCURVE",
"283 -21 OFFCURVE",
"323 -21 CURVE SMOOTH",
"499 -21 OFFCURVE",
"546 118 OFFCURVE",
"546 277 CURVE SMOOTH",
"546 444 OFFCURVE",
"473 473 OFFCURVE",
"414 473 CURVE SMOOTH",
"336 473 OFFCURVE",
"255 367 OFFCURVE",
"192 242 CURVE",
"215 157 LINE",
"189 363 OFFCURVE",
"217 473 OFFCURVE",
"139 473 CURVE SMOOTH",
"116 473 OFFCURVE",
"93 452 OFFCURVE",
"93 426 CURVE SMOOTH",
"93 374 OFFCURVE",
"125 328 OFFCURVE",
"123 261 CURVE",
"115 55 LINE",
"104 -31 LINE SMOOTH",
"96 -90 OFFCURVE",
"86 -148 OFFCURVE",
"86 -194 CURVE SMOOTH",
"86 -227 OFFCURVE",
"132 -263 OFFCURVE",
"154 -263 CURVE SMOOTH"
);
},
{
closed = 1;
nodes = (
"271 64 OFFCURVE",
"233 79 OFFCURVE",
"205 97 CURVE",
"268 238 LINE SMOOTH",
"304 319 OFFCURVE",
"371 387 OFFCURVE",
"414 387 CURVE SMOOTH",
"437 387 OFFCURVE",
"459 373 OFFCURVE",
"459 280 CURVE SMOOTH",
"459 149 OFFCURVE",
"424 64 OFFCURVE",
"323 64 CURVE SMOOTH"
);
}
);
};
layerId = "D34FCF88-AF1D-4520-8FB0-498E26D42FBC";
paths = (
{
closed = 1;
nodes = (
"459 36 OFFCURVE",
"419 -95 OFFCURVE",
"299 -146 CURVE SMOOTH",
"273 -158 OFFCURVE",
"247 -166 OFFCURVE",
"247 -196 CURVE SMOOTH",
"247 -217 OFFCURVE",
"273 -244 OFFCURVE",
"305 -244 CURVE SMOOTH",
"332 -244 OFFCURVE",
"358 -227 OFFCURVE",
"382 -206 CURVE SMOOTH",
"500 -112 OFFCURVE",
"546 8 OFFCURVE",
"546 277 CURVE SMOOTH",
"546 428 OFFCURVE",
"487 473 OFFCURVE",
"414 473 CURVE SMOOTH",
"304 473 OFFCURVE",
"227 263 OFFCURVE",
"196 146 CURVE",
"196 146 OFFCURVE",
"207 149 OFFCURVE",
"207 149 CURVE",
"201 356 OFFCURVE",
"153 473 OFFCURVE",
"92 473 CURVE SMOOTH",
"69 473 OFFCURVE",
"45 452 OFFCURVE",
"45 426 CURVE SMOOTH",
"45 374 OFFCURVE",
"125 305 OFFCURVE",
"125 228 CURVE SMOOTH",
"125 115 LINE SMOOTH",
"125 61 OFFCURVE",
"121 59 OFFCURVE",
"121 30 CURVE SMOOTH",
"121 -3 OFFCURVE",
"140 -21 OFFCURVE",
"164 -21 CURVE SMOOTH",
"252 -21 OFFCURVE",
"313 388 OFFCURVE",
"414 388 CURVE SMOOTH",
"442 388 OFFCURVE",
"459 361 OFFCURVE",
"459 280 CURVE SMOOTH"
);
}
);
width = 624;
}
);
unicode = 014B;
},
{
color = -1;
glyphname = o;
lastChange = "2016-02-12 12:36:05 +0000";
layers = (
{
anchors = (
{
name = top;
position = "{287, 450}";
}
);
background = {
paths = (
{
closed = 1;
nodes = (
"411 -21 OFFCURVE",
"467 33 OFFCURVE",
"501 90 CURVE SMOOTH",
"527 134 OFFCURVE",
"536 175 OFFCURVE",
"536 220 CURVE SMOOTH",
"536 354 OFFCURVE",
"418 473 OFFCURVE",
"288 473 CURVE SMOOTH",
"156 473 OFFCURVE",
"61 363 OFFCURVE",
"61 242 CURVE SMOOTH",
"61 108 OFFCURVE",
"157 -21 OFFCURVE",
"316 -21 CURVE SMOOTH"
);
},
{
closed = 1;
nodes = (
"209 64 OFFCURVE",
"149 155 OFFCURVE",
"149 242 CURVE SMOOTH",
"149 299 OFFCURVE",
"199 388 OFFCURVE",
"288 388 CURVE SMOOTH",
"371 388 OFFCURVE",
"448 306 OFFCURVE",
"448 220 CURVE SMOOTH",
"448 135 OFFCURVE",
"380 64 OFFCURVE",
"316 64 CURVE SMOOTH"
);
}
);
};
layerId = "D34FCF88-AF1D-4520-8FB0-498E26D42FBC";
paths = (
{
closed = 1;
nodes = (
"440 -21 OFFCURVE",
"536 108 OFFCURVE",
"536 242 CURVE SMOOTH",
"536 363 OFFCURVE",
"441 473 OFFCURVE",
"309 473 CURVE SMOOTH",
"179 473 OFFCURVE",
"61 354 OFFCURVE",
"61 220 CURVE SMOOTH",
"61 175 OFFCURVE",
"69 133 OFFCURVE",
"96 90 CURVE SMOOTH",
"130 33 OFFCURVE",
"186 -21 OFFCURVE",
"281 -21 CURVE SMOOTH"
);
},
{
closed = 1;
nodes = (
"217 64 OFFCURVE",
"149 135 OFFCURVE",
"149 220 CURVE SMOOTH",
"149 306 OFFCURVE",
"226 388 OFFCURVE",
"309 388 CURVE SMOOTH",
"398 388 OFFCURVE",
"448 299 OFFCURVE",
"448 242 CURVE SMOOTH",
"448 155 OFFCURVE",
"388 64 OFFCURVE",
"281 64 CURVE SMOOTH"
);
}
);
width = 599;
}
);
unicode = 006F;
},
{
color = -1;
glyphname = oslash;
lastChange = "2016-02-12 12:36:05 +0000";
layers = (
{
background = {
paths = (
{
closed = 1;
nodes = (
"669 -161 OFFCURVE",
"681 -151 OFFCURVE",
"688 -132 CURVE SMOOTH",
"707 -84 LINE",
"782 39 LINE",
"883 196 LINE",
"993 367 LINE SMOOTH",
"1035 433 OFFCURVE",
"1093 502 OFFCURVE",
"1093 535 CURVE SMOOTH",
"1093 557 OFFCURVE",
"1067 593 OFFCURVE",
"1048 593 CURVE SMOOTH",
"1030 593 OFFCURVE",
"1017 577 OFFCURVE",
"1003 553 CURVE SMOOTH",
"915 405 LINE",
"819 252 LINE",
"714 86 LINE",
"638 -24 LINE SMOOTH",
"617 -54 OFFCURVE",
"606 -83 OFFCURVE",
"606 -104 CURVE SMOOTH",
"606 -127 OFFCURVE",
"638 -161 OFFCURVE",
"654 -161 CURVE SMOOTH"
);
},
{
closed = 1;
nodes = (
"993 -21 OFFCURVE",
"1089 108 OFFCURVE",
"1089 242 CURVE SMOOTH",
"1089 363 OFFCURVE",
"994 473 OFFCURVE",
"862 473 CURVE SMOOTH",
"732 473 OFFCURVE",
"614 354 OFFCURVE",
"614 220 CURVE SMOOTH",
"614 175 OFFCURVE",
"622 133 OFFCURVE",
"649 90 CURVE SMOOTH",
"683 33 OFFCURVE",
"739 -21 OFFCURVE",
"834 -21 CURVE SMOOTH"
);
},
{
closed = 1;
nodes = (
"770 64 OFFCURVE",
"702 135 OFFCURVE",
"702 220 CURVE SMOOTH",
"702 306 OFFCURVE",
"779 388 OFFCURVE",
"862 388 CURVE SMOOTH",
"951 388 OFFCURVE",
"1001 299 OFFCURVE",
"1001 242 CURVE SMOOTH",
"1001 155 OFFCURVE",
"941 64 OFFCURVE",
"834 64 CURVE SMOOTH"
);
},
{
closed = 1;
nodes = (
"421 343 LINE SMOOTH",
"431 359 OFFCURVE",
"432 371 OFFCURVE",
"415 383 CURVE SMOOTH",
"394 397 OFFCURVE",
"364 398 OFFCURVE",
"353 382 CURVE SMOOTH",
"174 104 LINE SMOOTH",
"169 95 OFFCURVE",
"176 85 OFFCURVE",
"190 77 CURVE SMOOTH",
"203 70 OFFCURVE",
"239 60 OFFCURVE",
"250 77 CURVE"
);
}
);
};
layerId = "D34FCF88-AF1D-4520-8FB0-498E26D42FBC";
paths = (
{
closed = 1;
nodes = (
"163 -46 OFFCURVE",
"168 -41 OFFCURVE",
"176 -28 CURVE SMOOTH",
"220 39 LINE",
"326 196 LINE",
"458 400 LINE SMOOTH",
"471 419 OFFCURVE",
"487 437 OFFCURVE",
"487 451 CURVE SMOOTH",
"487 473 OFFCURVE",
"464 509 OFFCURVE",
"445 509 CURVE SMOOTH",
"430 509 OFFCURVE",
"422 491 OFFCURVE",
"409 469 CURVE SMOOTH",
"385 431 LINE",
"270 252 LINE",
"153 80 LINE SMOOTH",
"132 49 OFFCURVE",
"104 13 OFFCURVE",
"104 -3 CURVE SMOOTH",
"104 -22 OFFCURVE",
"139 -46 OFFCURVE",
"154 -46 CURVE SMOOTH"
);
},
{
closed = 1;
nodes = (
"440 -21 OFFCURVE",
"536 108 OFFCURVE",
"536 242 CURVE SMOOTH",
"536 363 OFFCURVE",
"441 473 OFFCURVE",
"309 473 CURVE SMOOTH",
"179 473 OFFCURVE",
"61 354 OFFCURVE",
"61 220 CURVE SMOOTH",
"61 175 OFFCURVE",
"69 133 OFFCURVE",
"96 90 CURVE SMOOTH",
"130 33 OFFCURVE",
"186 -21 OFFCURVE",
"281 -21 CURVE SMOOTH"
);
},
{
closed = 1;
nodes = (
"217 64 OFFCURVE",
"149 135 OFFCURVE",
"149 220 CURVE SMOOTH",
"149 306 OFFCURVE",
"226 388 OFFCURVE",
"309 388 CURVE SMOOTH",
"398 388 OFFCURVE",
"448 299 OFFCURVE",
"448 242 CURVE SMOOTH",
"448 155 OFFCURVE",
"388 64 OFFCURVE",
"281 64 CURVE SMOOTH"
);
}
);
width = 599;
}
);
leftMetricsKey = o;
rightMetricsKey = o;
unicode = 00F8;
},
{
color = -1;
glyphname = oe;
lastChange = "2016-02-12 12:36:05 +0000";
layers = (
{
anchors = (
{
name = bottom;
position = "{483, 0}";
},
{
name = top;
position = "{483, 450}";
}
);
background = {
paths = (
{
closed = 1;
nodes = (
"728 175 OFFCURVE",
"860 241 OFFCURVE",
"860 338 CURVE SMOOTH",
"860 406 OFFCURVE",
"789 474 OFFCURVE",
"693 473 CURVE SMOOTH",
"614 472 OFFCURVE",
"548 438 OFFCURVE",
"548 394 CURVE SMOOTH",
"548 375 OFFCURVE",
"558 356 OFFCURVE",
"579 356 CURVE SMOOTH",
"621 356 OFFCURVE",
"624 388 OFFCURVE",
"693 388 CURVE SMOOTH",
"738 388 OFFCURVE",
"758 363 OFFCURVE",
"758 338 CURVE SMOOTH",
"758 289 OFFCURVE",
"665 255 OFFCURVE",
"527 255 CURVE",
"496 270 LINE",
"394 270 LINE",
"216 270 OFFCURVE",
"170 176 OFFCURVE",
"170 113 CURVE SMOOTH",
"170 7 OFFCURVE",
"265 -21 OFFCURVE",
"322 -21 CURVE SMOOTH",
"394 -21 OFFCURVE",
"469 31 OFFCURVE",
"520 96 CURVE",
"465 124 LINE",
"422 73 OFFCURVE",
"371 59 OFFCURVE",
"322 59 CURVE SMOOTH",
"286 59 OFFCURVE",
"257 76 OFFCURVE",
"257 113 CURVE SMOOTH",
"257 148 OFFCURVE",
"276 189 OFFCURVE",
"392 189 CURVE",
"496 189 LINE",
"527 175 LINE"
);
},
{
closed = 1;
nodes = (
"536 294 LINE SMOOTH",
"536 413 OFFCURVE",
"461 473 OFFCURVE",
"360 473 CURVE SMOOTH",
"326 473 OFFCURVE",
"286 463 OFFCURVE",
"256 450 CURVE SMOOTH",
"210 429 OFFCURVE",
"177 395 OFFCURVE",
"177 366 CURVE SMOOTH",
"177 337 OFFCURVE",
"202 319 OFFCURVE",
"227 319 CURVE SMOOTH",
"275 319 OFFCURVE",
"295 394 OFFCURVE",
"360 394 CURVE SMOOTH",
"419 394 OFFCURVE",
"448 355 OFFCURVE",
"448 294 CURVE SMOOTH",
"448 220 LINE",
"448 79 OFFCURVE",
"539 -22 OFFCURVE",
"675 -21 CURVE SMOOTH",
"794 -20 OFFCURVE",
"879 58 OFFCURVE",
"879 108 CURVE SMOOTH",
"879 132 OFFCURVE",
"865 153 OFFCURVE",
"838 153 CURVE SMOOTH",
"788 153 OFFCURVE",
"788 64 OFFCURVE",
"675 64 CURVE SMOOTH",
"594 64 OFFCURVE",
"536 127 OFFCURVE",
"536 220 CURVE"
);
}
);
};
layerId = "D34FCF88-AF1D-4520-8FB0-498E26D42FBC";
paths = (
{
closed = 1;
nodes = (
"738 388 OFFCURVE",
"758 363 OFFCURVE",
"758 338 CURVE SMOOTH",
"758 289 OFFCURVE",
"650 244 OFFCURVE",
"489 225 CURVE",
"530 149 LINE",
"725 177 OFFCURVE",
"860 241 OFFCURVE",
"860 338 CURVE SMOOTH",
"860 406 OFFCURVE",
"789 474 OFFCURVE",
"693 473 CURVE SMOOTH",
"615 472 OFFCURVE",
"548 438 OFFCURVE",
"548 394 CURVE SMOOTH",
"548 375 OFFCURVE",
"558 356 OFFCURVE",
"579 356 CURVE SMOOTH",
"621 356 OFFCURVE",
"624 388 OFFCURVE",
"693 388 CURVE"
);
},
{
closed = 1;
nodes = (
"448 79 OFFCURVE",
"539 -22 OFFCURVE",
"675 -21 CURVE SMOOTH",
"794 -20 OFFCURVE",
"879 58 OFFCURVE",
"879 108 CURVE SMOOTH",
"879 132 OFFCURVE",
"865 153 OFFCURVE",
"838 153 CURVE SMOOTH",
"788 153 OFFCURVE",
"788 64 OFFCURVE",
"675 64 CURVE SMOOTH",
"594 64 OFFCURVE",
"536 127 OFFCURVE",
"536 220 CURVE",
"448 220 LINE"
);
},
{
closed = 1;
nodes = (
"440 -21 OFFCURVE",
"536 108 OFFCURVE",
"536 242 CURVE SMOOTH",
"536 363 OFFCURVE",
"441 473 OFFCURVE",
"309 473 CURVE SMOOTH",
"179 473 OFFCURVE",
"61 354 OFFCURVE",
"61 220 CURVE SMOOTH",
"61 175 OFFCURVE",
"69 133 OFFCURVE",
"96 90 CURVE SMOOTH",
"130 33 OFFCURVE",
"186 -21 OFFCURVE",
"281 -21 CURVE SMOOTH"
);
},
{
closed = 1;
nodes = (
"217 64 OFFCURVE",
"149 135 OFFCURVE",
"149 220 CURVE SMOOTH",
"149 306 OFFCURVE",
"226 388 OFFCURVE",
"309 388 CURVE SMOOTH",
"398 388 OFFCURVE",
"448 299 OFFCURVE",
"448 242 CURVE SMOOTH",
"448 155 OFFCURVE",
"388 64 OFFCURVE",
"281 64 CURVE SMOOTH"
);
}
);
width = 934;
}
);
leftMetricsKey = o;
rightMetricsKey = e;
unicode = 0153;
},
{
color = -1;
glyphname = p;
lastChange = "2016-02-12 12:36:05 +0000";
layers = (
{
background = {
paths = (
{
closed = 1;
nodes = (
"239 -21 OFFCURVE",
"297 388 OFFCURVE",
"394 388 CURVE SMOOTH",
"417 388 OFFCURVE",
"430 353 OFFCURVE",
"430 311 CURVE SMOOTH",
"430 94 LINE SMOOTH",
"430 15 OFFCURVE",
"465 -21 OFFCURVE",
"527 -21 CURVE SMOOTH",
"559 -21 OFFCURVE",
"594 -4 OFFCURVE",
"594 29 CURVE SMOOTH",
"594 55 OFFCURVE",
"578 69 OFFCURVE",
"561 69 CURVE SMOOTH",
"548 69 OFFCURVE",
"545 64 OFFCURVE",
"532 64 CURVE SMOOTH",
"521 64 OFFCURVE",
"515 72 OFFCURVE",
"515 94 CURVE SMOOTH",
"515 311 LINE SMOOTH",
"515 431 OFFCURVE",
"452 473 OFFCURVE",
"394 473 CURVE SMOOTH",
"290 473 OFFCURVE",
"217 263 OFFCURVE",
"187 146 CURVE",
"187 146 OFFCURVE",
"198 149 OFFCURVE",
"198 149 CURVE",
"200 326 LINE SMOOTH",
"200 368 OFFCURVE",
"190 486 OFFCURVE",
"190 539 CURVE SMOOTH",
"190 607 OFFCURVE",
"208 660 OFFCURVE",
"208 712 CURVE SMOOTH",
"208 739 OFFCURVE",
"185 760 OFFCURVE",
"161 760 CURVE SMOOTH",
"131 760 OFFCURVE",
"110 738 OFFCURVE",
"110 688 CURVE SMOOTH",
"110 659 OFFCURVE",
"102 549 OFFCURVE",
"102 526 CURVE",
"102 469 OFFCURVE",
"116 347 OFFCURVE",
"116 289 CURVE SMOOTH",
"116 115 LINE",
"116 61 OFFCURVE",
"112 59 OFFCURVE",
"112 30 CURVE SMOOTH",
"112 -3 OFFCURVE",
"131 -21 OFFCURVE",
"155 -21 CURVE SMOOTH"
);
}
);
};
layerId = "D34FCF88-AF1D-4520-8FB0-498E26D42FBC";
paths = (
{
closed = 1;
nodes = (
"172 -263 OFFCURVE",
"186 -230 OFFCURVE",
"186 -191 CURVE SMOOTH",
"186 -163 OFFCURVE",
"186 -117 OFFCURVE",
"186 -81 CURVE SMOOTH",
"196 6 LINE",
"235 -11 OFFCURVE",
"281 -21 OFFCURVE",
"321 -21 CURVE SMOOTH",
"497 -21 OFFCURVE",
"544 118 OFFCURVE",
"544 277 CURVE SMOOTH",
"544 444 OFFCURVE",
"471 473 OFFCURVE",
"412 473 CURVE SMOOTH",
"334 473 OFFCURVE",
"253 367 OFFCURVE",
"190 242 CURVE",
"213 157 LINE",
"187 363 OFFCURVE",
"215 473 OFFCURVE",
"137 473 CURVE SMOOTH",
"114 473 OFFCURVE",
"91 452 OFFCURVE",
"91 426 CURVE SMOOTH",
"91 374 OFFCURVE",
"123 328 OFFCURVE",
"121 261 CURVE",
"113 55 LINE",
"102 -31 LINE SMOOTH",
"98 -90 OFFCURVE",
"84 -148 OFFCURVE",
"84 -194 CURVE SMOOTH",
"84 -227 OFFCURVE",
"130 -263 OFFCURVE",
"152 -263 CURVE SMOOTH"
);
},
{
closed = 1;
nodes = (
"269 64 OFFCURVE",
"231 79 OFFCURVE",
"203 97 CURVE",
"266 238 LINE SMOOTH",
"302 319 OFFCURVE",
"369 387 OFFCURVE",
"412 387 CURVE SMOOTH",
"435 387 OFFCURVE",
"457 373 OFFCURVE",
"457 280 CURVE SMOOTH",
"457 149 OFFCURVE",
"422 64 OFFCURVE",
"321 64 CURVE SMOOTH"
);
}
);
width = 615;
}
);
unicode = 0070;
},
{
color = -1;
glyphname = thorn;
lastChange = "2016-02-12 12:36:05 +0000";
layers = (
{
background = {
paths = (
{
closed = 1;
nodes = (
"204 -21 OFFCURVE",
"215 12 OFFCURVE",
"215 51 CURVE",
"169 15 LINE",
"221 -10 OFFCURVE",
"275 -21 OFFCURVE",
"317 -21 CURVE SMOOTH",
"493 -21 OFFCURVE",
"541 118 OFFCURVE",
"541 277 CURVE SMOOTH",
"541 444 OFFCURVE",
"468 473 OFFCURVE",
"408 473 CURVE SMOOTH",
"330 473 OFFCURVE",
"250 373 OFFCURVE",
"187 268 CURVE",
"176 79 LINE",
"215 62 LINE",
"202 326 LINE",
"202 368 OFFCURVE",
"192 486 OFFCURVE",
"192 539 CURVE SMOOTH",
"192 607 OFFCURVE",
"210 660 OFFCURVE",
"210 712 CURVE SMOOTH",
"210 739 OFFCURVE",
"187 760 OFFCURVE",
"163 760 CURVE SMOOTH",
"134 760 OFFCURVE",
"113 738 OFFCURVE",
"113 688 CURVE SMOOTH",
"113 659 OFFCURVE",
"104 549 OFFCURVE",
"104 526 CURVE",
"104 469 OFFCURVE",
"118 347 OFFCURVE",
"118 289 CURVE",
"130 49 LINE SMOOTH",
"132 17 OFFCURVE",
"169 -21 OFFCURVE",
"188 -21 CURVE SMOOTH"
);
},
{
closed = 1;
nodes = (
"265 64 OFFCURVE",
"228 79 OFFCURVE",
"199 97 CURVE",
"209 154 LINE",
"228 196 OFFCURVE",
"244 226 OFFCURVE",
"260 250 CURVE SMOOTH",
"306 319 OFFCURVE",
"365 387 OFFCURVE",
"408 387 CURVE SMOOTH",
"431 387 OFFCURVE",
"453 373 OFFCURVE",
"453 280 CURVE SMOOTH",
"453 149 OFFCURVE",
"418 64 OFFCURVE",
"317 64 CURVE SMOOTH"
);
}
);
};
layerId = "D34FCF88-AF1D-4520-8FB0-498E26D42FBC";
paths = (
{
closed = 1;
nodes = (
"168 -263 OFFCURVE",
"182 -230 OFFCURVE",
"182 -191 CURVE SMOOTH",
"182 -163 OFFCURVE",
"178 -117 OFFCURVE",
"182 -81 CURVE",
"196 34 LINE",
"169 15 LINE",
"221 -10 OFFCURVE",
"275 -21 OFFCURVE",
"317 -21 CURVE SMOOTH",
"493 -21 OFFCURVE",
"541 118 OFFCURVE",
"541 277 CURVE SMOOTH",
"541 444 OFFCURVE",
"468 473 OFFCURVE",
"408 473 CURVE SMOOTH",
"330 473 OFFCURVE",
"250 373 OFFCURVE",
"187 268 CURVE",
"176 79 LINE",
"211 62 LINE",
"202 326 LINE",
"202 368 OFFCURVE",
"192 486 OFFCURVE",
"192 539 CURVE SMOOTH",
"192 607 OFFCURVE",
"210 660 OFFCURVE",
"210 712 CURVE SMOOTH",
"210 739 OFFCURVE",
"187 760 OFFCURVE",
"163 760 CURVE SMOOTH",
"134 760 OFFCURVE",
"113 738 OFFCURVE",
"113 688 CURVE SMOOTH",
"113 659 OFFCURVE",
"104 549 OFFCURVE",
"104 526 CURVE",
"104 469 OFFCURVE",
"118 347 OFFCURVE",
"118 289 CURVE",
"109 55 LINE",
"98 -31 LINE SMOOTH",
"90 -90 OFFCURVE",
"80 -148 OFFCURVE",
"80 -194 CURVE SMOOTH",
"80 -227 OFFCURVE",
"126 -263 OFFCURVE",
"148 -263 CURVE SMOOTH"
);
},
{
closed = 1;
nodes = (
"265 64 OFFCURVE",
"228 79 OFFCURVE",
"199 97 CURVE",
"209 154 LINE",
"228 196 OFFCURVE",
"244 226 OFFCURVE",
"260 250 CURVE SMOOTH",
"304 320 OFFCURVE",
"365 387 OFFCURVE",
"408 387 CURVE SMOOTH",
"431 387 OFFCURVE",
"453 373 OFFCURVE",
"453 280 CURVE SMOOTH",
"453 149 OFFCURVE",
"418 64 OFFCURVE",
"317 64 CURVE SMOOTH"
);
}
);
width = 612;
}
);
unicode = 00FE;
},
{
color = -1;
glyphname = q;
lastChange = "2016-02-12 12:36:05 +0000";
layers = (
{
background = {
paths = (
{
closed = 1;
nodes = (
"288 -21 OFFCURVE",
"370 102 OFFCURVE",
"413 186 CURVE SMOOTH",
"449 254 OFFCURVE",
"520 355 OFFCURVE",
"520 434 CURVE SMOOTH",
"520 458 OFFCURVE",
"492 473 OFFCURVE",
"473 473 CURVE SMOOTH",
"450 473 OFFCURVE",
"387 430 OFFCURVE",
"387 345 CURVE SMOOTH",
"387 284 OFFCURVE",
"404 237 OFFCURVE",
"414 155 CURVE SMOOTH",
"419 117 LINE SMOOTH",
"430 21 OFFCURVE",
"472 -21 OFFCURVE",
"524 -21 CURVE SMOOTH",
"547 -21 OFFCURVE",
"570 0 OFFCURVE",
"570 27 CURVE SMOOTH",
"570 79 OFFCURVE",
"503 51 OFFCURVE",
"494 153 CURVE SMOOTH",
"483 275 LINE",
"483 275 OFFCURVE",
"489 392 OFFCURVE",
"489 392 CURVE",
"489 392 OFFCURVE",
"440 413 OFFCURVE",
"440 413 CURVE",
"350 215 LINE SMOOTH",
"314 133 OFFCURVE",
"247 64 OFFCURVE",
"204 64 CURVE SMOOTH",
"181 64 OFFCURVE",
"159 82 OFFCURVE",
"159 206 CURVE SMOOTH",
"159 316 OFFCURVE",
"185 417 OFFCURVE",
"185 452 CURVE SMOOTH",
"185 477 OFFCURVE",
"171 491 OFFCURVE",
"140 491 CURVE SMOOTH",
"88 491 OFFCURVE",
"71 362 OFFCURVE",
"71 209 CURVE SMOOTH",
"71 14 OFFCURVE",
"144 -21 OFFCURVE",
"204 -21 CURVE SMOOTH"
);
}
);
};
layerId = "D34FCF88-AF1D-4520-8FB0-498E26D42FBC";
paths = (
{
closed = 1;
nodes = (
"482 -263 OFFCURVE",
"495 -247 OFFCURVE",
"495 -210 CURVE SMOOTH",
"495 -185 OFFCURVE",
"488 -83 OFFCURVE",
"488 -63 CURVE",
"488 -6 OFFCURVE",
"494 87 OFFCURVE",
"494 164 CURVE SMOOTH",
"494 239 OFFCURVE",
"515 324 OFFCURVE",
"515 388 CURVE SMOOTH",
"515 434 OFFCURVE",
"477 462 OFFCURVE",
"454 462 CURVE SMOOTH",
"444 462 OFFCURVE",
"433 442 OFFCURVE",
"423 388 CURVE",
"350 226 LINE SMOOTH",
"314 143 OFFCURVE",
"252 65 OFFCURVE",
"210 65 CURVE SMOOTH",
"183 65 OFFCURVE",
"159 80 OFFCURVE",
"159 173 CURVE SMOOTH",
"159 292 OFFCURVE",
"216 388 OFFCURVE",
"295 388 CURVE SMOOTH",
"311 388 OFFCURVE",
"328 386 OFFCURVE",
"341 384 CURVE SMOOTH",
"373 378 OFFCURVE",
"394 395 OFFCURVE",
"394 421 CURVE SMOOTH",
"394 451 OFFCURVE",
"380 461 OFFCURVE",
"357 467 CURVE SMOOTH",
"336 471 OFFCURVE",
"315 473 OFFCURVE",
"295 473 CURVE SMOOTH",
"152 473 OFFCURVE",
"71 323 OFFCURVE",
"71 176 CURVE SMOOTH",
"71 20 OFFCURVE",
"148 -21 OFFCURVE",
"210 -21 CURVE SMOOTH",
"283 -21 OFFCURVE",
"368 74 OFFCURVE",
"416 188 CURVE",
"414 295 LINE",
"409 126 LINE",
"409 84 OFFCURVE",
"403 -22 OFFCURVE",
"403 -75 CURVE SMOOTH",
"403 -128 OFFCURVE",
"398 -170 OFFCURVE",
"398 -210 CURVE SMOOTH",
"398 -233 OFFCURVE",
"431 -263 OFFCURVE",
"457 -263 CURVE SMOOTH"
);
}
);
width = 603;
}
);
unicode = 0071;
},
{
color = -1;
glyphname = r;
lastChange = "2016-02-12 12:36:05 +0000";
layers = (
{
anchors = (
{
name = bottom;
position = "{186, 0}";
},
{
name = top;
position = "{263, 450}";
}
);
background = {
paths = (
{
closed = 1;
nodes = (
"253 -20 OFFCURVE",
"296 389 OFFCURVE",
"393 394 CURVE SMOOTH",
"416 395 OFFCURVE",
"430 361 OFFCURVE",
"432 317 CURVE SMOOTH",
"440 123 LINE SMOOTH",
"444 29 OFFCURVE",
"484 -12 OFFCURVE",
"553 -10 CURVE SMOOTH",
"591 -9 OFFCURVE",
"630 8 OFFCURVE",
"629 43 CURVE",
"628 69 OFFCURVE",
"612 82 OFFCURVE",
"594 81 CURVE",
"577 81 OFFCURVE",
"572 76 OFFCURVE",
"554 75 CURVE SMOOTH",
"536 74 OFFCURVE",
"526 88 OFFCURVE",
"525 126 CURVE SMOOTH",
"518 321 LINE SMOOTH",
"513 441 OFFCURVE",
"448 481 OFFCURVE",
"389 479 CURVE SMOOTH",
"261 474 OFFCURVE",
"196 144 OFFCURVE",
"196 144 CURVE",
"196 144 OFFCURVE",
"207 147 OFFCURVE",
"207 147 CURVE",
"194 354 OFFCURVE",
"140 470 OFFCURVE",
"80 467 CURVE SMOOTH",
"56 466 OFFCURVE",
"33 444 OFFCURVE",
"34 417 CURVE SMOOTH",
"36 365 OFFCURVE",
"118 300 OFFCURVE",
"122 222 CURVE SMOOTH",
"126 109 LINE SMOOTH",
"128 55 OFFCURVE",
"124 53 OFFCURVE",
"125 24 CURVE SMOOTH",
"126 -9 OFFCURVE",
"147 -25 OFFCURVE",
"170 -24 CURVE SMOOTH"
);
}
);
};
layerId = "D34FCF88-AF1D-4520-8FB0-498E26D42FBC";
paths = (
{
closed = 1;
nodes = (
"216 -21 OFFCURVE",
"230 0 OFFCURVE",
"239 30 CURVE SMOOTH",
"265 143 OFFCURVE",
"316 377 OFFCURVE",
"392 377 CURVE SMOOTH",
"421 377 OFFCURVE",
"417 335 OFFCURVE",
"456 335 CURVE SMOOTH",
"483 335 OFFCURVE",
"497 355 OFFCURVE",
"497 383 CURVE SMOOTH",
"497 431 OFFCURVE",
"450 473 OFFCURVE",
"392 473 CURVE SMOOTH",
"280 473 OFFCURVE",
"222 257 OFFCURVE",
"196 144 CURVE",
"196 144 OFFCURVE",
"205 149 OFFCURVE",
"205 149 CURVE",
"199 356 OFFCURVE",
"153 473 OFFCURVE",
"92 473 CURVE SMOOTH",
"69 473 OFFCURVE",
"45 452 OFFCURVE",
"45 426 CURVE SMOOTH",
"45 374 OFFCURVE",
"122 319 OFFCURVE",
"125 232 CURVE SMOOTH",
"133 30 LINE SMOOTH",
"134 -1 OFFCURVE",
"156 -21 OFFCURVE",
"186 -21 CURVE SMOOTH"
);
}
);
width = 518;
}
);
unicode = 0072;
},
{
color = -1;
glyphname = s;
lastChange = "2016-02-12 12:36:05 +0000";
layers = (
{
anchors = (
{
name = bottom;
position = "{222, 0}";
},
{
name = top;
position = "{228, 450}";
}
);
background = {
paths = (
{
closed = 1;
nodes = (
"369 -21 OFFCURVE",
"465 108 OFFCURVE",
"465 242 CURVE SMOOTH",
"465 363 OFFCURVE",
"370 473 OFFCURVE",
"238 473 CURVE SMOOTH",
"108 473 OFFCURVE",
"-10 354 OFFCURVE",
"-10 220 CURVE SMOOTH",
"-10 175 OFFCURVE",
"-2 133 OFFCURVE",
"25 90 CURVE SMOOTH",
"60 34 OFFCURVE",
"115 -21 OFFCURVE",
"210 -21 CURVE SMOOTH"
);
},
{
closed = 1;
nodes = (
"146 64 OFFCURVE",
"78 135 OFFCURVE",
"78 220 CURVE SMOOTH",
"78 306 OFFCURVE",
"155 388 OFFCURVE",
"238 388 CURVE SMOOTH",
"327 388 OFFCURVE",
"377 299 OFFCURVE",
"377 242 CURVE SMOOTH",
"377 155 OFFCURVE",
"317 64 OFFCURVE",
"210 64 CURVE SMOOTH"
);
}
);
};
guideLines = (
{
angle = 90;
position = "{87, 121}";
},
{
angle = 90;
position = "{364, 275}";
}
);
layerId = "D34FCF88-AF1D-4520-8FB0-498E26D42FBC";
paths = (
{
closed = 1;
nodes = (
"325 459 OFFCURVE",
"277 470 OFFCURVE",
"228 470 CURVE SMOOTH",
"159 470 OFFCURVE",
"72 429 OFFCURVE",
"72 341 CURVE SMOOTH",
"72 178 OFFCURVE",
"302 207 OFFCURVE",
"302 114 CURVE SMOOTH",
"302 63 OFFCURVE",
"254 54 OFFCURVE",
"222 54 CURVE SMOOTH",
"96 54 OFFCURVE",
"150 164 OFFCURVE",
"90 164 CURVE SMOOTH",
"74 164 OFFCURVE",
"49 138 OFFCURVE",
"49 95 CURVE SMOOTH",
"49 67 OFFCURVE",
"62 39 OFFCURVE",
"89 15 CURVE SMOOTH",
"118 -11 OFFCURVE",
"167 -25 OFFCURVE",
"222 -25 CURVE SMOOTH",
"319 -25 OFFCURVE",
"390 33 OFFCURVE",
"390 114 CURVE SMOOTH",
"390 277 OFFCURVE",
"160 247 OFFCURVE",
"160 341 CURVE SMOOTH",
"160 376 OFFCURVE",
"196 392 OFFCURVE",
"228 392 CURVE SMOOTH",
"276 392 OFFCURVE",
"316 380 OFFCURVE",
"337 357 CURVE",
"337 357 OFFCURVE",
"295 438 OFFCURVE",
"295 438 CURVE",
"316 321 LINE SMOOTH",
"318 305 OFFCURVE",
"327 296 OFFCURVE",
"342 296 CURVE SMOOTH",
"356 296 OFFCURVE",
"366 305 OFFCURVE",
"367 321 CURVE SMOOTH",
"378 439 LINE SMOOTH",
"387 492 OFFCURVE",
"362 502 OFFCURVE",
"338 502 CURVE SMOOTH",
"315 502 OFFCURVE",
"304 488 OFFCURVE",
"298 448 CURVE",
"298 448 OFFCURVE",
"356 441 OFFCURVE",
"356 441 CURVE"
);
}
);
width = 452;
}
);
unicode = 0073;
},
{
color = -1;
glyphname = germandbls;
lastChange = "2016-02-12 12:36:05 +0000";
layers = (
{
background = {
paths = (
{
closed = 1;
nodes = (
"241 -21 OFFCURVE",
"299 388 OFFCURVE",
"396 388 CURVE SMOOTH",
"419 388 OFFCURVE",
"432 353 OFFCURVE",
"432 311 CURVE SMOOTH",
"432 94 LINE SMOOTH",
"432 15 OFFCURVE",
"467 -21 OFFCURVE",
"529 -21 CURVE SMOOTH",
"561 -21 OFFCURVE",
"596 -4 OFFCURVE",
"596 29 CURVE SMOOTH",
"596 55 OFFCURVE",
"580 69 OFFCURVE",
"563 69 CURVE SMOOTH",
"550 69 OFFCURVE",
"547 64 OFFCURVE",
"534 64 CURVE SMOOTH",
"523 64 OFFCURVE",
"517 72 OFFCURVE",
"517 94 CURVE SMOOTH",
"517 311 LINE SMOOTH",
"517 431 OFFCURVE",
"454 473 OFFCURVE",
"396 473 CURVE SMOOTH",
"292 473 OFFCURVE",
"219 263 OFFCURVE",
"189 146 CURVE",
"189 146 OFFCURVE",
"200 149 OFFCURVE",
"200 149 CURVE",
"202 326 LINE SMOOTH",
"202 368 OFFCURVE",
"192 486 OFFCURVE",
"192 539 CURVE SMOOTH",
"192 607 OFFCURVE",
"210 660 OFFCURVE",
"210 712 CURVE SMOOTH",
"210 739 OFFCURVE",
"187 760 OFFCURVE",
"163 760 CURVE SMOOTH",
"133 760 OFFCURVE",
"112 738 OFFCURVE",
"112 688 CURVE SMOOTH",
"112 659 OFFCURVE",
"104 549 OFFCURVE",
"104 526 CURVE",
"104 469 OFFCURVE",
"118 347 OFFCURVE",
"118 289 CURVE SMOOTH",
"118 115 LINE",
"118 61 OFFCURVE",
"114 59 OFFCURVE",
"114 30 CURVE SMOOTH",
"114 -3 OFFCURVE",
"133 -21 OFFCURVE",
"157 -21 CURVE SMOOTH"
);
}
);
};
layerId = "D34FCF88-AF1D-4520-8FB0-498E26D42FBC";
paths = (
{
closed = 1;
nodes = (
"173 -263 OFFCURVE",
"190 -234 OFFCURVE",
"190 -209 CURVE SMOOTH",
"190 -111 OFFCURVE",
"204 7 OFFCURVE",
"204 105 CURVE SMOOTH",
"205 416 LINE SMOOTH",
"207 616 OFFCURVE",
"239 675 OFFCURVE",
"319 675 CURVE SMOOTH",
"359 675 OFFCURVE",
"370 659 OFFCURVE",
"395 659 CURVE SMOOTH",
"419 659 OFFCURVE",
"431 677 OFFCURVE",
"431 698 CURVE SMOOTH",
"431 723 OFFCURVE",
"414 737 OFFCURVE",
"392 745 CURVE SMOOTH",
"372 753 OFFCURVE",
"347 760 OFFCURVE",
"319 760 CURVE",
"259 760 OFFCURVE",
"220 742 OFFCURVE",
"191 717 CURVE SMOOTH",
"123 656 OFFCURVE",
"106 524 OFFCURVE",
"109 416 CURVE SMOOTH",
"119 105 LINE SMOOTH",
"121 25 OFFCURVE",
"89 -125 OFFCURVE",
"89 -194 CURVE SMOOTH",
"89 -227 OFFCURVE",
"135 -263 OFFCURVE",
"157 -263 CURVE SMOOTH"
);
},
{
closed = 1;
nodes = (
"427 -21 OFFCURVE",
"535 36 OFFCURVE",
"535 132 CURVE SMOOTH",
"535 211 OFFCURVE",
"458 246 OFFCURVE",
"376 269 CURVE",
"376 225 LINE",
"431 269 OFFCURVE",
"482 307 OFFCURVE",
"482 358 CURVE SMOOTH",
"482 420 OFFCURVE",
"426 473 OFFCURVE",
"360 473 CURVE SMOOTH",
"301 473 OFFCURVE",
"231 437 OFFCURVE",
"172 394 CURVE",
"172 295 LINE",
"231 348 OFFCURVE",
"316 388 OFFCURVE",
"360 388 CURVE SMOOTH",
"380 388 OFFCURVE",
"395 377 OFFCURVE",
"395 358 CURVE SMOOTH",
"395 335 OFFCURVE",
"380 320 OFFCURVE",
"351 294 CURVE SMOOTH",
"327 273 OFFCURVE",
"308 262 OFFCURVE",
"308 242 CURVE SMOOTH",
"308 215 OFFCURVE",
"337 201 OFFCURVE",
"374 188 CURVE SMOOTH",
"408 176 OFFCURVE",
"450 168 OFFCURVE",
"450 132 CURVE SMOOTH",
"450 87 OFFCURVE",
"407 70 OFFCURVE",
"364 60 CURVE SMOOTH",
"321 50 OFFCURVE",
"275 49 OFFCURVE",
"275 28 CURVE SMOOTH",
"275 7 OFFCURVE",
"302 -21 OFFCURVE",
"334 -21 CURVE SMOOTH"
);
}
);
width = 594;
}
);
unicode = 00DF;
},
{
color = -1;
glyphname = schwa;
lastChange = "2016-02-12 12:36:05 +0000";
layers = (
{
background = {
paths = (
{
closed = 1;
nodes = (
"147 472 OFFCURVE",
"66 399 OFFCURVE",
"66 344 CURVE SMOOTH",
"66 320 OFFCURVE",
"80 299 OFFCURVE",
"107 299 CURVE SMOOTH",
"159 299 OFFCURVE",
"156 388 OFFCURVE",
"266 388 CURVE SMOOTH",
"339 388 OFFCURVE",
"398 317 OFFCURVE",
"398 232 CURVE SMOOTH",
"398 146 OFFCURVE",
"336 64 OFFCURVE",
"258 64 CURVE SMOOTH",
"222 64 OFFCURVE",
"197 97 OFFCURVE",
"197 166 CURVE",
"124 95 LINE",
"124 5 OFFCURVE",
"198 -21 OFFCURVE",
"258 -21 CURVE SMOOTH",
"384 -21 OFFCURVE",
"486 98 OFFCURVE",
"486 232 CURVE SMOOTH",
"486 373 OFFCURVE",
"394 474 OFFCURVE",
"266 473 CURVE SMOOTH"
);
}
);
};
layerId = "D34FCF88-AF1D-4520-8FB0-498E26D42FBC";
paths = (
{
closed = 1;
nodes = (
"389 -21 OFFCURVE",
"486 98 OFFCURVE",
"486 230 CURVE SMOOTH",
"486 371 OFFCURVE",
"395 472 OFFCURVE",
"259 471 CURVE SMOOTH",
"141 470 OFFCURVE",
"55 392 OFFCURVE",
"55 342 CURVE SMOOTH",
"55 318 OFFCURVE",
"69 297 OFFCURVE",
"96 297 CURVE SMOOTH",
"146 297 OFFCURVE",
"146 386 OFFCURVE",
"259 386 CURVE SMOOTH",
"340 386 OFFCURVE",
"398 323 OFFCURVE",
"398 230 CURVE SMOOTH",
"398 156 OFFCURVE",
"348 62 OFFCURVE",
"241 62 CURVE SMOOTH",
"196 62 OFFCURVE",
"176 87 OFFCURVE",
"176 112 CURVE SMOOTH",
"176 161 OFFCURVE",
"284 206 OFFCURVE",
"445 225 CURVE",
"404 301 LINE",
"209 273 OFFCURVE",
"74 209 OFFCURVE",
"74 112 CURVE SMOOTH",
"74 44 OFFCURVE",
"145 -24 OFFCURVE",
"241 -23 CURVE SMOOTH"
);
}
);
width = 549;
}
);
unicode = 0259;
},
{
color = -1;
glyphname = t;
lastChange = "2016-02-12 12:36:05 +0000";
layers = (
{
anchors = (
{
name = bottom;
position = "{261, 0}";
},
{
name = caron;
position = "{362, 550}";
}
);
background = {
paths = (
{
closed = 1;
nodes = (
"221 358 OFFCURVE",
"283 362 OFFCURVE",
"354 376 CURVE SMOOTH",
"365 378 OFFCURVE",
"373 386 OFFCURVE",
"373 401 CURVE SMOOTH",
"373 427 OFFCURVE",
"361 450 OFFCURVE",
"344 450 CURVE SMOOTH",
"24 450 LINE SMOOTH",
"14 450 OFFCURVE",
"10 441 OFFCURVE",
"10 429 CURVE SMOOTH",
"10 413 OFFCURVE",
"18 387 OFFCURVE",
"32 382 CURVE SMOOTH",
"80 364 OFFCURVE",
"133 358 OFFCURVE",
"167 358 CURVE"
);
},
{
closed = 1;
nodes = (
"181 -263 OFFCURVE",
"198 -234 OFFCURVE",
"198 -209 CURVE SMOOTH",
"198 -111 OFFCURVE",
"212 7 OFFCURVE",
"212 105 CURVE SMOOTH",
"213 416 LINE SMOOTH",
"215 616 OFFCURVE",
"247 675 OFFCURVE",
"327 675 CURVE SMOOTH",
"367 675 OFFCURVE",
"378 659 OFFCURVE",
"403 659 CURVE SMOOTH",
"427 659 OFFCURVE",
"439 677 OFFCURVE",
"439 698 CURVE SMOOTH",
"439 723 OFFCURVE",
"422 737 OFFCURVE",
"400 745 CURVE SMOOTH",
"380 753 OFFCURVE",
"355 760 OFFCURVE",
"327 760 CURVE",
"267 760 OFFCURVE",
"228 742 OFFCURVE",
"199 717 CURVE SMOOTH",
"131 656 OFFCURVE",
"114 524 OFFCURVE",
"117 416 CURVE SMOOTH",
"127 105 LINE SMOOTH",
"129 25 OFFCURVE",
"97 -125 OFFCURVE",
"97 -194 CURVE SMOOTH",
"97 -227 OFFCURVE",
"143 -263 OFFCURVE",
"165 -263 CURVE SMOOTH"
);
}
);
};
layerId = "D34FCF88-AF1D-4520-8FB0-498E26D42FBC";
paths = (
{
closed = 1;
nodes = (
"236 358 OFFCURVE",
"321 366 OFFCURVE",
"403 378 CURVE SMOOTH",
"410 379 OFFCURVE",
"421 385 OFFCURVE",
"421 404 CURVE SMOOTH",
"421 427 OFFCURVE",
"409 450 OFFCURVE",
"393 450 CURVE SMOOTH",
"24 450 LINE SMOOTH",
"14 450 OFFCURVE",
"10 441 OFFCURVE",
"10 429 CURVE SMOOTH",
"10 413 OFFCURVE",
"18 387 OFFCURVE",
"32 382 CURVE SMOOTH",
"80 364 OFFCURVE",
"133 358 OFFCURVE",
"167 358 CURVE"
);
},
{
closed = 1;
nodes = (
"217 428 OFFCURVE",
"231 495 OFFCURVE",
"231 538 CURVE SMOOTH",
"231 599 OFFCURVE",
"197 626 OFFCURVE",
"146 615 CURVE",
"121 378 LINE",
"121 161 LINE SMOOTH",
"121 43 OFFCURVE",
"176 -21 OFFCURVE",
"283 -21 CURVE SMOOTH",
"368 -21 OFFCURVE",
"438 34 OFFCURVE",
"438 85 CURVE SMOOTH",
"438 117 OFFCURVE",
"411 144 OFFCURVE",
"404 144 CURVE SMOOTH",
"395 144 OFFCURVE",
"355 64 OFFCURVE",
"283 64 CURVE SMOOTH",
"227 64 OFFCURVE",
"206 94 OFFCURVE",
"206 184 CURVE SMOOTH",
"206 378 LINE"
);
}
);
width = 468;
}
);
unicode = 0074;
},
{
color = -1;
glyphname = tbar;
lastChange = "2016-02-12 12:36:05 +0000";
layers = (
{
anchors = (
{
name = bottom;
position = "{261, 0}";
}
);
layerId = "D34FCF88-AF1D-4520-8FB0-498E26D42FBC";
paths = (
{
closed = 1;
nodes = (
"236 358 OFFCURVE",
"321 366 OFFCURVE",
"403 378 CURVE SMOOTH",
"410 379 OFFCURVE",
"421 385 OFFCURVE",
"421 404 CURVE SMOOTH",
"421 427 OFFCURVE",
"409 450 OFFCURVE",
"393 450 CURVE SMOOTH",
"24 450 LINE SMOOTH",
"14 450 OFFCURVE",
"10 441 OFFCURVE",
"10 429 CURVE SMOOTH",
"10 413 OFFCURVE",
"18 387 OFFCURVE",
"32 382 CURVE SMOOTH",
"80 364 OFFCURVE",
"133 358 OFFCURVE",
"167 358 CURVE"
);
},
{
closed = 1;
nodes = (
"217 428 OFFCURVE",
"231 495 OFFCURVE",
"231 538 CURVE SMOOTH",
"231 599 OFFCURVE",
"197 626 OFFCURVE",
"146 615 CURVE",
"121 378 LINE",
"121 161 LINE SMOOTH",
"121 43 OFFCURVE",
"176 -21 OFFCURVE",
"283 -21 CURVE SMOOTH",
"368 -21 OFFCURVE",
"438 34 OFFCURVE",
"438 85 CURVE SMOOTH",
"438 117 OFFCURVE",
"411 144 OFFCURVE",
"404 144 CURVE SMOOTH",
"395 144 OFFCURVE",
"355 64 OFFCURVE",
"283 64 CURVE SMOOTH",
"227 64 OFFCURVE",
"206 93 OFFCURVE",
"206 178 CURVE SMOOTH",
"206 378 LINE"
);
},
{
closed = 1;
nodes = (
"358 211 LINE SMOOTH",
"378 211 OFFCURVE",
"389 218 OFFCURVE",
"389 237 CURVE SMOOTH",
"389 263 OFFCURVE",
"374 289 OFFCURVE",
"354 289 CURVE SMOOTH",
"24 289 LINE SMOOTH",
"14 289 OFFCURVE",
"10 278 OFFCURVE",
"10 262 CURVE SMOOTH",
"10 246 OFFCURVE",
"23 211 OFFCURVE",
"43 211 CURVE"
);
}
);
width = 468;
}
);
unicode = 0167;
},
{
color = -1;
glyphname = u;
lastChange = "2016-02-12 12:36:05 +0000";
layers = (
{
anchors = (
{
name = top;
position = "{315, 450}";
}
);
background = {
paths = (
{
closed = 1;
nodes = (
"218 -21 OFFCURVE",
"276 388 OFFCURVE",
"373 388 CURVE SMOOTH",
"396 388 OFFCURVE",
"409 354 OFFCURVE",
"409 311 CURVE SMOOTH",
"409 116 LINE SMOOTH",
"409 22 OFFCURVE",
"449 -21 OFFCURVE",
"517 -21 CURVE SMOOTH",
"555 -21 OFFCURVE",
"595 -7 OFFCURVE",
"595 29 CURVE",
"595 55 OFFCURVE",
"579 69 OFFCURVE",
"562 69 CURVE",
"545 69 OFFCURVE",
"540 64 OFFCURVE",
"522 64 CURVE SMOOTH",
"504 64 OFFCURVE",
"494 79 OFFCURVE",
"494 116 CURVE SMOOTH",
"494 311 LINE SMOOTH",
"494 431 OFFCURVE",
"431 473 OFFCURVE",
"373 473 CURVE SMOOTH",
"269 473 OFFCURVE",
"196 263 OFFCURVE",
"166 146 CURVE",
"166 146 OFFCURVE",
"177 149 OFFCURVE",
"177 149 CURVE",
"171 356 OFFCURVE",
"123 473 OFFCURVE",
"62 473 CURVE SMOOTH",
"39 473 OFFCURVE",
"15 452 OFFCURVE",
"15 426 CURVE SMOOTH",
"15 374 OFFCURVE",
"95 305 OFFCURVE",
"95 228 CURVE SMOOTH",
"95 115 LINE SMOOTH",
"95 61 OFFCURVE",
"91 59 OFFCURVE",
"91 30 CURVE SMOOTH",
"91 -3 OFFCURVE",
"110 -21 OFFCURVE",
"134 -21 CURVE SMOOTH"
);
}
);
};
layerId = "D34FCF88-AF1D-4520-8FB0-498E26D42FBC";
paths = (
{
closed = 1;
nodes = (
"288 -21 OFFCURVE",
"370 102 OFFCURVE",
"413 186 CURVE SMOOTH",
"449 254 OFFCURVE",
"520 355 OFFCURVE",
"520 434 CURVE SMOOTH",
"520 458 OFFCURVE",
"492 473 OFFCURVE",
"473 473 CURVE SMOOTH",
"450 473 OFFCURVE",
"387 430 OFFCURVE",
"387 345 CURVE SMOOTH",
"387 284 OFFCURVE",
"404 237 OFFCURVE",
"414 155 CURVE SMOOTH",
"419 117 LINE SMOOTH",
"430 21 OFFCURVE",
"472 -21 OFFCURVE",
"524 -21 CURVE SMOOTH",
"547 -21 OFFCURVE",
"570 0 OFFCURVE",
"570 27 CURVE SMOOTH",
"570 79 OFFCURVE",
"503 51 OFFCURVE",
"494 153 CURVE SMOOTH",
"483 275 LINE",
"483 275 OFFCURVE",
"489 392 OFFCURVE",
"489 392 CURVE",
"489 392 OFFCURVE",
"440 413 OFFCURVE",
"440 413 CURVE",
"350 215 LINE SMOOTH",
"314 133 OFFCURVE",
"247 64 OFFCURVE",
"204 64 CURVE SMOOTH",
"181 64 OFFCURVE",
"159 82 OFFCURVE",
"159 206 CURVE SMOOTH",
"159 316 OFFCURVE",
"185 417 OFFCURVE",
"185 452 CURVE SMOOTH",
"185 477 OFFCURVE",
"171 491 OFFCURVE",
"140 491 CURVE SMOOTH",
"88 491 OFFCURVE",
"71 362 OFFCURVE",
"71 209 CURVE SMOOTH",
"71 14 OFFCURVE",
"144 -21 OFFCURVE",
"204 -21 CURVE SMOOTH"
);
}
);
width = 602;
}
);
unicode = 0075;
},
{
color = -1;
glyphname = v;
lastChange = "2016-02-12 12:36:05 +0000";
layers = (
{
layerId = "D34FCF88-AF1D-4520-8FB0-498E26D42FBC";
paths = (
{
closed = 1;
nodes = (
"241 -21 OFFCURVE",
"259 -2 OFFCURVE",
"279 29 CURVE SMOOTH",
"366 167 LINE SMOOTH",
"440 284 OFFCURVE",
"470 358 OFFCURVE",
"470 404 CURVE SMOOTH",
"470 445 OFFCURVE",
"451 473 OFFCURVE",
"424 473 CURVE SMOOTH",
"371 473 OFFCURVE",
"390 367 OFFCURVE",
"335 275 CURVE SMOOTH",
"216 80 LINE",
"239 85 LINE",
"178 231 LINE SMOOTH",
"143 315 OFFCURVE",
"137 358 OFFCURVE",
"124 401 CURVE SMOOTH",
"106 456 OFFCURVE",
"67 473 OFFCURVE",
"35 473 CURVE SMOOTH",
"22 473 OFFCURVE",
"10 455 OFFCURVE",
"10 434 CURVE SMOOTH",
"10 401 OFFCURVE",
"28 382 OFFCURVE",
"44 338 CURVE SMOOTH",
"166 33 LINE SMOOTH",
"181 -7 OFFCURVE",
"196 -21 OFFCURVE",
"211 -21 CURVE"
);
}
);
width = 488;
}
);
unicode = 0076;
},
{
color = -1;
glyphname = w;
lastChange = "2016-02-12 12:36:05 +0000";
layers = (
{
anchors = (
{
name = top;
position = "{426, 450}";
}
);
background = {
paths = (
{
closed = 1;
nodes = (
"246 -21 OFFCURVE",
"304 388 OFFCURVE",
"401 388 CURVE SMOOTH",
"424 388 OFFCURVE",
"437 354 OFFCURVE",
"437 311 CURVE SMOOTH",
"437 116 LINE SMOOTH",
"437 22 OFFCURVE",
"477 -21 OFFCURVE",
"545 -21 CURVE SMOOTH",
"583 -21 OFFCURVE",
"623 -7 OFFCURVE",
"623 29 CURVE SMOOTH",
"623 55 OFFCURVE",
"607 69 OFFCURVE",
"590 69 CURVE",
"573 69 OFFCURVE",
"568 64 OFFCURVE",
"550 64 CURVE SMOOTH",
"532 64 OFFCURVE",
"522 79 OFFCURVE",
"522 116 CURVE SMOOTH",
"522 311 LINE SMOOTH",
"522 431 OFFCURVE",
"459 473 OFFCURVE",
"401 473 CURVE SMOOTH",
"297 473 OFFCURVE",
"224 263 OFFCURVE",
"194 146 CURVE",
"194 146 OFFCURVE",
"205 149 OFFCURVE",
"205 149 CURVE",
"199 356 OFFCURVE",
"151 473 OFFCURVE",
"90 473 CURVE SMOOTH",
"67 473 OFFCURVE",
"43 452 OFFCURVE",
"43 426 CURVE SMOOTH",
"43 374 OFFCURVE",
"123 305 OFFCURVE",
"123 228 CURVE SMOOTH",
"123 115 LINE SMOOTH",
"123 61 OFFCURVE",
"119 59 OFFCURVE",
"119 30 CURVE SMOOTH",
"119 -3 OFFCURVE",
"138 -21 OFFCURVE",
"162 -21 CURVE SMOOTH"
);
}
);
};
guideLines = (
{
position = "{378, 100}";
}
);
layerId = "D34FCF88-AF1D-4520-8FB0-498E26D42FBC";
paths = (
{
closed = 1;
nodes = (
"480 428 OFFCURVE",
"455 470 OFFCURVE",
"411 470 CURVE SMOOTH",
"375 470 OFFCURVE",
"399 403 OFFCURVE",
"322 275 CURVE SMOOTH",
"203 80 LINE",
"221 90 LINE",
"207 231 LINE SMOOTH",
"194 367 OFFCURVE",
"150 473 OFFCURVE",
"88 473 CURVE SMOOTH",
"64 473 OFFCURVE",
"41 452 OFFCURVE",
"41 426 CURVE SMOOTH",
"41 375 OFFCURVE",
"114 307 OFFCURVE",
"122 239 CURVE SMOOTH",
"143 51 LINE SMOOTH",
"147 12 OFFCURVE",
"184 -21 OFFCURVE",
"202 -21 CURVE SMOOTH",
"224 -21 OFFCURVE",
"245 -4 OFFCURVE",
"266 29 CURVE SMOOTH",
"353 167 LINE SMOOTH",
"401 243 OFFCURVE",
"429 299 OFFCURVE",
"445 343 CURVE",
"418 321 LINE",
"474 48 LINE SMOOTH",
"480 12 OFFCURVE",
"528 -21 OFFCURVE",
"551 -21 CURVE SMOOTH",
"570 -21 OFFCURVE",
"589 -1 OFFCURVE",
"607 29 CURVE SMOOTH",
"693 167 LINE SMOOTH",
"761 279 OFFCURVE",
"808 358 OFFCURVE",
"808 404 CURVE SMOOTH",
"808 445 OFFCURVE",
"789 473 OFFCURVE",
"761 473 CURVE SMOOTH",
"701 473 OFFCURVE",
"711 358 OFFCURVE",
"662 275 CURVE SMOOTH",
"536 64 LINE",
"563 44 LINE",
"499 343 LINE SMOOTH"
);
}
);
width = 823;
}
);
unicode = 0077;
},
{
color = -1;
glyphname = x;
lastChange = "2016-02-12 12:36:05 +0000";
layers = (
{
background = {
paths = (
{
closed = 1;
nodes = (
"130 -14 OFFCURVE",
"148 42 OFFCURVE",
"213 116 CURVE SMOOTH",
"298 212 LINE",
"377 288 LINE SMOOTH",
"425 335 OFFCURVE",
"490 359 OFFCURVE",
"493 409 CURVE SMOOTH",
"495 440 OFFCURVE",
"480 462 OFFCURVE",
"464 463 CURVE SMOOTH",
"440 464 OFFCURVE",
"407 439 OFFCURVE",
"371 400 CURVE SMOOTH",
"157 171 LINE SMOOTH",
"97 107 OFFCURVE",
"37 59 OFFCURVE",
"35 21 CURVE SMOOTH",
"34 3 OFFCURVE",
"53 -10 OFFCURVE",
"76 -11 CURVE"
);
},
{
closed = 1;
nodes = (
"482 -33 OFFCURVE",
"503 -15 OFFCURVE",
"504 11 CURVE SMOOTH",
"505 49 OFFCURVE",
"464 78 OFFCURVE",
"436 111 CURVE SMOOTH",
"305 268 LINE",
"252 204 LINE",
"343 95 LINE SMOOTH",
"387 43 OFFCURVE",
"416 -30 OFFCURVE",
"457 -32 CURVE"
);
},
{
closed = 1;
nodes = (
"286 277 LINE",
"228 347 LINE SMOOTH",
"175 410 OFFCURVE",
"157 479 OFFCURVE",
"117 481 CURVE SMOOTH",
"92 482 OFFCURVE",
"72 463 OFFCURVE",
"71 439 CURVE SMOOTH",
"69 402 OFFCURVE",
"126 342 OFFCURVE",
"171 289 CURVE SMOOTH",
"237 212 LINE"
);
}
);
};
layerId = "D34FCF88-AF1D-4520-8FB0-498E26D42FBC";
paths = (
{
closed = 1;
nodes = (
"478 -21 OFFCURVE",
"497 -9 OFFCURVE",
"497 9 CURVE SMOOTH",
"497 47 OFFCURVE",
"440 98 OFFCURVE",
"384 165 CURVE SMOOTH",
"182 406 LINE SMOOTH",
"148 446 OFFCURVE",
"117 473 OFFCURVE",
"93 473 CURVE SMOOTH",
"77 473 OFFCURVE",
"61 452 OFFCURVE",
"61 421 CURVE SMOOTH",
"61 371 OFFCURVE",
"119 343 OFFCURVE",
"165 294 CURVE SMOOTH",
"239 214 LINE",
"325 113 LINE SMOOTH",
"389 38 OFFCURVE",
"401 -21 OFFCURVE",
"455 -21 CURVE"
);
},
{
closed = 1;
nodes = (
"114 -21 OFFCURVE",
"148 49 OFFCURVE",
"194 99 CURVE SMOOTH",
"290 203 LINE",
"241 270 LINE",
"102 120 LINE SMOOTH",
"73 88 OFFCURVE",
"28 62 OFFCURVE",
"28 24 CURVE SMOOTH",
"28 -2 OFFCURVE",
"48 -21 OFFCURVE",
"73 -21 CURVE"
);
},
{
closed = 1;
nodes = (
"376 284 LINE SMOOTH",
"424 334 OFFCURVE",
"484 391 OFFCURVE",
"484 428 CURVE SMOOTH",
"484 452 OFFCURVE",
"465 473 OFFCURVE",
"440 473 CURVE SMOOTH",
"400 473 OFFCURVE",
"378 406 OFFCURVE",
"322 345 CURVE SMOOTH",
"260 278 LINE",
"306 211 LINE"
);
}
);
width = 538;
}
);
unicode = 0078;
},
{
color = -1;
glyphname = y;
lastChange = "2016-02-12 12:36:05 +0000";
layers = (
{
anchors = (
{
name = top;
position = "{323, 450}";
}
);
background = {
paths = (
{
closed = 1;
nodes = (
"288 -21 OFFCURVE",
"370 102 OFFCURVE",
"413 186 CURVE SMOOTH",
"448 254 OFFCURVE",
"520 355 OFFCURVE",
"520 434 CURVE SMOOTH",
"520 458 OFFCURVE",
"492 473 OFFCURVE",
"473 473 CURVE SMOOTH",
"450 473 OFFCURVE",
"387 430 OFFCURVE",
"387 345 CURVE SMOOTH",
"387 284 OFFCURVE",
"403 237 OFFCURVE",
"414 155 CURVE SMOOTH",
"419 117 LINE SMOOTH",
"432 21 OFFCURVE",
"472 -21 OFFCURVE",
"524 -21 CURVE SMOOTH",
"547 -21 OFFCURVE",
"570 0 OFFCURVE",
"570 27 CURVE SMOOTH",
"570 79 OFFCURVE",
"503 51 OFFCURVE",
"494 153 CURVE SMOOTH",
"483 275 LINE",
"483 275 OFFCURVE",
"489 392 OFFCURVE",
"489 392 CURVE",
"489 392 OFFCURVE",
"440 413 OFFCURVE",
"440 413 CURVE",
"350 215 LINE SMOOTH",
"313 133 OFFCURVE",
"247 64 OFFCURVE",
"204 64 CURVE SMOOTH",
"181 64 OFFCURVE",
"159 82 OFFCURVE",
"159 206 CURVE SMOOTH",
"159 316 OFFCURVE",
"185 417 OFFCURVE",
"185 452 CURVE SMOOTH",
"185 477 OFFCURVE",
"171 491 OFFCURVE",
"140 491 CURVE SMOOTH",
"88 491 OFFCURVE",
"71 362 OFFCURVE",
"71 209 CURVE SMOOTH",
"71 14 OFFCURVE",
"144 -21 OFFCURVE",
"204 -21 CURVE SMOOTH"
);
}
);
};
layerId = "D34FCF88-AF1D-4520-8FB0-498E26D42FBC";
paths = (
{
closed = 1;
nodes = (
"440 -45 OFFCURVE",
"418 -178 OFFCURVE",
"268 -178 CURVE SMOOTH",
"162 -178 OFFCURVE",
"137 -87 OFFCURVE",
"74 -87 CURVE SMOOTH",
"45 -87 OFFCURVE",
"31 -107 OFFCURVE",
"31 -131 CURVE SMOOTH",
"31 -156 OFFCURVE",
"54 -184 OFFCURVE",
"99 -212 CURVE SMOOTH",
"141 -238 OFFCURVE",
"203 -263 OFFCURVE",
"268 -263 CURVE SMOOTH",
"422 -263 OFFCURVE",
"526 -160 OFFCURVE",
"500 98 CURVE SMOOTH",
"482 275 LINE",
"482 275 OFFCURVE",
"489 392 OFFCURVE",
"489 392 CURVE",
"489 392 OFFCURVE",
"439 413 OFFCURVE",
"439 413 CURVE",
"360 259 LINE SMOOTH",
"317 174 OFFCURVE",
"250 97 OFFCURVE",
"203 97 CURVE SMOOTH",
"180 97 OFFCURVE",
"158 114 OFFCURVE",
"158 228 CURVE SMOOTH",
"158 328 OFFCURVE",
"185 420 OFFCURVE",
"185 452 CURVE SMOOTH",
"185 477 OFFCURVE",
"170 491 OFFCURVE",
"139 491 CURVE SMOOTH",
"87 491 OFFCURVE",
"71 372 OFFCURVE",
"71 231 CURVE SMOOTH",
"71 45 OFFCURVE",
"144 12 OFFCURVE",
"203 12 CURVE SMOOTH",
"292 12 OFFCURVE",
"378 139 OFFCURVE",
"423 230 CURVE",
"452 255 LINE",
"481 310 OFFCURVE",
"520 374 OFFCURVE",
"520 434 CURVE SMOOTH",
"520 458 OFFCURVE",
"491 473 OFFCURVE",
"472 473 CURVE SMOOTH",
"449 473 OFFCURVE",
"386 430 OFFCURVE",
"386 345 CURVE SMOOTH",
"386 284 OFFCURVE",
"404 237 OFFCURVE",
"413 155 CURVE"
);
}
);
width = 601;
}
);
unicode = 0079;
},
{
color = -1;
glyphname = z;
lastChange = "2016-02-12 12:36:05 +0000";
layers = (
{
anchors = (
{
name = top;
position = "{267, 450}";
}
);
layerId = "D34FCF88-AF1D-4520-8FB0-498E26D42FBC";
paths = (
{
closed = 1;
nodes = (
"152 -21 OFFCURVE",
"199 15 OFFCURVE",
"279 15 CURVE SMOOTH",
"327 15 OFFCURVE",
"378 -15 OFFCURVE",
"416 -15 CURVE SMOOTH",
"470 -15 OFFCURVE",
"514 42 OFFCURVE",
"514 74 CURVE SMOOTH",
"514 100 OFFCURVE",
"500 133 OFFCURVE",
"471 133 CURVE SMOOTH",
"452 133 OFFCURVE",
"436 70 OFFCURVE",
"407 70 CURVE SMOOTH",
"374 70 OFFCURVE",
"323 101 OFFCURVE",
"279 101 CURVE SMOOTH",
"238 101 OFFCURVE",
"202 87 OFFCURVE",
"153 58 CURVE",
"153 58 OFFCURVE",
"154 58 OFFCURVE",
"154 45 CURVE",
"432 437 LINE",
"393 420 LINE",
"182 450 LINE SMOOTH",
"150 455 OFFCURVE",
"117 473 OFFCURVE",
"95 473 CURVE SMOOTH",
"76 473 OFFCURVE",
"49 463 OFFCURVE",
"49 429 CURVE SMOOTH",
"49 405 OFFCURVE",
"66 383 OFFCURVE",
"103 377 CURVE SMOOTH",
"327 341 LINE SMOOTH",
"413 326 OFFCURVE",
"477 397 OFFCURVE",
"477 426 CURVE SMOOTH",
"477 445 OFFCURVE",
"461 473 OFFCURVE",
"437 473 CURVE SMOOTH",
"375 473 OFFCURVE",
"327 407 OFFCURVE",
"295 366 CURVE SMOOTH",
"102 113 LINE SMOOTH",
"80 83 OFFCURVE",
"61 60 OFFCURVE",
"61 32 CURVE SMOOTH",
"61 -9 OFFCURVE",
"91 -21 OFFCURVE",
"114 -21 CURVE SMOOTH"
);
}
);
width = 533;
}
);
unicode = 007A;
},
{
color = -1;
glyphname = f.calt;
lastChange = "2016-02-12 12:36:05 +0000";
layers = (
{
background = {
paths = (
{
closed = 1;
nodes = (
"221 358 OFFCURVE",
"283 364 OFFCURVE",
"354 376 CURVE SMOOTH",
"365 378 OFFCURVE",
"373 386 OFFCURVE",
"373 401 CURVE SMOOTH",
"373 427 OFFCURVE",
"361 450 OFFCURVE",
"344 450 CURVE SMOOTH",
"24 450 LINE SMOOTH",
"14 450 OFFCURVE",
"10 441 OFFCURVE",
"10 429 CURVE SMOOTH",
"10 413 OFFCURVE",
"18 387 OFFCURVE",
"32 382 CURVE SMOOTH",
"80 364 OFFCURVE",
"133 358 OFFCURVE",
"167 358 CURVE"
);
},
{
closed = 1;
nodes = (
"181 -263 OFFCURVE",
"198 -234 OFFCURVE",
"198 -209 CURVE SMOOTH",
"198 -111 OFFCURVE",
"212 7 OFFCURVE",
"212 105 CURVE SMOOTH",
"213 416 LINE SMOOTH",
"215 616 OFFCURVE",
"247 675 OFFCURVE",
"327 675 CURVE SMOOTH",
"367 675 OFFCURVE",
"378 659 OFFCURVE",
"403 659 CURVE SMOOTH",
"427 659 OFFCURVE",
"439 677 OFFCURVE",
"439 698 CURVE SMOOTH",
"439 723 OFFCURVE",
"422 737 OFFCURVE",
"400 745 CURVE SMOOTH",
"380 753 OFFCURVE",
"355 760 OFFCURVE",
"327 760 CURVE",
"267 760 OFFCURVE",
"228 742 OFFCURVE",
"199 717 CURVE SMOOTH",
"131 656 OFFCURVE",
"114 524 OFFCURVE",
"117 416 CURVE SMOOTH",
"127 105 LINE SMOOTH",
"129 25 OFFCURVE",
"97 -125 OFFCURVE",
"97 -194 CURVE SMOOTH",
"97 -227 OFFCURVE",
"143 -263 OFFCURVE",
"165 -263 CURVE SMOOTH"
);
}
);
};
layerId = "D34FCF88-AF1D-4520-8FB0-498E26D42FBC";
paths = (
{
closed = 1;
nodes = (
"221 358 OFFCURVE",
"283 364 OFFCURVE",
"354 376 CURVE SMOOTH",
"365 378 OFFCURVE",
"373 386 OFFCURVE",
"373 401 CURVE SMOOTH",
"373 427 OFFCURVE",
"361 450 OFFCURVE",
"344 450 CURVE SMOOTH",
"24 450 LINE SMOOTH",
"14 450 OFFCURVE",
"10 441 OFFCURVE",
"10 429 CURVE SMOOTH",
"10 413 OFFCURVE",
"18 387 OFFCURVE",
"32 382 CURVE SMOOTH",
"80 364 OFFCURVE",
"133 358 OFFCURVE",
"167 358 CURVE"
);
},
{
closed = 1;
nodes = (
"181 -263 OFFCURVE",
"198 -234 OFFCURVE",
"198 -209 CURVE SMOOTH",
"198 -111 OFFCURVE",
"212 7 OFFCURVE",
"212 105 CURVE SMOOTH",
"213 416 LINE SMOOTH",
"215 608 OFFCURVE",
"246 674 OFFCURVE",
"307 674 CURVE SMOOTH",
"330 674 OFFCURVE",
"335 671 OFFCURVE",
"348 671 CURVE SMOOTH",
"372 671 OFFCURVE",
"384 687 OFFCURVE",
"384 710 CURVE SMOOTH",
"384 743 OFFCURVE",
"353 759 OFFCURVE",
"305 759 CURVE SMOOTH",
"270 759 OFFCURVE",
"222 743 OFFCURVE",
"187 705 CURVE SMOOTH",
"136 649 OFFCURVE",
"113 538 OFFCURVE",
"117 416 CURVE SMOOTH",
"127 105 LINE SMOOTH",
"129 25 OFFCURVE",
"97 -125 OFFCURVE",
"97 -194 CURVE SMOOTH",
"97 -227 OFFCURVE",
"143 -263 OFFCURVE",
"165 -263 CURVE SMOOTH"
);
}
);
width = 349;
}
);
},
{
color = -1;
glyphname = a.ss01;
lastChange = "2016-02-12 12:36:05 +0000";
layers = (
{
anchors = (
{
name = top;
position = "{339, 450}";
}
);
background = {
paths = (
{
closed = 1;
nodes = (
"282 -21 OFFCURVE",
"362 85 OFFCURVE",
"425 210 CURVE",
"403 222 LINE",
"418 117 LINE SMOOTH",
"432 9 OFFCURVE",
"476 -21 OFFCURVE",
"524 -21 CURVE SMOOTH",
"547 -21 OFFCURVE",
"570 0 OFFCURVE",
"570 27 CURVE SMOOTH",
"570 79 OFFCURVE",
"488 51 OFFCURVE",
"493 153 CURVE SMOOTH",
"503 397 LINE",
"514 550 LINE SMOOTH",
"518 608 OFFCURVE",
"531 660 OFFCURVE",
"531 712 CURVE SMOOTH",
"531 739 OFFCURVE",
"498 760 OFFCURVE",
"475 760 CURVE SMOOTH",
"445 760 OFFCURVE",
"424 738 OFFCURVE",
"424 688 CURVE SMOOTH",
"424 659 OFFCURVE",
"432 628 OFFCURVE",
"430 599 CURVE SMOOTH",
"420 447 LINE",
"381 463 OFFCURVE",
"335 473 OFFCURVE",
"295 473 CURVE SMOOTH",
"119 473 OFFCURVE",
"71 334 OFFCURVE",
"71 176 CURVE SMOOTH",
"71 9 OFFCURVE",
"144 -21 OFFCURVE",
"204 -21 CURVE SMOOTH"
);
},
{
closed = 1;
nodes = (
"181 65 OFFCURVE",
"159 80 OFFCURVE",
"159 173 CURVE SMOOTH",
"159 303 OFFCURVE",
"194 388 OFFCURVE",
"295 388 CURVE SMOOTH",
"347 388 OFFCURVE",
"384 374 OFFCURVE",
"413 355 CURVE",
"350 215 LINE SMOOTH",
"314 134 OFFCURVE",
"247 65 OFFCURVE",
"204 65 CURVE SMOOTH"
);
}
);
};
layerId = "D34FCF88-AF1D-4520-8FB0-498E26D42FBC";
paths = (
{
closed = 1;
nodes = (
"316 137 OFFCURVE",
"247 65 OFFCURVE",
"204 65 CURVE SMOOTH",
"181 65 OFFCURVE",
"159 80 OFFCURVE",
"159 173 CURVE SMOOTH",
"159 303 OFFCURVE",
"194 388 OFFCURVE",
"295 388 CURVE SMOOTH",
"347 388 OFFCURVE",
"384 375 OFFCURVE",
"416 351 CURVE",
"430 442 LINE",
"383 463 OFFCURVE",
"335 473 OFFCURVE",
"295 473 CURVE SMOOTH",
"119 473 OFFCURVE",
"71 334 OFFCURVE",
"71 176 CURVE SMOOTH",
"71 9 OFFCURVE",
"144 -21 OFFCURVE",
"204 -21 CURVE SMOOTH",
"282 -21 OFFCURVE",
"356 81 OFFCURVE",
"413 186 CURVE SMOOTH",
"451 254 OFFCURVE",
"520 365 OFFCURVE",
"520 434 CURVE SMOOTH",
"520 458 OFFCURVE",
"492 473 OFFCURVE",
"473 473 CURVE SMOOTH",
"450 473 OFFCURVE",
"387 430 OFFCURVE",
"387 345 CURVE SMOOTH",
"387 284 OFFCURVE",
"404 237 OFFCURVE",
"414 155 CURVE SMOOTH",
"419 117 LINE SMOOTH",
"430 21 OFFCURVE",
"472 -21 OFFCURVE",
"524 -21 CURVE SMOOTH",
"547 -21 OFFCURVE",
"570 0 OFFCURVE",
"570 27 CURVE SMOOTH",
"570 79 OFFCURVE",
"503 51 OFFCURVE",
"494 153 CURVE SMOOTH",
"483 275 LINE",
"483 275 OFFCURVE",
"489 392 OFFCURVE",
"489 392 CURVE",
"489 392 OFFCURVE",
"440 413 OFFCURVE",
"440 413 CURVE",
"350 215 LINE"
);
}
);
width = 620;
}
);
},
{
color = -1;
glyphname = ae.ss01;
lastChange = "2016-02-12 12:36:05 +0000";
layers = (
{
anchors = (
{
name = top;
position = "{503, 450}";
}
);
background = {
paths = (
{
closed = 1;
nodes = (
"487 351 LINE",
"488 374 OFFCURVE",
"489 392 OFFCURVE",
"489 392 CURVE",
"489 392 OFFCURVE",
"440 413 OFFCURVE",
"440 413 CURVE",
"350 215 LINE",
"316 137 OFFCURVE",
"247 65 OFFCURVE",
"204 65 CURVE SMOOTH",
"181 65 OFFCURVE",
"159 80 OFFCURVE",
"159 173 CURVE SMOOTH",
"159 303 OFFCURVE",
"194 388 OFFCURVE",
"295 388 CURVE SMOOTH",
"347 388 OFFCURVE",
"384 375 OFFCURVE",
"416 351 CURVE",
"430 442 LINE",
"383 463 OFFCURVE",
"335 473 OFFCURVE",
"295 473 CURVE SMOOTH",
"119 473 OFFCURVE",
"71 334 OFFCURVE",
"71 176 CURVE SMOOTH",
"71 9 OFFCURVE",
"144 -21 OFFCURVE",
"204 -21 CURVE SMOOTH",
"282 -21 OFFCURVE",
"356 81 OFFCURVE",
"413 186 CURVE",
"397 258 LINE"
);
},
{
closed = 1;
nodes = (
"476 471 OFFCURVE",
"379 352 OFFCURVE",
"379 220 CURVE SMOOTH",
"379 79 OFFCURVE",
"470 -22 OFFCURVE",
"606 -21 CURVE SMOOTH",
"724 -20 OFFCURVE",
"810 58 OFFCURVE",
"810 108 CURVE SMOOTH",
"810 132 OFFCURVE",
"796 153 OFFCURVE",
"769 153 CURVE SMOOTH",
"719 153 OFFCURVE",
"719 64 OFFCURVE",
"606 64 CURVE SMOOTH",
"525 64 OFFCURVE",
"467 127 OFFCURVE",
"467 220 CURVE SMOOTH",
"467 294 OFFCURVE",
"517 388 OFFCURVE",
"624 388 CURVE SMOOTH",
"669 388 OFFCURVE",
"689 363 OFFCURVE",
"689 338 CURVE SMOOTH",
"689 289 OFFCURVE",
"581 244 OFFCURVE",
"420 225 CURVE",
"461 149 LINE",
"656 177 OFFCURVE",
"791 241 OFFCURVE",
"791 338 CURVE SMOOTH",
"791 406 OFFCURVE",
"720 474 OFFCURVE",
"624 473 CURVE SMOOTH"
);
}
);
};
layerId = "D34FCF88-AF1D-4520-8FB0-498E26D42FBC";
paths = (
{
closed = 1;
nodes = (
"487 351 LINE",
"488 374 OFFCURVE",
"489 392 OFFCURVE",
"489 392 CURVE",
"489 392 OFFCURVE",
"440 413 OFFCURVE",
"440 413 CURVE",
"350 215 LINE",
"316 137 OFFCURVE",
"247 65 OFFCURVE",
"204 65 CURVE SMOOTH",
"181 65 OFFCURVE",
"159 80 OFFCURVE",
"159 173 CURVE SMOOTH",
"159 303 OFFCURVE",
"194 388 OFFCURVE",
"295 388 CURVE SMOOTH",
"347 388 OFFCURVE",
"384 375 OFFCURVE",
"416 351 CURVE",
"483 416 LINE",
"417 454 OFFCURVE",
"351 473 OFFCURVE",
"295 473 CURVE SMOOTH",
"119 473 OFFCURVE",
"71 334 OFFCURVE",
"71 176 CURVE SMOOTH",
"71 9 OFFCURVE",
"144 -21 OFFCURVE",
"204 -21 CURVE SMOOTH",
"282 -21 OFFCURVE",
"356 81 OFFCURVE",
"413 186 CURVE",
"397 258 LINE"
);
},
{
closed = 1;
nodes = (
"476 471 OFFCURVE",
"379 352 OFFCURVE",
"379 220 CURVE SMOOTH",
"379 79 OFFCURVE",
"470 -22 OFFCURVE",
"606 -21 CURVE SMOOTH",
"724 -20 OFFCURVE",
"810 58 OFFCURVE",
"810 108 CURVE SMOOTH",
"810 132 OFFCURVE",
"796 153 OFFCURVE",
"769 153 CURVE SMOOTH",
"719 153 OFFCURVE",
"719 64 OFFCURVE",
"606 64 CURVE SMOOTH",
"525 64 OFFCURVE",
"467 127 OFFCURVE",
"467 220 CURVE SMOOTH",
"467 294 OFFCURVE",
"517 388 OFFCURVE",
"624 388 CURVE SMOOTH",
"669 388 OFFCURVE",
"689 363 OFFCURVE",
"689 338 CURVE SMOOTH",
"689 289 OFFCURVE",
"581 244 OFFCURVE",
"420 225 CURVE",
"461 149 LINE",
"656 177 OFFCURVE",
"791 241 OFFCURVE",
"791 338 CURVE SMOOTH",
"791 406 OFFCURVE",
"720 474 OFFCURVE",
"624 473 CURVE SMOOTH"
);
}
);
width = 865;
}
);
rightMetricsKey = e;
},
{
color = -1;
glyphname = e.ss01;
lastChange = "2016-02-12 12:36:05 +0000";
layers = (
{
anchors = (
{
name = top;
position = "{267, 450}";
}
);
background = {
paths = (
{
closed = 1;
nodes = (
"406 -20 OFFCURVE",
"492 58 OFFCURVE",
"492 108 CURVE SMOOTH",
"492 132 OFFCURVE",
"478 153 OFFCURVE",
"451 153 CURVE SMOOTH",
"401 153 OFFCURVE",
"401 64 OFFCURVE",
"288 64 CURVE SMOOTH",
"207 64 OFFCURVE",
"149 127 OFFCURVE",
"149 220 CURVE SMOOTH",
"149 306 OFFCURVE",
"213 388 OFFCURVE",
"295 388 CURVE SMOOTH",
"348 388 OFFCURVE",
"371 363 OFFCURVE",
"371 338 CURVE SMOOTH",
"371 293 OFFCURVE",
"263 253 OFFCURVE",
"102 236 CURVE",
"143 160 LINE",
"338 187 OFFCURVE",
"477 251 OFFCURVE",
"473 338 CURVE SMOOTH",
"469 406 OFFCURVE",
"398 473 OFFCURVE",
"295 473 CURVE SMOOTH",
"165 473 OFFCURVE",
"61 354 OFFCURVE",
"61 220 CURVE SMOOTH",
"61 79 OFFCURVE",
"152 -22 OFFCURVE",
"288 -21 CURVE SMOOTH"
);
}
);
};
guideLines = (
{
angle = 90;
position = "{481, 592}";
}
);
layerId = "D34FCF88-AF1D-4520-8FB0-498E26D42FBC";
paths = (
{
closed = 1;
nodes = (
"400 -20 OFFCURVE",
"481 53 OFFCURVE",
"481 108 CURVE SMOOTH",
"481 132 OFFCURVE",
"467 153 OFFCURVE",
"440 153 CURVE SMOOTH",
"388 153 OFFCURVE",
"391 64 OFFCURVE",
"281 64 CURVE SMOOTH",
"208 64 OFFCURVE",
"149 135 OFFCURVE",
"149 220 CURVE SMOOTH",
"149 306 OFFCURVE",
"211 388 OFFCURVE",
"289 388 CURVE SMOOTH",
"325 388 OFFCURVE",
"350 355 OFFCURVE",
"350 286 CURVE",
"423 357 LINE",
"423 447 OFFCURVE",
"349 473 OFFCURVE",
"289 473 CURVE SMOOTH",
"163 473 OFFCURVE",
"61 354 OFFCURVE",
"61 220 CURVE SMOOTH",
"61 79 OFFCURVE",
"153 -22 OFFCURVE",
"281 -21 CURVE SMOOTH"
);
},
{
closed = 1;
nodes = (
"269 161 OFFCURVE",
"368 210 OFFCURVE",
"454 277 CURVE SMOOTH",
"498 311 OFFCURVE",
"540 359 OFFCURVE",
"540 394 CURVE SMOOTH",
"540 420 OFFCURVE",
"525 434 OFFCURVE",
"507 434 CURVE SMOOTH",
"484 434 OFFCURVE",
"476 415 OFFCURVE",
"456 394 CURVE SMOOTH",
"363 296 OFFCURVE",
"247 237 OFFCURVE",
"102 213 CURVE",
"102 213 OFFCURVE",
"143 138 OFFCURVE",
"143 138 CURVE"
);
}
);
width = 562;
}
);
},
{
color = -1;
glyphname = g.ss01;
lastChange = "2016-02-12 12:36:05 +0000";
layers = (
{
anchors = (
{
name = top;
position = "{332, 450}";
}
);
background = {
paths = (
{
closed = 1;
nodes = (
"314 137 OFFCURVE",
"245 65 OFFCURVE",
"202 65 CURVE SMOOTH",
"179 65 OFFCURVE",
"157 80 OFFCURVE",
"157 173 CURVE SMOOTH",
"157 303 OFFCURVE",
"192 388 OFFCURVE",
"293 388 CURVE SMOOTH",
"345 388 OFFCURVE",
"382 375 OFFCURVE",
"414 351 CURVE",
"428 442 LINE",
"381 463 OFFCURVE",
"333 473 OFFCURVE",
"293 473 CURVE SMOOTH",
"117 473 OFFCURVE",
"69 334 OFFCURVE",
"69 176 CURVE SMOOTH",
"69 9 OFFCURVE",
"142 -21 OFFCURVE",
"202 -21 CURVE SMOOTH",
"280 -21 OFFCURVE",
"354 81 OFFCURVE",
"411 186 CURVE SMOOTH",
"449 254 OFFCURVE",
"518 365 OFFCURVE",
"518 434 CURVE SMOOTH",
"518 458 OFFCURVE",
"490 473 OFFCURVE",
"471 473 CURVE SMOOTH",
"448 473 OFFCURVE",
"385 430 OFFCURVE",
"385 345 CURVE SMOOTH",
"385 284 OFFCURVE",
"402 237 OFFCURVE",
"412 155 CURVE SMOOTH",
"417 117 LINE SMOOTH",
"428 21 OFFCURVE",
"470 -21 OFFCURVE",
"522 -21 CURVE SMOOTH",
"545 -21 OFFCURVE",
"568 0 OFFCURVE",
"568 27 CURVE SMOOTH",
"568 79 OFFCURVE",
"501 51 OFFCURVE",
"492 153 CURVE SMOOTH",
"481 275 LINE",
"481 275 OFFCURVE",
"487 392 OFFCURVE",
"487 392 CURVE",
"487 392 OFFCURVE",
"438 413 OFFCURVE",
"438 413 CURVE",
"348 215 LINE"
);
}
);
};
layerId = "D34FCF88-AF1D-4520-8FB0-498E26D42FBC";
paths = (
{
closed = 1;
nodes = (
"314 174 OFFCURVE",
"247 97 OFFCURVE",
"200 97 CURVE SMOOTH",
"178 97 OFFCURVE",
"156 112 OFFCURVE",
"156 206 CURVE SMOOTH",
"156 316 OFFCURVE",
"188 388 OFFCURVE",
"278 388 CURVE SMOOTH",
"330 388 OFFCURVE",
"367 375 OFFCURVE",
"399 352 CURVE",
"433 434 LINE",
"402 450 OFFCURVE",
"337 473 OFFCURVE",
"278 473 CURVE SMOOTH",
"113 473 OFFCURVE",
"69 349 OFFCURVE",
"69 209 CURVE SMOOTH",
"69 42 OFFCURVE",
"142 12 OFFCURVE",
"201 12 CURVE SMOOTH",
"279 12 OFFCURVE",
"360 113 OFFCURVE",
"423 232 CURVE",
"449 255 LINE",
"478 310 OFFCURVE",
"517 374 OFFCURVE",
"517 434 CURVE SMOOTH",
"517 458 OFFCURVE",
"488 473 OFFCURVE",
"469 473 CURVE SMOOTH",
"446 473 OFFCURVE",
"383 430 OFFCURVE",
"383 345 CURVE SMOOTH",
"383 284 OFFCURVE",
"401 237 OFFCURVE",
"410 155 CURVE SMOOTH",
"432 -46 OFFCURVE",
"415 -178 OFFCURVE",
"265 -178 CURVE SMOOTH",
"159 -178 OFFCURVE",
"134 -87 OFFCURVE",
"71 -87 CURVE SMOOTH",
"42 -87 OFFCURVE",
"28 -107 OFFCURVE",
"28 -131 CURVE SMOOTH",
"28 -156 OFFCURVE",
"51 -184 OFFCURVE",
"96 -212 CURVE SMOOTH",
"138 -238 OFFCURVE",
"200 -263 OFFCURVE",
"265 -263 CURVE SMOOTH",
"419 -263 OFFCURVE",
"523 -159 OFFCURVE",
"497 98 CURVE SMOOTH",
"479 275 LINE",
"479 275 OFFCURVE",
"486 392 OFFCURVE",
"486 392 CURVE",
"486 392 OFFCURVE",
"436 413 OFFCURVE",
"436 413 CURVE",
"357 259 LINE"
);
}
);
width = 598;
}
);
},
{
color = -1;
glyphname = s.ss01;
lastChange = "2016-02-12 12:36:05 +0000";
layers = (
{
anchors = (
{
name = bottom;
position = "{222, 0}";
},
{
name = top;
position = "{228, 450}";
}
);
background = {
guideLines = (
{
angle = 90;
position = "{390, 199}";
},
{
angle = 90;
position = "{72, 199}";
}
);
paths = (
{
closed = 1;
nodes = (
"325 459 OFFCURVE",
"277 470 OFFCURVE",
"228 470 CURVE SMOOTH",
"159 470 OFFCURVE",
"72 429 OFFCURVE",
"72 341 CURVE SMOOTH",
"72 178 OFFCURVE",
"302 207 OFFCURVE",
"302 114 CURVE SMOOTH",
"302 63 OFFCURVE",
"254 54 OFFCURVE",
"222 54 CURVE SMOOTH",
"96 54 OFFCURVE",
"150 164 OFFCURVE",
"90 164 CURVE SMOOTH",
"74 164 OFFCURVE",
"49 138 OFFCURVE",
"49 95 CURVE SMOOTH",
"49 67 OFFCURVE",
"62 39 OFFCURVE",
"89 15 CURVE SMOOTH",
"118 -11 OFFCURVE",
"167 -25 OFFCURVE",
"222 -25 CURVE SMOOTH",
"319 -25 OFFCURVE",
"390 33 OFFCURVE",
"390 114 CURVE SMOOTH",
"390 277 OFFCURVE",
"160 247 OFFCURVE",
"160 341 CURVE SMOOTH",
"160 376 OFFCURVE",
"196 392 OFFCURVE",
"228 392 CURVE SMOOTH",
"276 392 OFFCURVE",
"316 380 OFFCURVE",
"337 357 CURVE",
"337 357 OFFCURVE",
"295 438 OFFCURVE",
"295 438 CURVE",
"316 321 LINE SMOOTH",
"318 305 OFFCURVE",
"327 296 OFFCURVE",
"342 296 CURVE SMOOTH",
"356 296 OFFCURVE",
"366 305 OFFCURVE",
"367 321 CURVE SMOOTH",
"378 439 LINE SMOOTH",
"387 492 OFFCURVE",
"362 502 OFFCURVE",
"338 502 CURVE SMOOTH",
"315 502 OFFCURVE",
"304 488 OFFCURVE",
"298 448 CURVE",
"298 448 OFFCURVE",
"356 441 OFFCURVE",
"356 441 CURVE"
);
}
);
};
layerId = "D34FCF88-AF1D-4520-8FB0-498E26D42FBC";
paths = (
{
closed = 1;
nodes = (
"306 395 OFFCURVE",
"297 352 OFFCURVE",
"340 352 CURVE SMOOTH",
"367 352 OFFCURVE",
"379 373 OFFCURVE",
"379 396 CURVE SMOOTH",
"379 444 OFFCURVE",
"317 472 OFFCURVE",
"228 473 CURVE SMOOTH",
"159 473 OFFCURVE",
"72 432 OFFCURVE",
"72 344 CURVE SMOOTH",
"72 258 OFFCURVE",
"142 227 OFFCURVE",
"206 201 CURVE SMOOTH",
"257 181 OFFCURVE",
"302 166 OFFCURVE",
"302 116 CURVE SMOOTH",
"302 63 OFFCURVE",
"254 54 OFFCURVE",
"222 54 CURVE SMOOTH",
"96 54 OFFCURVE",
"150 164 OFFCURVE",
"90 164 CURVE SMOOTH",
"74 164 OFFCURVE",
"49 138 OFFCURVE",
"49 95 CURVE SMOOTH",
"49 67 OFFCURVE",
"63 39 OFFCURVE",
"89 15 CURVE SMOOTH",
"118 -11 OFFCURVE",
"167 -25 OFFCURVE",
"222 -25 CURVE SMOOTH",
"319 -25 OFFCURVE",
"390 34 OFFCURVE",
"390 116 CURVE SMOOTH",
"390 215 OFFCURVE",
"325 246 OFFCURVE",
"250 274 CURVE SMOOTH",
"203 293 OFFCURVE",
"160 310 OFFCURVE",
"160 344 CURVE SMOOTH",
"160 379 OFFCURVE",
"196 395 OFFCURVE",
"228 395 CURVE SMOOTH"
);
}
);
width = 445;
}
);
},
